M48
INCH,TZ
T1C0.025
T2C0.032
T3C0.039
T4C0.039
T5C0.040
T6C0.043
T7C0.055
T8C0.063
T9C0.118
T10C0.138
%
G90
G05
T1
X110942Y-64881
X113878Y-56083
X113976Y-58937
X114016Y-57087
X114035Y-61850
X114508Y-61929
X115460Y-51980
X115689Y-60157
X115748Y-60650
X115807Y-56063
X115807Y-57087
X115860Y-45450
X117053Y-68042
X117500Y-68366
X118420Y-59120
X119200Y-48200
X120177Y-62008
X120217Y-63012
X122940Y-69080
X123819Y-58346
X124140Y-51880
X124370Y-58833
X125240Y-41780
X126100Y-49940
X127080Y-73240
X127342Y-62323
X128000Y-41760
X128169Y-61398
X128860Y-41060
X129060Y-86000
X129400Y-71220
X129413Y-68013
X130300Y-71720
X130320Y-67840
X133500Y-61180
X133509Y-70871
X137323Y-69488
T2
X106390Y-56102
X106390Y-57283
X106587Y-45079
X106587Y-46260
X107390Y-56102
X107390Y-57283
X107587Y-45079
X107587Y-46260
X114370Y-42610
X114370Y-43610
X114370Y-63673
X114370Y-64673
X115051Y-83661
X115051Y-84843
X115157Y-77256
X115157Y-78256
X115485Y-42520
X115485Y-43520
X115551Y-63673
X115551Y-64673
X116051Y-83661
X116051Y-84843
X117004Y-46654
X117110Y-41807
X117110Y-44807
X118110Y-41807
X118110Y-44807
X119110Y-41807
X119110Y-44807
X120004Y-46654
X131295Y-57370
X131295Y-58370
X132480Y-57180
X132480Y-58180
X134252Y-45169
X134252Y-46169
X134295Y-42830
X134295Y-43830
X134910Y-48225
X134910Y-49610
X135660Y-45180
X135660Y-46180
X135910Y-48225
X135910Y-49610
T3
X106752Y-61614
X107752Y-61614
X108752Y-61614
X109752Y-61614
X110752Y-61614
X111752Y-61614
T4
X128739Y-54910
X128740Y-42323
X129526Y-54910
X129528Y-42323
X130314Y-54910
X130315Y-42323
X131101Y-54910
X131102Y-42323
T5
X107087Y-48213
X107087Y-49213
X107087Y-50213
X107283Y-41520
X107283Y-43520
X107283Y-52543
X107283Y-54543
X111992Y-57874
X113992Y-57874
X115051Y-82480
X115157Y-79421
X115157Y-80421
X115354Y-65839
X115354Y-66839
X115354Y-72728
X115354Y-73728
X116051Y-82480
X117307Y-57874
X118858Y-75646
X118858Y-84646
X119307Y-57874
X119858Y-75646
X119858Y-84646
X120858Y-75646
X120858Y-84646
X121858Y-75646
X121858Y-84646
X122858Y-75646
X122858Y-84646
X123858Y-75646
X123858Y-84646
X124858Y-75646
X124858Y-84646
X125858Y-75646
X125858Y-84646
X126858Y-75646
X126858Y-84646
X127858Y-75646
X127858Y-84646
X128858Y-75646
X128858Y-84646
X129858Y-75646
X129858Y-84646
X130858Y-75646
X130858Y-84646
X131858Y-75646
X131858Y-84646
X132858Y-75646
X132858Y-84646
X133858Y-75646
X133858Y-84646
X134433Y-56693
X135433Y-56693
X136008Y-85039
X136433Y-56693
X137008Y-85039
X138008Y-85039
T6
X106795Y-64858
X106795Y-65858
X106795Y-66858
X106795Y-67858
X106795Y-68858
X106795Y-69858
X106795Y-70858
X106795Y-71858
X106795Y-72858
X106795Y-73858
X106795Y-74858
X106795Y-75858
X106795Y-76858
X106795Y-77858
X106795Y-78858
X106795Y-79858
X106795Y-80858
X106795Y-81858
X106795Y-82858
X106795Y-83858
X112795Y-64858
X112795Y-65858
X112795Y-66858
X112795Y-67858
X112795Y-68858
X112795Y-69858
X112795Y-70858
X112795Y-71858
X112795Y-72858
X112795Y-73858
X112795Y-74858
X112795Y-75858
X112795Y-76858
X112795Y-77858
X112795Y-78858
X112795Y-79858
X112795Y-80858
X112795Y-81858
X112795Y-82858
X112795Y-83858
X114173Y-54692
X115173Y-54692
X116173Y-54692
X117173Y-54692
X118173Y-54692
X119173Y-54692
X120173Y-54692
X121173Y-54692
X121599Y-56570
X122599Y-56570
X123599Y-56570
X124599Y-56570
X125599Y-56570
X128936Y-49201
X128937Y-48031
X129920Y-49201
X129921Y-48031
X130904Y-49201
X130906Y-48031
T7
X113189Y-38386
X114173Y-39370
X116142Y-38386
X118110Y-39370
X119094Y-38386
X123031Y-38386
X124016Y-39370
X125984Y-38386
X127953Y-39370
X128937Y-38386
T8
X132677Y-37008
X133661Y-37008
X134646Y-35039
X135630Y-37008
X136614Y-37008
T9
X108268Y-36417
X108268Y-38817
X110268Y-37317
T10
X106693Y-85433
X138189Y-35433
X138189Y-82677
T0
M30
