G04 (created by PCBNEW (2013-07-07 BZR 4022)-stable) date 25/05/2015 14:38:35*
%MOIN*%
G04 Gerber Fmt 3.4, Leading zero omitted, Abs format*
%FSLAX34Y34*%
G01*
G70*
G90*
G04 APERTURE LIST*
%ADD10C,0.00590551*%
%ADD11C,0.00787402*%
%ADD12C,0.015*%
%ADD13C,0.006*%
%ADD14C,0.012*%
%ADD15C,0.01*%
%ADD16C,0.008*%
%ADD17C,0.0035*%
G04 APERTURE END LIST*
G54D10*
G54D11*
X114285Y-70895D02*
X114679Y-71026D01*
X114285Y-71157D01*
X114660Y-71270D02*
X114679Y-71326D01*
X114679Y-71420D01*
X114660Y-71457D01*
X114641Y-71476D01*
X114604Y-71495D01*
X114566Y-71495D01*
X114529Y-71476D01*
X114510Y-71457D01*
X114491Y-71420D01*
X114473Y-71345D01*
X114454Y-71307D01*
X114435Y-71288D01*
X114398Y-71270D01*
X114360Y-71270D01*
X114323Y-71288D01*
X114304Y-71307D01*
X114285Y-71345D01*
X114285Y-71438D01*
X114304Y-71495D01*
X114679Y-71870D02*
X114679Y-71645D01*
X114679Y-71757D02*
X114285Y-71757D01*
X114341Y-71720D01*
X114379Y-71682D01*
X114398Y-71645D01*
X114285Y-72113D02*
X114285Y-72151D01*
X114304Y-72188D01*
X114323Y-72207D01*
X114360Y-72226D01*
X114435Y-72245D01*
X114529Y-72245D01*
X114604Y-72226D01*
X114641Y-72207D01*
X114660Y-72188D01*
X114679Y-72151D01*
X114679Y-72113D01*
X114660Y-72076D01*
X114641Y-72057D01*
X114604Y-72038D01*
X114529Y-72020D01*
X114435Y-72020D01*
X114360Y-72038D01*
X114323Y-72057D01*
X114304Y-72076D01*
X114285Y-72113D01*
X114285Y-72601D02*
X114285Y-72413D01*
X114473Y-72395D01*
X114454Y-72413D01*
X114435Y-72451D01*
X114435Y-72545D01*
X114454Y-72582D01*
X114473Y-72601D01*
X114510Y-72620D01*
X114604Y-72620D01*
X114641Y-72601D01*
X114660Y-72582D01*
X114679Y-72545D01*
X114679Y-72451D01*
X114660Y-72413D01*
X114641Y-72395D01*
X114285Y-72751D02*
X114285Y-72994D01*
X114435Y-72863D01*
X114435Y-72920D01*
X114454Y-72957D01*
X114473Y-72976D01*
X114510Y-72994D01*
X114604Y-72994D01*
X114641Y-72976D01*
X114660Y-72957D01*
X114679Y-72920D01*
X114679Y-72807D01*
X114660Y-72770D01*
X114641Y-72751D01*
X114679Y-73688D02*
X114491Y-73557D01*
X114679Y-73463D02*
X114285Y-73463D01*
X114285Y-73613D01*
X114304Y-73651D01*
X114323Y-73669D01*
X114360Y-73688D01*
X114416Y-73688D01*
X114454Y-73669D01*
X114473Y-73651D01*
X114491Y-73613D01*
X114491Y-73463D01*
X114660Y-74007D02*
X114679Y-73969D01*
X114679Y-73894D01*
X114660Y-73857D01*
X114623Y-73838D01*
X114473Y-73838D01*
X114435Y-73857D01*
X114416Y-73894D01*
X114416Y-73969D01*
X114435Y-74007D01*
X114473Y-74026D01*
X114510Y-74026D01*
X114548Y-73838D01*
X114660Y-74176D02*
X114679Y-74213D01*
X114679Y-74288D01*
X114660Y-74326D01*
X114623Y-74344D01*
X114604Y-74344D01*
X114566Y-74326D01*
X114548Y-74288D01*
X114548Y-74232D01*
X114529Y-74194D01*
X114491Y-74176D01*
X114473Y-74176D01*
X114435Y-74194D01*
X114416Y-74232D01*
X114416Y-74288D01*
X114435Y-74326D01*
X114660Y-74663D02*
X114679Y-74626D01*
X114679Y-74551D01*
X114660Y-74513D01*
X114623Y-74494D01*
X114473Y-74494D01*
X114435Y-74513D01*
X114416Y-74551D01*
X114416Y-74626D01*
X114435Y-74663D01*
X114473Y-74682D01*
X114510Y-74682D01*
X114548Y-74494D01*
X114416Y-74794D02*
X114416Y-74944D01*
X114285Y-74851D02*
X114623Y-74851D01*
X114660Y-74869D01*
X114679Y-74907D01*
X114679Y-74944D01*
X117135Y-67593D02*
X117079Y-67611D01*
X117060Y-67630D01*
X117041Y-67668D01*
X117041Y-67724D01*
X117060Y-67761D01*
X117079Y-67780D01*
X117116Y-67799D01*
X117266Y-67799D01*
X117266Y-67405D01*
X117135Y-67405D01*
X117097Y-67424D01*
X117079Y-67443D01*
X117060Y-67480D01*
X117060Y-67518D01*
X117079Y-67555D01*
X117097Y-67574D01*
X117135Y-67593D01*
X117266Y-67593D01*
X116816Y-67799D02*
X116854Y-67780D01*
X116872Y-67761D01*
X116891Y-67724D01*
X116891Y-67611D01*
X116872Y-67574D01*
X116854Y-67555D01*
X116816Y-67536D01*
X116760Y-67536D01*
X116722Y-67555D01*
X116704Y-67574D01*
X116685Y-67611D01*
X116685Y-67724D01*
X116704Y-67761D01*
X116722Y-67780D01*
X116760Y-67799D01*
X116816Y-67799D01*
X116460Y-67799D02*
X116497Y-67780D01*
X116516Y-67761D01*
X116535Y-67724D01*
X116535Y-67611D01*
X116516Y-67574D01*
X116497Y-67555D01*
X116460Y-67536D01*
X116404Y-67536D01*
X116366Y-67555D01*
X116348Y-67574D01*
X116329Y-67611D01*
X116329Y-67724D01*
X116348Y-67761D01*
X116366Y-67780D01*
X116404Y-67799D01*
X116460Y-67799D01*
X116216Y-67536D02*
X116066Y-67536D01*
X116160Y-67405D02*
X116160Y-67743D01*
X116141Y-67780D01*
X116104Y-67799D01*
X116066Y-67799D01*
X115729Y-67799D02*
X115954Y-67799D01*
X115841Y-67799D02*
X115841Y-67405D01*
X115879Y-67461D01*
X115916Y-67499D01*
X115954Y-67518D01*
X115560Y-67649D02*
X115260Y-67649D01*
X115073Y-67536D02*
X114773Y-67649D01*
X115073Y-67761D01*
X114379Y-67424D02*
X114417Y-67405D01*
X114473Y-67405D01*
X114529Y-67424D01*
X114566Y-67461D01*
X114585Y-67499D01*
X114604Y-67574D01*
X114604Y-67630D01*
X114585Y-67705D01*
X114566Y-67743D01*
X114529Y-67780D01*
X114473Y-67799D01*
X114435Y-67799D01*
X114379Y-67780D01*
X114360Y-67761D01*
X114360Y-67630D01*
X114435Y-67630D01*
X114192Y-67799D02*
X114192Y-67405D01*
X113967Y-67799D01*
X113967Y-67405D01*
X113779Y-67799D02*
X113779Y-67405D01*
X113685Y-67405D01*
X113629Y-67424D01*
X113592Y-67461D01*
X113573Y-67499D01*
X113554Y-67574D01*
X113554Y-67630D01*
X113573Y-67705D01*
X113592Y-67743D01*
X113629Y-67780D01*
X113685Y-67799D01*
X113779Y-67799D01*
X116199Y-79550D02*
X115805Y-79550D01*
X115805Y-79643D01*
X115824Y-79700D01*
X115861Y-79737D01*
X115899Y-79756D01*
X115974Y-79775D01*
X116030Y-79775D01*
X116105Y-79756D01*
X116143Y-79737D01*
X116180Y-79700D01*
X116199Y-79643D01*
X116199Y-79550D01*
X115805Y-79887D02*
X115805Y-80112D01*
X116199Y-80000D02*
X115805Y-80000D01*
X116199Y-80468D02*
X116011Y-80337D01*
X116199Y-80243D02*
X115805Y-80243D01*
X115805Y-80393D01*
X115824Y-80431D01*
X115843Y-80449D01*
X115880Y-80468D01*
X115936Y-80468D01*
X115974Y-80449D01*
X115993Y-80431D01*
X116011Y-80393D01*
X116011Y-80243D01*
X116861Y-81839D02*
X116861Y-81445D01*
X116711Y-81445D01*
X116674Y-81464D01*
X116655Y-81483D01*
X116636Y-81520D01*
X116636Y-81576D01*
X116655Y-81614D01*
X116674Y-81633D01*
X116711Y-81651D01*
X116861Y-81651D01*
X116261Y-81839D02*
X116486Y-81839D01*
X116374Y-81839D02*
X116374Y-81445D01*
X116411Y-81501D01*
X116449Y-81539D01*
X116486Y-81558D01*
X116093Y-81689D02*
X115793Y-81689D01*
X115605Y-81576D02*
X115305Y-81689D01*
X115605Y-81801D01*
X115155Y-81445D02*
X114911Y-81445D01*
X115043Y-81595D01*
X114986Y-81595D01*
X114949Y-81614D01*
X114930Y-81633D01*
X114911Y-81670D01*
X114911Y-81764D01*
X114930Y-81801D01*
X114949Y-81820D01*
X114986Y-81839D01*
X115099Y-81839D01*
X115136Y-81820D01*
X115155Y-81801D01*
X114799Y-81445D02*
X114668Y-81839D01*
X114537Y-81445D01*
X114443Y-81445D02*
X114199Y-81445D01*
X114330Y-81595D01*
X114274Y-81595D01*
X114237Y-81614D01*
X114218Y-81633D01*
X114199Y-81670D01*
X114199Y-81764D01*
X114218Y-81801D01*
X114237Y-81820D01*
X114274Y-81839D01*
X114387Y-81839D01*
X114424Y-81820D01*
X114443Y-81801D01*
G54D12*
X106336Y-47212D02*
X106086Y-47212D01*
X106086Y-47212D02*
X106086Y-51212D01*
X106086Y-51212D02*
X106336Y-51212D01*
X107836Y-47212D02*
X106336Y-47212D01*
X106336Y-47212D02*
X106336Y-51212D01*
X106336Y-51212D02*
X107836Y-51212D01*
X107836Y-51212D02*
X107836Y-47212D01*
G54D10*
X134098Y-78045D02*
G75*
G03X134098Y-78045I-640J0D01*
G74*
G01*
X134098Y-79945D02*
G75*
G03X134098Y-79945I-640J0D01*
G74*
G01*
X132158Y-82045D02*
X129258Y-82045D01*
X129258Y-82045D02*
X129258Y-78345D01*
X129258Y-78345D02*
X132158Y-78345D01*
X132158Y-78345D02*
X132158Y-82045D01*
X126458Y-82845D02*
X124958Y-82845D01*
X124958Y-82845D02*
X124958Y-77945D01*
X124958Y-77945D02*
X126458Y-77945D01*
X126458Y-77945D02*
X126458Y-82845D01*
X118258Y-77445D02*
X118258Y-74545D01*
X118258Y-83545D02*
X118258Y-85445D01*
X119058Y-78645D02*
X119958Y-78645D01*
X119958Y-78645D02*
X120158Y-78745D01*
X120158Y-78745D02*
X120258Y-78745D01*
X120258Y-78745D02*
X120258Y-78245D01*
X120258Y-78245D02*
X120158Y-78245D01*
X120158Y-78245D02*
X119958Y-78345D01*
X119958Y-78345D02*
X119058Y-78345D01*
X120458Y-78845D02*
X119058Y-78845D01*
X119058Y-78845D02*
X119058Y-78145D01*
X119058Y-78145D02*
X120458Y-78145D01*
X120458Y-78145D02*
X120458Y-78845D01*
X119758Y-81445D02*
X119258Y-81445D01*
X119258Y-81445D02*
X119258Y-80545D01*
X119258Y-80545D02*
X119758Y-80545D01*
X119758Y-80545D02*
X119758Y-81445D01*
X119758Y-82845D02*
X119258Y-82845D01*
X119258Y-82845D02*
X119258Y-81945D01*
X119258Y-81945D02*
X119758Y-81945D01*
X119758Y-81945D02*
X119758Y-82845D01*
X122858Y-81045D02*
X121058Y-81045D01*
X121058Y-81045D02*
X121058Y-80645D01*
X121058Y-80645D02*
X122858Y-80645D01*
X122858Y-82545D02*
X121058Y-82545D01*
X121058Y-82545D02*
X121058Y-82145D01*
X121058Y-82145D02*
X122858Y-82145D01*
X122158Y-83145D02*
X118758Y-83145D01*
X118758Y-83145D02*
X118758Y-77945D01*
X118758Y-77945D02*
X122958Y-77945D01*
X122958Y-77945D02*
X122958Y-83145D01*
X122958Y-83145D02*
X122158Y-83145D01*
X118258Y-83545D02*
X118658Y-83045D01*
X118658Y-83045D02*
X118658Y-77945D01*
X118658Y-77945D02*
X118258Y-77445D01*
X134358Y-85445D02*
X134358Y-74545D01*
X134358Y-74545D02*
X118258Y-74545D01*
X118258Y-85445D02*
X134358Y-85445D01*
G54D12*
X132479Y-58179D02*
X132479Y-57179D01*
X133038Y-58179D02*
G75*
G03X133038Y-58179I-559J0D01*
G74*
G01*
X131294Y-57370D02*
X131294Y-58370D01*
X131853Y-57370D02*
G75*
G03X131853Y-57370I-559J0D01*
G74*
G01*
X134294Y-43829D02*
X134294Y-42829D01*
X134853Y-43829D02*
G75*
G03X134853Y-43829I-559J0D01*
G74*
G01*
X134251Y-46169D02*
X134251Y-45169D01*
X134810Y-46169D02*
G75*
G03X134810Y-46169I-559J0D01*
G74*
G01*
X114370Y-42610D02*
X114370Y-43610D01*
X114929Y-42610D02*
G75*
G03X114929Y-42610I-559J0D01*
G74*
G01*
X135659Y-46179D02*
X135659Y-45179D01*
X136218Y-46179D02*
G75*
G03X136218Y-46179I-559J0D01*
G74*
G01*
X115485Y-43520D02*
X115485Y-42520D01*
X116044Y-43520D02*
G75*
G03X116044Y-43520I-559J0D01*
G74*
G01*
X135909Y-49609D02*
X134909Y-49609D01*
X136468Y-49609D02*
G75*
G03X136468Y-49609I-559J0D01*
G74*
G01*
X135909Y-48225D02*
X134909Y-48225D01*
X136468Y-48225D02*
G75*
G03X136468Y-48225I-559J0D01*
G74*
G01*
G54D13*
X116551Y-82980D02*
X116551Y-81980D01*
X116551Y-81980D02*
X114551Y-81980D01*
X114551Y-81980D02*
X114551Y-82980D01*
X114551Y-82980D02*
X116551Y-82980D01*
X115854Y-65338D02*
X114854Y-65338D01*
X114854Y-65338D02*
X114854Y-67338D01*
X114854Y-67338D02*
X115854Y-67338D01*
X115854Y-67338D02*
X115854Y-65338D01*
X115854Y-72228D02*
X114854Y-72228D01*
X114854Y-72228D02*
X114854Y-74228D01*
X114854Y-74228D02*
X115854Y-74228D01*
X115854Y-74228D02*
X115854Y-72228D01*
G54D12*
X119860Y-42307D02*
X116360Y-42307D01*
X116360Y-42307D02*
X116360Y-44307D01*
X116360Y-44307D02*
X119860Y-44307D01*
X119860Y-44307D02*
X119860Y-42307D01*
X119860Y-43057D02*
X119360Y-43057D01*
X119360Y-43057D02*
X119360Y-43557D01*
X119360Y-43557D02*
X119860Y-43557D01*
G54D14*
X117003Y-46653D02*
X117303Y-46653D01*
X117303Y-46653D02*
X117303Y-46253D01*
X117303Y-46253D02*
X119703Y-46253D01*
X119703Y-46253D02*
X119703Y-46653D01*
X119703Y-46653D02*
X120003Y-46653D01*
X119703Y-46653D02*
X119703Y-47053D01*
X119703Y-47053D02*
X117303Y-47053D01*
X117303Y-47053D02*
X117303Y-46653D01*
X117503Y-46253D02*
X117503Y-47053D01*
X117603Y-47053D02*
X117603Y-46253D01*
X109033Y-42519D02*
G75*
G03X109033Y-42519I-1750J0D01*
G74*
G01*
X109033Y-53543D02*
G75*
G03X109033Y-53543I-1750J0D01*
G74*
G01*
X120502Y-57874D02*
G75*
G03X120502Y-57874I-2195J0D01*
G74*
G01*
X115187Y-57874D02*
G75*
G03X115187Y-57874I-2195J0D01*
G74*
G01*
X113870Y-63193D02*
X113870Y-65173D01*
X113870Y-65173D02*
X114870Y-65173D01*
X114870Y-65173D02*
X114870Y-63173D01*
X114870Y-63173D02*
X113870Y-63173D01*
X114120Y-63173D02*
X113870Y-63423D01*
X115051Y-63193D02*
X115051Y-65173D01*
X115051Y-65173D02*
X116051Y-65173D01*
X116051Y-65173D02*
X116051Y-63173D01*
X116051Y-63173D02*
X115051Y-63173D01*
X115301Y-63173D02*
X115051Y-63423D01*
X114571Y-85342D02*
X116551Y-85342D01*
X116551Y-85342D02*
X116551Y-84342D01*
X116551Y-84342D02*
X114551Y-84342D01*
X114551Y-84342D02*
X114551Y-85342D01*
X114551Y-85092D02*
X114801Y-85342D01*
X114571Y-84161D02*
X116551Y-84161D01*
X116551Y-84161D02*
X116551Y-83161D01*
X116551Y-83161D02*
X114551Y-83161D01*
X114551Y-83161D02*
X114551Y-84161D01*
X114551Y-83911D02*
X114801Y-84161D01*
X105909Y-56602D02*
X107889Y-56602D01*
X107889Y-56602D02*
X107889Y-55602D01*
X107889Y-55602D02*
X105889Y-55602D01*
X105889Y-55602D02*
X105889Y-56602D01*
X105889Y-56352D02*
X106139Y-56602D01*
X105909Y-57783D02*
X107889Y-57783D01*
X107889Y-57783D02*
X107889Y-56783D01*
X107889Y-56783D02*
X105889Y-56783D01*
X105889Y-56783D02*
X105889Y-57783D01*
X105889Y-57533D02*
X106139Y-57783D01*
X106106Y-46759D02*
X108086Y-46759D01*
X108086Y-46759D02*
X108086Y-45759D01*
X108086Y-45759D02*
X106086Y-45759D01*
X106086Y-45759D02*
X106086Y-46759D01*
X106086Y-46509D02*
X106336Y-46759D01*
X106106Y-45578D02*
X108086Y-45578D01*
X108086Y-45578D02*
X108086Y-44578D01*
X108086Y-44578D02*
X106086Y-44578D01*
X106086Y-44578D02*
X106086Y-45578D01*
X106086Y-45328D02*
X106336Y-45578D01*
G54D10*
X110342Y-70658D02*
G75*
G03X110342Y-70658I-447J0D01*
G74*
G01*
X110342Y-66158D02*
G75*
G03X110342Y-66158I-447J0D01*
G74*
G01*
X110595Y-69158D02*
X109195Y-69158D01*
X109195Y-69158D02*
X109195Y-72058D01*
X109195Y-72058D02*
X110495Y-72058D01*
X110495Y-72058D02*
X110595Y-72058D01*
X110595Y-72058D02*
X110595Y-69158D01*
X110595Y-67658D02*
X109195Y-67658D01*
X109195Y-67658D02*
X109195Y-64658D01*
X109195Y-64658D02*
X110595Y-64658D01*
X110595Y-64658D02*
X110595Y-67658D01*
X111395Y-82858D02*
X111395Y-81158D01*
X111395Y-81158D02*
X108395Y-81158D01*
X108395Y-81158D02*
X108395Y-82858D01*
X111395Y-84558D02*
X111395Y-83758D01*
X111395Y-83758D02*
X111395Y-82858D01*
X108395Y-82858D02*
X108395Y-84558D01*
X108395Y-84558D02*
X111395Y-84558D01*
X113295Y-84358D02*
X113295Y-64258D01*
X113295Y-64258D02*
X106295Y-64258D01*
X106295Y-64258D02*
X106295Y-84358D01*
X106295Y-84358D02*
X113295Y-84358D01*
X120275Y-34055D02*
X120275Y-38976D01*
X120275Y-33661D02*
X120275Y-33464D01*
X120275Y-34055D02*
X120866Y-34055D01*
X120866Y-34055D02*
X120866Y-33661D01*
X120866Y-33661D02*
X120275Y-33661D01*
X112401Y-38976D02*
X120275Y-38976D01*
X112007Y-33858D02*
X112007Y-33464D01*
X112007Y-33858D02*
X112401Y-33858D01*
X112401Y-33858D02*
X112401Y-38976D01*
X116141Y-33464D02*
X112007Y-33464D01*
X116141Y-33464D02*
X120275Y-33464D01*
X130118Y-34055D02*
X130118Y-38976D01*
X130118Y-33661D02*
X130118Y-33464D01*
X130118Y-34055D02*
X130708Y-34055D01*
X130708Y-34055D02*
X130708Y-33661D01*
X130708Y-33661D02*
X130118Y-33661D01*
X122244Y-38976D02*
X130118Y-38976D01*
X121850Y-33858D02*
X121850Y-33464D01*
X121850Y-33858D02*
X122244Y-33858D01*
X122244Y-33858D02*
X122244Y-38976D01*
X125984Y-33464D02*
X121850Y-33464D01*
X125984Y-33464D02*
X130118Y-33464D01*
G54D12*
X106567Y-33617D02*
X106567Y-33317D01*
X106567Y-33317D02*
X109967Y-33317D01*
X109967Y-33317D02*
X109967Y-33617D01*
X106567Y-34817D02*
X109967Y-34817D01*
X106567Y-38617D02*
X109967Y-38617D01*
X109967Y-33617D02*
X109967Y-38617D01*
X106567Y-33617D02*
X106567Y-38617D01*
G54D15*
X109251Y-60364D02*
X112251Y-60364D01*
X109251Y-62114D02*
X112251Y-62114D01*
X109251Y-62864D02*
X112251Y-62864D01*
X106251Y-62864D02*
X106251Y-60364D01*
X112251Y-62864D02*
X112251Y-60364D01*
X109251Y-62114D02*
X106251Y-62114D01*
X106251Y-62864D02*
X109251Y-62864D01*
X109251Y-60364D02*
X106251Y-60364D01*
G54D13*
X115657Y-78921D02*
X114657Y-78921D01*
X114657Y-78921D02*
X114657Y-80921D01*
X114657Y-80921D02*
X115657Y-80921D01*
X115657Y-80921D02*
X115657Y-78921D01*
G54D14*
X115657Y-78735D02*
X115657Y-76755D01*
X115657Y-76755D02*
X114657Y-76755D01*
X114657Y-76755D02*
X114657Y-78755D01*
X114657Y-78755D02*
X115657Y-78755D01*
X115407Y-78755D02*
X115657Y-78505D01*
G54D16*
X107979Y-48907D02*
X108465Y-48907D01*
X108522Y-48926D01*
X108550Y-48945D01*
X108579Y-48984D01*
X108579Y-49060D01*
X108550Y-49098D01*
X108522Y-49117D01*
X108465Y-49136D01*
X107979Y-49136D01*
X108579Y-49536D02*
X108579Y-49307D01*
X108579Y-49422D02*
X107979Y-49422D01*
X108065Y-49384D01*
X108122Y-49345D01*
X108150Y-49307D01*
G54D10*
X134817Y-82442D02*
X134423Y-82442D01*
X134705Y-82573D01*
X134423Y-82705D01*
X134817Y-82705D01*
X134817Y-82892D02*
X134423Y-82892D01*
X134423Y-83042D01*
X134442Y-83080D01*
X134461Y-83098D01*
X134498Y-83117D01*
X134555Y-83117D01*
X134592Y-83098D01*
X134611Y-83080D01*
X134630Y-83042D01*
X134630Y-82892D01*
X134423Y-83248D02*
X134423Y-83492D01*
X134573Y-83361D01*
X134573Y-83417D01*
X134592Y-83455D01*
X134611Y-83473D01*
X134648Y-83492D01*
X134742Y-83492D01*
X134780Y-83473D01*
X134798Y-83455D01*
X134817Y-83417D01*
X134817Y-83305D01*
X134798Y-83267D01*
X134780Y-83248D01*
X134817Y-83867D02*
X134817Y-83642D01*
X134817Y-83754D02*
X134423Y-83754D01*
X134480Y-83717D01*
X134517Y-83679D01*
X134536Y-83642D01*
G54D16*
X132503Y-56542D02*
X132670Y-56280D01*
X132789Y-56542D02*
X132789Y-55992D01*
X132598Y-55992D01*
X132550Y-56018D01*
X132527Y-56045D01*
X132503Y-56097D01*
X132503Y-56175D01*
X132527Y-56228D01*
X132550Y-56254D01*
X132598Y-56280D01*
X132789Y-56280D01*
X132074Y-55992D02*
X132170Y-55992D01*
X132217Y-56018D01*
X132241Y-56045D01*
X132289Y-56123D01*
X132312Y-56228D01*
X132312Y-56437D01*
X132289Y-56490D01*
X132265Y-56516D01*
X132217Y-56542D01*
X132122Y-56542D01*
X132074Y-56516D01*
X132050Y-56490D01*
X132027Y-56437D01*
X132027Y-56306D01*
X132050Y-56254D01*
X132074Y-56228D01*
X132122Y-56202D01*
X132217Y-56202D01*
X132265Y-56228D01*
X132289Y-56254D01*
X132312Y-56306D01*
X131343Y-56582D02*
X131510Y-56320D01*
X131629Y-56582D02*
X131629Y-56032D01*
X131438Y-56032D01*
X131390Y-56058D01*
X131367Y-56085D01*
X131343Y-56137D01*
X131343Y-56215D01*
X131367Y-56268D01*
X131390Y-56294D01*
X131438Y-56320D01*
X131629Y-56320D01*
X130890Y-56032D02*
X131129Y-56032D01*
X131152Y-56294D01*
X131129Y-56268D01*
X131081Y-56242D01*
X130962Y-56242D01*
X130914Y-56268D01*
X130890Y-56294D01*
X130867Y-56346D01*
X130867Y-56477D01*
X130890Y-56530D01*
X130914Y-56556D01*
X130962Y-56582D01*
X131081Y-56582D01*
X131129Y-56556D01*
X131152Y-56530D01*
X135603Y-44147D02*
X135769Y-43885D01*
X135888Y-44147D02*
X135888Y-43597D01*
X135698Y-43597D01*
X135650Y-43623D01*
X135627Y-43649D01*
X135603Y-43702D01*
X135603Y-43780D01*
X135627Y-43833D01*
X135650Y-43859D01*
X135698Y-43885D01*
X135888Y-43885D01*
X135365Y-44147D02*
X135269Y-44147D01*
X135222Y-44121D01*
X135198Y-44095D01*
X135150Y-44016D01*
X135127Y-43911D01*
X135127Y-43702D01*
X135150Y-43649D01*
X135174Y-43623D01*
X135222Y-43597D01*
X135317Y-43597D01*
X135365Y-43623D01*
X135388Y-43649D01*
X135412Y-43702D01*
X135412Y-43833D01*
X135388Y-43885D01*
X135365Y-43911D01*
X135317Y-43938D01*
X135222Y-43938D01*
X135174Y-43911D01*
X135150Y-43885D01*
X135127Y-43833D01*
X134263Y-47522D02*
X134430Y-47260D01*
X134549Y-47522D02*
X134549Y-46972D01*
X134358Y-46972D01*
X134310Y-46998D01*
X134287Y-47025D01*
X134263Y-47077D01*
X134263Y-47155D01*
X134287Y-47208D01*
X134310Y-47234D01*
X134358Y-47260D01*
X134549Y-47260D01*
X133834Y-47155D02*
X133834Y-47522D01*
X133953Y-46946D02*
X134072Y-47339D01*
X133763Y-47339D01*
X114458Y-41872D02*
X114625Y-41610D01*
X114744Y-41872D02*
X114744Y-41322D01*
X114553Y-41322D01*
X114505Y-41348D01*
X114482Y-41375D01*
X114458Y-41427D01*
X114458Y-41505D01*
X114482Y-41558D01*
X114505Y-41584D01*
X114553Y-41610D01*
X114744Y-41610D01*
X114172Y-41558D02*
X114220Y-41532D01*
X114244Y-41505D01*
X114267Y-41453D01*
X114267Y-41427D01*
X114244Y-41375D01*
X114220Y-41348D01*
X114172Y-41322D01*
X114077Y-41322D01*
X114029Y-41348D01*
X114005Y-41375D01*
X113982Y-41427D01*
X113982Y-41453D01*
X114005Y-41505D01*
X114029Y-41532D01*
X114077Y-41558D01*
X114172Y-41558D01*
X114220Y-41584D01*
X114244Y-41610D01*
X114267Y-41663D01*
X114267Y-41767D01*
X114244Y-41820D01*
X114220Y-41846D01*
X114172Y-41872D01*
X114077Y-41872D01*
X114029Y-41846D01*
X114005Y-41820D01*
X113982Y-41767D01*
X113982Y-41663D01*
X114005Y-41610D01*
X114029Y-41584D01*
X114077Y-41558D01*
X135663Y-47502D02*
X135830Y-47240D01*
X135949Y-47502D02*
X135949Y-46952D01*
X135758Y-46952D01*
X135710Y-46978D01*
X135687Y-47005D01*
X135663Y-47057D01*
X135663Y-47135D01*
X135687Y-47188D01*
X135710Y-47214D01*
X135758Y-47240D01*
X135949Y-47240D01*
X135496Y-46952D02*
X135187Y-46952D01*
X135353Y-47162D01*
X135282Y-47162D01*
X135234Y-47188D01*
X135210Y-47214D01*
X135187Y-47266D01*
X135187Y-47397D01*
X135210Y-47450D01*
X135234Y-47476D01*
X135282Y-47502D01*
X135425Y-47502D01*
X135472Y-47476D01*
X135496Y-47450D01*
X115583Y-41902D02*
X115750Y-41640D01*
X115869Y-41902D02*
X115869Y-41352D01*
X115678Y-41352D01*
X115630Y-41378D01*
X115607Y-41405D01*
X115583Y-41457D01*
X115583Y-41535D01*
X115607Y-41588D01*
X115630Y-41614D01*
X115678Y-41640D01*
X115869Y-41640D01*
X115416Y-41352D02*
X115083Y-41352D01*
X115297Y-41902D01*
X137207Y-49526D02*
X136945Y-49359D01*
X137207Y-49240D02*
X136657Y-49240D01*
X136657Y-49431D01*
X136683Y-49478D01*
X136709Y-49502D01*
X136762Y-49526D01*
X136840Y-49526D01*
X136892Y-49502D01*
X136919Y-49478D01*
X136945Y-49431D01*
X136945Y-49240D01*
X136709Y-49716D02*
X136683Y-49740D01*
X136657Y-49788D01*
X136657Y-49907D01*
X136683Y-49955D01*
X136709Y-49978D01*
X136762Y-50002D01*
X136814Y-50002D01*
X136892Y-49978D01*
X137207Y-49693D01*
X137207Y-50002D01*
X137207Y-48141D02*
X136945Y-47975D01*
X137207Y-47856D02*
X136657Y-47856D01*
X136657Y-48046D01*
X136683Y-48094D01*
X136709Y-48118D01*
X136762Y-48141D01*
X136840Y-48141D01*
X136892Y-48118D01*
X136919Y-48094D01*
X136945Y-48046D01*
X136945Y-47856D01*
X137207Y-48618D02*
X137207Y-48332D01*
X137207Y-48475D02*
X136657Y-48475D01*
X136735Y-48427D01*
X136788Y-48379D01*
X136814Y-48332D01*
G54D13*
X117269Y-82301D02*
X117269Y-82515D01*
X117284Y-82558D01*
X117312Y-82587D01*
X117355Y-82601D01*
X117384Y-82601D01*
X117127Y-82601D02*
X117127Y-82301D01*
X117012Y-82301D01*
X116984Y-82315D01*
X116970Y-82330D01*
X116955Y-82358D01*
X116955Y-82401D01*
X116970Y-82430D01*
X116984Y-82444D01*
X117012Y-82458D01*
X117127Y-82458D01*
X116855Y-82301D02*
X116670Y-82301D01*
X116770Y-82415D01*
X116727Y-82415D01*
X116698Y-82430D01*
X116684Y-82444D01*
X116670Y-82472D01*
X116670Y-82544D01*
X116684Y-82572D01*
X116698Y-82587D01*
X116727Y-82601D01*
X116812Y-82601D01*
X116841Y-82587D01*
X116855Y-82572D01*
X115981Y-66150D02*
X116195Y-66150D01*
X116238Y-66135D01*
X116267Y-66107D01*
X116281Y-66064D01*
X116281Y-66035D01*
X116281Y-66292D02*
X115981Y-66292D01*
X115981Y-66407D01*
X115995Y-66435D01*
X116010Y-66450D01*
X116038Y-66464D01*
X116081Y-66464D01*
X116110Y-66450D01*
X116124Y-66435D01*
X116138Y-66407D01*
X116138Y-66292D01*
X116281Y-66750D02*
X116281Y-66578D01*
X116281Y-66664D02*
X115981Y-66664D01*
X116024Y-66635D01*
X116052Y-66607D01*
X116067Y-66578D01*
X115961Y-72990D02*
X116175Y-72990D01*
X116218Y-72975D01*
X116247Y-72947D01*
X116261Y-72904D01*
X116261Y-72875D01*
X116261Y-73132D02*
X115961Y-73132D01*
X115961Y-73247D01*
X115975Y-73275D01*
X115990Y-73290D01*
X116018Y-73304D01*
X116061Y-73304D01*
X116090Y-73290D01*
X116104Y-73275D01*
X116118Y-73247D01*
X116118Y-73132D01*
X115990Y-73418D02*
X115975Y-73432D01*
X115961Y-73461D01*
X115961Y-73532D01*
X115975Y-73561D01*
X115990Y-73575D01*
X116018Y-73590D01*
X116047Y-73590D01*
X116090Y-73575D01*
X116261Y-73404D01*
X116261Y-73590D01*
X118500Y-43149D02*
X118500Y-42549D01*
X118081Y-43092D02*
X118100Y-43121D01*
X118157Y-43149D01*
X118195Y-43149D01*
X118253Y-43121D01*
X118291Y-43064D01*
X118310Y-43007D01*
X118329Y-42892D01*
X118329Y-42807D01*
X118310Y-42692D01*
X118291Y-42635D01*
X118253Y-42578D01*
X118195Y-42549D01*
X118157Y-42549D01*
X118100Y-42578D01*
X118081Y-42607D01*
X117700Y-43149D02*
X117929Y-43149D01*
X117814Y-43149D02*
X117814Y-42549D01*
X117853Y-42635D01*
X117891Y-42692D01*
X117929Y-42721D01*
G54D16*
X118799Y-46815D02*
X118799Y-46415D01*
X118703Y-46415D01*
X118646Y-46434D01*
X118608Y-46472D01*
X118589Y-46510D01*
X118570Y-46586D01*
X118570Y-46644D01*
X118589Y-46720D01*
X118608Y-46758D01*
X118646Y-46796D01*
X118703Y-46815D01*
X118799Y-46815D01*
X118189Y-46815D02*
X118418Y-46815D01*
X118303Y-46815D02*
X118303Y-46415D01*
X118342Y-46472D01*
X118380Y-46510D01*
X118418Y-46529D01*
X108407Y-42453D02*
X108426Y-42433D01*
X108445Y-42376D01*
X108445Y-42338D01*
X108426Y-42281D01*
X108388Y-42243D01*
X108350Y-42224D01*
X108273Y-42205D01*
X108216Y-42205D01*
X108140Y-42224D01*
X108102Y-42243D01*
X108064Y-42281D01*
X108045Y-42338D01*
X108045Y-42376D01*
X108064Y-42433D01*
X108083Y-42453D01*
X108445Y-42833D02*
X108445Y-42605D01*
X108445Y-42719D02*
X108045Y-42719D01*
X108102Y-42681D01*
X108140Y-42643D01*
X108159Y-42605D01*
X106407Y-53476D02*
X106426Y-53457D01*
X106445Y-53400D01*
X106445Y-53362D01*
X106426Y-53305D01*
X106388Y-53267D01*
X106350Y-53248D01*
X106273Y-53229D01*
X106216Y-53229D01*
X106140Y-53248D01*
X106102Y-53267D01*
X106064Y-53305D01*
X106045Y-53362D01*
X106045Y-53400D01*
X106064Y-53457D01*
X106083Y-53476D01*
X106178Y-53819D02*
X106445Y-53819D01*
X106026Y-53724D02*
X106312Y-53629D01*
X106312Y-53876D01*
G54D15*
X118390Y-59028D02*
X118414Y-59052D01*
X118485Y-59076D01*
X118533Y-59076D01*
X118604Y-59052D01*
X118652Y-59004D01*
X118676Y-58957D01*
X118699Y-58862D01*
X118699Y-58790D01*
X118676Y-58695D01*
X118652Y-58647D01*
X118604Y-58600D01*
X118533Y-58576D01*
X118485Y-58576D01*
X118414Y-58600D01*
X118390Y-58624D01*
X118223Y-58576D02*
X117890Y-58576D01*
X118104Y-59076D01*
X113313Y-57028D02*
X113337Y-57052D01*
X113408Y-57076D01*
X113456Y-57076D01*
X113527Y-57052D01*
X113575Y-57004D01*
X113599Y-56957D01*
X113623Y-56862D01*
X113623Y-56790D01*
X113599Y-56695D01*
X113575Y-56647D01*
X113527Y-56600D01*
X113456Y-56576D01*
X113408Y-56576D01*
X113337Y-56600D01*
X113313Y-56624D01*
X112837Y-57076D02*
X113123Y-57076D01*
X112980Y-57076D02*
X112980Y-56576D01*
X113027Y-56647D01*
X113075Y-56695D01*
X113123Y-56719D01*
X112527Y-56576D02*
X112480Y-56576D01*
X112432Y-56600D01*
X112408Y-56624D01*
X112384Y-56671D01*
X112361Y-56766D01*
X112361Y-56885D01*
X112384Y-56981D01*
X112408Y-57028D01*
X112432Y-57052D01*
X112480Y-57076D01*
X112527Y-57076D01*
X112575Y-57052D01*
X112599Y-57028D01*
X112623Y-56981D01*
X112646Y-56885D01*
X112646Y-56766D01*
X112623Y-56671D01*
X112599Y-56624D01*
X112575Y-56600D01*
X112527Y-56576D01*
G54D16*
X114426Y-62963D02*
X114445Y-62982D01*
X114502Y-63001D01*
X114540Y-63001D01*
X114598Y-62982D01*
X114636Y-62944D01*
X114655Y-62906D01*
X114674Y-62830D01*
X114674Y-62773D01*
X114655Y-62697D01*
X114636Y-62659D01*
X114598Y-62620D01*
X114540Y-62601D01*
X114502Y-62601D01*
X114445Y-62620D01*
X114426Y-62640D01*
X114236Y-63001D02*
X114159Y-63001D01*
X114121Y-62982D01*
X114102Y-62963D01*
X114064Y-62906D01*
X114045Y-62830D01*
X114045Y-62678D01*
X114064Y-62640D01*
X114083Y-62620D01*
X114121Y-62601D01*
X114198Y-62601D01*
X114236Y-62620D01*
X114255Y-62640D01*
X114274Y-62678D01*
X114274Y-62773D01*
X114255Y-62811D01*
X114236Y-62830D01*
X114198Y-62849D01*
X114121Y-62849D01*
X114083Y-62830D01*
X114064Y-62811D01*
X114045Y-62773D01*
X115666Y-62963D02*
X115685Y-62982D01*
X115742Y-63001D01*
X115780Y-63001D01*
X115838Y-62982D01*
X115876Y-62944D01*
X115895Y-62906D01*
X115914Y-62830D01*
X115914Y-62773D01*
X115895Y-62697D01*
X115876Y-62659D01*
X115838Y-62620D01*
X115780Y-62601D01*
X115742Y-62601D01*
X115685Y-62620D01*
X115666Y-62640D01*
X115438Y-62773D02*
X115476Y-62754D01*
X115495Y-62735D01*
X115514Y-62697D01*
X115514Y-62678D01*
X115495Y-62640D01*
X115476Y-62620D01*
X115438Y-62601D01*
X115361Y-62601D01*
X115323Y-62620D01*
X115304Y-62640D01*
X115285Y-62678D01*
X115285Y-62697D01*
X115304Y-62735D01*
X115323Y-62754D01*
X115361Y-62773D01*
X115438Y-62773D01*
X115476Y-62792D01*
X115495Y-62811D01*
X115514Y-62849D01*
X115514Y-62925D01*
X115495Y-62963D01*
X115476Y-62982D01*
X115438Y-63001D01*
X115361Y-63001D01*
X115323Y-62982D01*
X115304Y-62963D01*
X115285Y-62925D01*
X115285Y-62849D01*
X115304Y-62811D01*
X115323Y-62792D01*
X115361Y-62773D01*
X117306Y-84903D02*
X117325Y-84922D01*
X117382Y-84941D01*
X117420Y-84941D01*
X117478Y-84922D01*
X117516Y-84884D01*
X117535Y-84846D01*
X117554Y-84770D01*
X117554Y-84713D01*
X117535Y-84637D01*
X117516Y-84599D01*
X117478Y-84560D01*
X117420Y-84541D01*
X117382Y-84541D01*
X117325Y-84560D01*
X117306Y-84580D01*
X116963Y-84541D02*
X117039Y-84541D01*
X117078Y-84560D01*
X117097Y-84580D01*
X117135Y-84637D01*
X117154Y-84713D01*
X117154Y-84865D01*
X117135Y-84903D01*
X117116Y-84922D01*
X117078Y-84941D01*
X117001Y-84941D01*
X116963Y-84922D01*
X116944Y-84903D01*
X116925Y-84865D01*
X116925Y-84770D01*
X116944Y-84732D01*
X116963Y-84713D01*
X117001Y-84694D01*
X117078Y-84694D01*
X117116Y-84713D01*
X117135Y-84732D01*
X117154Y-84770D01*
X117246Y-83763D02*
X117265Y-83782D01*
X117322Y-83801D01*
X117360Y-83801D01*
X117418Y-83782D01*
X117456Y-83744D01*
X117475Y-83706D01*
X117494Y-83630D01*
X117494Y-83573D01*
X117475Y-83497D01*
X117456Y-83459D01*
X117418Y-83420D01*
X117360Y-83401D01*
X117322Y-83401D01*
X117265Y-83420D01*
X117246Y-83440D01*
X116884Y-83401D02*
X117075Y-83401D01*
X117094Y-83592D01*
X117075Y-83573D01*
X117037Y-83554D01*
X116941Y-83554D01*
X116903Y-83573D01*
X116884Y-83592D01*
X116865Y-83630D01*
X116865Y-83725D01*
X116884Y-83763D01*
X116903Y-83782D01*
X116941Y-83801D01*
X117037Y-83801D01*
X117075Y-83782D01*
X117094Y-83763D01*
X108877Y-56263D02*
X108896Y-56282D01*
X108953Y-56301D01*
X108991Y-56301D01*
X109048Y-56282D01*
X109086Y-56244D01*
X109105Y-56206D01*
X109124Y-56130D01*
X109124Y-56073D01*
X109105Y-55997D01*
X109086Y-55959D01*
X109048Y-55920D01*
X108991Y-55901D01*
X108953Y-55901D01*
X108896Y-55920D01*
X108877Y-55940D01*
X108496Y-56301D02*
X108724Y-56301D01*
X108610Y-56301D02*
X108610Y-55901D01*
X108648Y-55959D01*
X108686Y-55997D01*
X108724Y-56016D01*
X108343Y-55940D02*
X108324Y-55920D01*
X108286Y-55901D01*
X108191Y-55901D01*
X108153Y-55920D01*
X108134Y-55940D01*
X108115Y-55978D01*
X108115Y-56016D01*
X108134Y-56073D01*
X108362Y-56301D01*
X108115Y-56301D01*
X108837Y-57403D02*
X108856Y-57422D01*
X108913Y-57441D01*
X108951Y-57441D01*
X109008Y-57422D01*
X109046Y-57384D01*
X109065Y-57346D01*
X109084Y-57270D01*
X109084Y-57213D01*
X109065Y-57137D01*
X109046Y-57099D01*
X109008Y-57060D01*
X108951Y-57041D01*
X108913Y-57041D01*
X108856Y-57060D01*
X108837Y-57080D01*
X108456Y-57441D02*
X108684Y-57441D01*
X108570Y-57441D02*
X108570Y-57041D01*
X108608Y-57099D01*
X108646Y-57137D01*
X108684Y-57156D01*
X108075Y-57441D02*
X108303Y-57441D01*
X108189Y-57441D02*
X108189Y-57041D01*
X108227Y-57099D01*
X108265Y-57137D01*
X108303Y-57156D01*
X108666Y-46383D02*
X108685Y-46402D01*
X108742Y-46421D01*
X108780Y-46421D01*
X108838Y-46402D01*
X108876Y-46364D01*
X108895Y-46326D01*
X108914Y-46250D01*
X108914Y-46193D01*
X108895Y-46117D01*
X108876Y-46079D01*
X108838Y-46040D01*
X108780Y-46021D01*
X108742Y-46021D01*
X108685Y-46040D01*
X108666Y-46060D01*
X108533Y-46021D02*
X108285Y-46021D01*
X108419Y-46174D01*
X108361Y-46174D01*
X108323Y-46193D01*
X108304Y-46212D01*
X108285Y-46250D01*
X108285Y-46345D01*
X108304Y-46383D01*
X108323Y-46402D01*
X108361Y-46421D01*
X108476Y-46421D01*
X108514Y-46402D01*
X108533Y-46383D01*
X108646Y-45223D02*
X108665Y-45242D01*
X108722Y-45261D01*
X108760Y-45261D01*
X108818Y-45242D01*
X108856Y-45204D01*
X108875Y-45166D01*
X108894Y-45090D01*
X108894Y-45033D01*
X108875Y-44957D01*
X108856Y-44919D01*
X108818Y-44880D01*
X108760Y-44861D01*
X108722Y-44861D01*
X108665Y-44880D01*
X108646Y-44900D01*
X108494Y-44900D02*
X108475Y-44880D01*
X108437Y-44861D01*
X108341Y-44861D01*
X108303Y-44880D01*
X108284Y-44900D01*
X108265Y-44938D01*
X108265Y-44976D01*
X108284Y-45033D01*
X108513Y-45261D01*
X108265Y-45261D01*
G54D10*
X113854Y-80736D02*
X113460Y-80736D01*
X113742Y-80867D01*
X113460Y-80998D01*
X113854Y-80998D01*
X113817Y-81411D02*
X113835Y-81392D01*
X113854Y-81336D01*
X113854Y-81298D01*
X113835Y-81242D01*
X113798Y-81205D01*
X113760Y-81186D01*
X113685Y-81167D01*
X113629Y-81167D01*
X113554Y-81186D01*
X113517Y-81205D01*
X113479Y-81242D01*
X113460Y-81298D01*
X113460Y-81336D01*
X113479Y-81392D01*
X113498Y-81411D01*
X113460Y-81580D02*
X113779Y-81580D01*
X113817Y-81598D01*
X113835Y-81617D01*
X113854Y-81655D01*
X113854Y-81730D01*
X113835Y-81767D01*
X113817Y-81786D01*
X113779Y-81805D01*
X113460Y-81805D01*
X113854Y-82198D02*
X113854Y-81973D01*
X113854Y-82086D02*
X113460Y-82086D01*
X113517Y-82048D01*
X113554Y-82011D01*
X113573Y-81973D01*
X116432Y-40245D02*
X116432Y-39851D01*
X116282Y-39851D01*
X116244Y-39870D01*
X116226Y-39888D01*
X116207Y-39926D01*
X116207Y-39982D01*
X116226Y-40020D01*
X116244Y-40038D01*
X116282Y-40057D01*
X116432Y-40057D01*
X115832Y-40245D02*
X116057Y-40245D01*
X115944Y-40245D02*
X115944Y-39851D01*
X115982Y-39907D01*
X116019Y-39945D01*
X116057Y-39963D01*
X126274Y-40245D02*
X126274Y-39851D01*
X126124Y-39851D01*
X126087Y-39870D01*
X126068Y-39888D01*
X126049Y-39926D01*
X126049Y-39982D01*
X126068Y-40020D01*
X126087Y-40038D01*
X126124Y-40057D01*
X126274Y-40057D01*
X125899Y-39888D02*
X125881Y-39870D01*
X125843Y-39851D01*
X125749Y-39851D01*
X125712Y-39870D01*
X125693Y-39888D01*
X125674Y-39926D01*
X125674Y-39963D01*
X125693Y-40020D01*
X125918Y-40245D01*
X125674Y-40245D01*
G54D15*
X106191Y-36031D02*
X106210Y-36012D01*
X106229Y-35955D01*
X106229Y-35917D01*
X106210Y-35860D01*
X106172Y-35822D01*
X106134Y-35803D01*
X106058Y-35783D01*
X106001Y-35783D01*
X105924Y-35803D01*
X105886Y-35822D01*
X105848Y-35860D01*
X105829Y-35917D01*
X105829Y-35955D01*
X105848Y-36012D01*
X105867Y-36031D01*
X105829Y-36279D02*
X105829Y-36355D01*
X105848Y-36393D01*
X105886Y-36431D01*
X105962Y-36450D01*
X106096Y-36450D01*
X106172Y-36431D01*
X106210Y-36393D01*
X106229Y-36355D01*
X106229Y-36279D01*
X106210Y-36241D01*
X106172Y-36203D01*
X106096Y-36183D01*
X105962Y-36183D01*
X105886Y-36203D01*
X105848Y-36241D01*
X105829Y-36279D01*
X106229Y-36622D02*
X105829Y-36622D01*
X106229Y-36850D01*
X105829Y-36850D01*
X106229Y-37250D02*
X106229Y-37022D01*
X106229Y-37136D02*
X105829Y-37136D01*
X105886Y-37098D01*
X105924Y-37060D01*
X105943Y-37022D01*
G54D17*
X106797Y-63276D02*
X106797Y-62876D01*
X106644Y-62876D01*
X106606Y-62895D01*
X106587Y-62914D01*
X106568Y-62952D01*
X106568Y-63009D01*
X106587Y-63047D01*
X106606Y-63066D01*
X106644Y-63085D01*
X106797Y-63085D01*
X106435Y-62876D02*
X106187Y-62876D01*
X106321Y-63028D01*
X106263Y-63028D01*
X106225Y-63047D01*
X106206Y-63066D01*
X106187Y-63104D01*
X106187Y-63199D01*
X106206Y-63237D01*
X106225Y-63257D01*
X106263Y-63276D01*
X106378Y-63276D01*
X106416Y-63257D01*
X106435Y-63237D01*
G54D13*
X114228Y-79671D02*
X114443Y-79671D01*
X114486Y-79656D01*
X114514Y-79628D01*
X114528Y-79585D01*
X114528Y-79556D01*
X114528Y-79814D02*
X114228Y-79814D01*
X114228Y-79928D01*
X114243Y-79956D01*
X114257Y-79971D01*
X114286Y-79985D01*
X114328Y-79985D01*
X114357Y-79971D01*
X114371Y-79956D01*
X114386Y-79928D01*
X114386Y-79814D01*
X114328Y-80242D02*
X114528Y-80242D01*
X114214Y-80171D02*
X114428Y-80099D01*
X114428Y-80285D01*
G54D16*
X116181Y-77398D02*
X116200Y-77379D01*
X116219Y-77322D01*
X116219Y-77284D01*
X116200Y-77227D01*
X116162Y-77189D01*
X116124Y-77170D01*
X116047Y-77151D01*
X115990Y-77151D01*
X115914Y-77170D01*
X115876Y-77189D01*
X115838Y-77227D01*
X115819Y-77284D01*
X115819Y-77322D01*
X115838Y-77379D01*
X115857Y-77398D01*
X116219Y-77779D02*
X116219Y-77551D01*
X116219Y-77665D02*
X115819Y-77665D01*
X115876Y-77627D01*
X115914Y-77589D01*
X115933Y-77551D01*
X115819Y-77913D02*
X115819Y-78160D01*
X115971Y-78027D01*
X115971Y-78084D01*
X115990Y-78122D01*
X116009Y-78141D01*
X116047Y-78160D01*
X116143Y-78160D01*
X116181Y-78141D01*
X116200Y-78122D01*
X116219Y-78084D01*
X116219Y-77970D01*
X116200Y-77932D01*
X116181Y-77913D01*
M02*
