G04 (created by PCBNEW (2013-07-07 BZR 4022)-stable) date 25/05/2015 14:38:35*
%MOIN*%
G04 Gerber Fmt 3.4, Leading zero omitted, Abs format*
%FSLAX34Y34*%
G01*
G70*
G90*
G04 APERTURE LIST*
%ADD10C,0.00590551*%
%ADD11C,0.011811*%
%ADD12C,0.023622*%
%ADD13C,0.006*%
G04 APERTURE END LIST*
G54D10*
G54D11*
X112978Y-51628D02*
X113062Y-51656D01*
X113203Y-51656D01*
X113259Y-51628D01*
X113287Y-51600D01*
X113315Y-51543D01*
X113315Y-51487D01*
X113287Y-51431D01*
X113259Y-51403D01*
X113203Y-51375D01*
X113090Y-51347D01*
X113034Y-51318D01*
X113006Y-51290D01*
X112978Y-51234D01*
X112978Y-51178D01*
X113006Y-51122D01*
X113034Y-51093D01*
X113090Y-51065D01*
X113231Y-51065D01*
X113315Y-51093D01*
X113568Y-51347D02*
X113765Y-51347D01*
X113849Y-51656D02*
X113568Y-51656D01*
X113568Y-51065D01*
X113849Y-51065D01*
X114440Y-51600D02*
X114412Y-51628D01*
X114327Y-51656D01*
X114271Y-51656D01*
X114187Y-51628D01*
X114131Y-51571D01*
X114102Y-51515D01*
X114074Y-51403D01*
X114074Y-51318D01*
X114102Y-51206D01*
X114131Y-51150D01*
X114187Y-51093D01*
X114271Y-51065D01*
X114327Y-51065D01*
X114412Y-51093D01*
X114440Y-51122D01*
X114693Y-51065D02*
X114693Y-51543D01*
X114721Y-51600D01*
X114749Y-51628D01*
X114805Y-51656D01*
X114918Y-51656D01*
X114974Y-51628D01*
X115002Y-51600D01*
X115030Y-51543D01*
X115030Y-51065D01*
X115312Y-51347D02*
X115508Y-51347D01*
X115593Y-51656D02*
X115312Y-51656D01*
X115312Y-51065D01*
X115593Y-51065D01*
X115846Y-51656D02*
X115846Y-51065D01*
X116183Y-51656D01*
X116183Y-51065D01*
X116802Y-51600D02*
X116774Y-51628D01*
X116690Y-51656D01*
X116633Y-51656D01*
X116549Y-51628D01*
X116493Y-51571D01*
X116465Y-51515D01*
X116437Y-51403D01*
X116437Y-51318D01*
X116465Y-51206D01*
X116493Y-51150D01*
X116549Y-51093D01*
X116633Y-51065D01*
X116690Y-51065D01*
X116774Y-51093D01*
X116802Y-51122D01*
X117055Y-51656D02*
X117055Y-51065D01*
X117308Y-51487D02*
X117589Y-51487D01*
X117252Y-51656D02*
X117449Y-51065D01*
X117646Y-51656D01*
X117843Y-51656D02*
X117843Y-51065D01*
X117983Y-51065D01*
X118068Y-51093D01*
X118124Y-51150D01*
X118152Y-51206D01*
X118180Y-51318D01*
X118180Y-51403D01*
X118152Y-51515D01*
X118124Y-51571D01*
X118068Y-51628D01*
X117983Y-51656D01*
X117843Y-51656D01*
X118546Y-51065D02*
X118658Y-51065D01*
X118714Y-51093D01*
X118771Y-51150D01*
X118799Y-51262D01*
X118799Y-51459D01*
X118771Y-51571D01*
X118714Y-51628D01*
X118658Y-51656D01*
X118546Y-51656D01*
X118489Y-51628D01*
X118433Y-51571D01*
X118405Y-51459D01*
X118405Y-51262D01*
X118433Y-51150D01*
X118489Y-51093D01*
X118546Y-51065D01*
X119389Y-51656D02*
X119192Y-51375D01*
X119052Y-51656D02*
X119052Y-51065D01*
X119277Y-51065D01*
X119333Y-51093D01*
X119361Y-51122D01*
X119389Y-51178D01*
X119389Y-51262D01*
X119361Y-51318D01*
X119333Y-51347D01*
X119277Y-51375D01*
X119052Y-51375D01*
X120092Y-51656D02*
X120092Y-51065D01*
X120289Y-51487D01*
X120486Y-51065D01*
X120486Y-51656D01*
X120767Y-51656D02*
X120767Y-51065D01*
X121048Y-51656D02*
X121048Y-51065D01*
X121189Y-51065D01*
X121273Y-51093D01*
X121330Y-51150D01*
X121358Y-51206D01*
X121386Y-51318D01*
X121386Y-51403D01*
X121358Y-51515D01*
X121330Y-51571D01*
X121273Y-51628D01*
X121189Y-51656D01*
X121048Y-51656D01*
X121639Y-51656D02*
X121639Y-51065D01*
X108124Y-86380D02*
X107927Y-86099D01*
X107786Y-86380D02*
X107786Y-85790D01*
X108011Y-85790D01*
X108068Y-85818D01*
X108096Y-85846D01*
X108124Y-85902D01*
X108124Y-85987D01*
X108096Y-86043D01*
X108068Y-86071D01*
X108011Y-86099D01*
X107786Y-86099D01*
X108377Y-86071D02*
X108574Y-86071D01*
X108658Y-86380D02*
X108377Y-86380D01*
X108377Y-85790D01*
X108658Y-85790D01*
X108827Y-85790D02*
X109024Y-86380D01*
X109221Y-85790D01*
X110177Y-86380D02*
X109839Y-86380D01*
X110008Y-86380D02*
X110008Y-85790D01*
X109952Y-85874D01*
X109895Y-85930D01*
X109839Y-85958D01*
X110430Y-86324D02*
X110458Y-86352D01*
X110430Y-86380D01*
X110402Y-86352D01*
X110430Y-86324D01*
X110430Y-86380D01*
X110823Y-85790D02*
X110880Y-85790D01*
X110936Y-85818D01*
X110964Y-85846D01*
X110992Y-85902D01*
X111020Y-86015D01*
X111020Y-86155D01*
X110992Y-86268D01*
X110964Y-86324D01*
X110936Y-86352D01*
X110880Y-86380D01*
X110823Y-86380D01*
X110767Y-86352D01*
X110739Y-86324D01*
X110711Y-86268D01*
X110683Y-86155D01*
X110683Y-86015D01*
X110711Y-85902D01*
X110739Y-85846D01*
X110767Y-85818D01*
X110823Y-85790D01*
G54D12*
X111506Y-48745D02*
X111654Y-47564D01*
X111583Y-48127D02*
X112258Y-48127D01*
X112181Y-48745D02*
X112329Y-47564D01*
X112729Y-48408D02*
X113292Y-48408D01*
X112575Y-48745D02*
X113116Y-47564D01*
X113362Y-48745D01*
X114445Y-48633D02*
X114382Y-48689D01*
X114206Y-48745D01*
X114093Y-48745D01*
X113932Y-48689D01*
X113833Y-48577D01*
X113791Y-48464D01*
X113763Y-48239D01*
X113784Y-48070D01*
X113868Y-47845D01*
X113939Y-47733D01*
X114065Y-47620D01*
X114241Y-47564D01*
X114353Y-47564D01*
X114515Y-47620D01*
X114564Y-47677D01*
X114937Y-48745D02*
X115085Y-47564D01*
X115612Y-48745D02*
X115190Y-48070D01*
X115759Y-47564D02*
X115000Y-48239D01*
X116195Y-48127D02*
X116589Y-48127D01*
X116680Y-48745D02*
X116118Y-48745D01*
X116266Y-47564D01*
X116828Y-47564D01*
X117862Y-48745D02*
X117538Y-48183D01*
X117187Y-48745D02*
X117334Y-47564D01*
X117784Y-47564D01*
X117890Y-47620D01*
X117939Y-47677D01*
X117981Y-47789D01*
X117960Y-47958D01*
X117890Y-48070D01*
X117826Y-48127D01*
X117707Y-48183D01*
X117257Y-48183D01*
X118319Y-48689D02*
X118480Y-48745D01*
X118761Y-48745D01*
X118881Y-48689D01*
X118944Y-48633D01*
X119015Y-48520D01*
X119029Y-48408D01*
X118986Y-48295D01*
X118937Y-48239D01*
X118832Y-48183D01*
X118614Y-48127D01*
X118508Y-48070D01*
X118459Y-48014D01*
X118417Y-47902D01*
X118431Y-47789D01*
X118501Y-47677D01*
X118565Y-47620D01*
X118684Y-47564D01*
X118965Y-47564D01*
X119127Y-47620D01*
X119493Y-48745D02*
X119640Y-47564D01*
X120090Y-47564D01*
X120196Y-47620D01*
X120245Y-47677D01*
X120287Y-47789D01*
X120266Y-47958D01*
X120196Y-48070D01*
X120132Y-48127D01*
X120013Y-48183D01*
X119563Y-48183D01*
X120660Y-48408D02*
X121222Y-48408D01*
X120505Y-48745D02*
X121046Y-47564D01*
X121292Y-48745D01*
X122375Y-48633D02*
X122312Y-48689D01*
X122136Y-48745D01*
X122024Y-48745D01*
X121862Y-48689D01*
X121763Y-48577D01*
X121721Y-48464D01*
X121693Y-48239D01*
X121714Y-48070D01*
X121799Y-47845D01*
X121869Y-47733D01*
X121995Y-47620D01*
X122171Y-47564D01*
X122284Y-47564D01*
X122445Y-47620D01*
X122495Y-47677D01*
X122945Y-48127D02*
X123338Y-48127D01*
X123430Y-48745D02*
X122867Y-48745D01*
X123015Y-47564D01*
X123577Y-47564D01*
X114501Y-50523D02*
X114438Y-50579D01*
X114262Y-50635D01*
X114150Y-50635D01*
X113988Y-50579D01*
X113889Y-50466D01*
X113847Y-50354D01*
X113819Y-50129D01*
X113840Y-49960D01*
X113925Y-49735D01*
X113995Y-49623D01*
X114121Y-49510D01*
X114297Y-49454D01*
X114410Y-49454D01*
X114571Y-49510D01*
X114621Y-49566D01*
X114993Y-50635D02*
X115141Y-49454D01*
X115071Y-50016D02*
X115745Y-50016D01*
X115668Y-50635D02*
X115816Y-49454D01*
X116603Y-49454D02*
X116828Y-49454D01*
X116934Y-49510D01*
X117032Y-49623D01*
X117060Y-49848D01*
X117011Y-50241D01*
X116927Y-50466D01*
X116800Y-50579D01*
X116680Y-50635D01*
X116455Y-50635D01*
X116350Y-50579D01*
X116252Y-50466D01*
X116223Y-50241D01*
X116273Y-49848D01*
X116357Y-49623D01*
X116484Y-49510D01*
X116603Y-49454D01*
X118030Y-50635D02*
X117468Y-50635D01*
X117616Y-49454D01*
X118572Y-49454D02*
X118452Y-50410D01*
X118494Y-50523D01*
X118544Y-50579D01*
X118649Y-50635D01*
X118874Y-50635D01*
X118993Y-50579D01*
X119057Y-50523D01*
X119127Y-50410D01*
X119247Y-49454D01*
X120224Y-50635D02*
X119661Y-50635D01*
X119809Y-49454D01*
X120603Y-50298D02*
X121166Y-50298D01*
X120449Y-50635D02*
X120990Y-49454D01*
X121236Y-50635D01*
G54D10*
X130707Y-52941D02*
X128935Y-51760D01*
X131888Y-54909D02*
X132282Y-54909D01*
X127557Y-52941D02*
X127557Y-54909D01*
X127557Y-54909D02*
X127951Y-54909D01*
X128345Y-49398D02*
X127557Y-49398D01*
X127557Y-49398D02*
X127557Y-51366D01*
X132282Y-51366D02*
X132282Y-49398D01*
X132282Y-49398D02*
X131494Y-49398D01*
X132282Y-54909D02*
X132282Y-52941D01*
X131033Y-52153D02*
G75*
G03X131033Y-52153I-1113J0D01*
G74*
G01*
X129133Y-44291D02*
X130905Y-45472D01*
X127952Y-42322D02*
X127559Y-42322D01*
X132283Y-44291D02*
X132283Y-42322D01*
X132283Y-42322D02*
X131889Y-42322D01*
X131496Y-47834D02*
X132283Y-47834D01*
X132283Y-47834D02*
X132283Y-45866D01*
X127559Y-45866D02*
X127559Y-47834D01*
X127559Y-47834D02*
X128346Y-47834D01*
X127559Y-42322D02*
X127559Y-44291D01*
X131034Y-45078D02*
G75*
G03X131034Y-45078I-1113J0D01*
G74*
G01*
G54D13*
X133933Y-57192D02*
X133933Y-56192D01*
X133933Y-56192D02*
X136933Y-56192D01*
X136933Y-56192D02*
X136933Y-57192D01*
X136933Y-57192D02*
X133933Y-57192D01*
X134933Y-56192D02*
X134933Y-57192D01*
X135507Y-85539D02*
X135507Y-84539D01*
X135507Y-84539D02*
X138507Y-84539D01*
X138507Y-84539D02*
X138507Y-85539D01*
X138507Y-85539D02*
X135507Y-85539D01*
X136507Y-84539D02*
X136507Y-85539D01*
G54D10*
X113573Y-55192D02*
X121773Y-55192D01*
X114673Y-54192D02*
X114673Y-55192D01*
X113773Y-54192D02*
X113573Y-54192D01*
X113573Y-54192D02*
X113573Y-55192D01*
X121573Y-54192D02*
X121773Y-54192D01*
X121773Y-54192D02*
X121773Y-55192D01*
X113673Y-54192D02*
X121673Y-54192D01*
X124923Y-39742D02*
X125173Y-39992D01*
X124923Y-39742D02*
X124673Y-39992D01*
X124923Y-39992D02*
X124923Y-39742D01*
X124923Y-39992D02*
X124923Y-40992D01*
X110173Y-39742D02*
X110423Y-39992D01*
X110173Y-39742D02*
X109923Y-39992D01*
X110173Y-39742D02*
X110173Y-40992D01*
X110173Y-41242D02*
X124923Y-41242D01*
X124923Y-41242D02*
X124923Y-52492D01*
X124923Y-52492D02*
X110173Y-52492D01*
X110173Y-52492D02*
X110173Y-41242D01*
X109423Y-38992D02*
X125673Y-38992D01*
X125673Y-38992D02*
X125673Y-53242D01*
X125673Y-53242D02*
X109423Y-53242D01*
X109423Y-53242D02*
X109423Y-38992D01*
X108580Y-37460D02*
X126297Y-37460D01*
X126297Y-37460D02*
X126297Y-55177D01*
X126297Y-55177D02*
X108580Y-55177D01*
X108580Y-55177D02*
X108580Y-37460D01*
X135629Y-32283D02*
X135629Y-32677D01*
X133661Y-32283D02*
X133661Y-32677D01*
X133858Y-32677D02*
X135433Y-32677D01*
X135433Y-33464D02*
X135433Y-32677D01*
X135433Y-32677D02*
X135629Y-32677D01*
X133661Y-32677D02*
X133858Y-32677D01*
X133858Y-32677D02*
X133858Y-33464D01*
X135629Y-32283D02*
X133661Y-32283D01*
X132283Y-33464D02*
X137007Y-33464D01*
X137007Y-33464D02*
X137007Y-37795D01*
X137007Y-37795D02*
X132283Y-37795D01*
X132283Y-37795D02*
X132283Y-33464D01*
X126165Y-57357D02*
X126165Y-60900D01*
X121047Y-57357D02*
X121047Y-60900D01*
X120653Y-55782D02*
X120653Y-57357D01*
X120653Y-57357D02*
X126559Y-57357D01*
X126559Y-57357D02*
X126559Y-55782D01*
X126559Y-55782D02*
X120653Y-55782D01*
X113173Y-67987D02*
X113173Y-71924D01*
X113173Y-73499D02*
X113173Y-77436D01*
X113173Y-79011D02*
X113173Y-82948D01*
X113173Y-82948D02*
X117110Y-82948D01*
X122622Y-82948D02*
X118685Y-82948D01*
X128134Y-82948D02*
X124197Y-82948D01*
X133646Y-79011D02*
X133646Y-82948D01*
X133646Y-82948D02*
X129709Y-82948D01*
X133646Y-73499D02*
X133646Y-77436D01*
X133646Y-67987D02*
X133646Y-71924D01*
X129709Y-62475D02*
X133646Y-62475D01*
X133646Y-62475D02*
X133646Y-66412D01*
X124197Y-62475D02*
X128134Y-62475D01*
X118685Y-62475D02*
X122622Y-62475D01*
X113173Y-66412D02*
X113173Y-62475D01*
X113173Y-62475D02*
X117110Y-62475D01*
X124197Y-73499D02*
X128134Y-73499D01*
X128134Y-73499D02*
X128134Y-77436D01*
X128134Y-77436D02*
X124197Y-77436D01*
X124197Y-77436D02*
X124197Y-73499D01*
X118685Y-73499D02*
X118685Y-77436D01*
X118685Y-77436D02*
X122622Y-77436D01*
X122622Y-77436D02*
X122622Y-73499D01*
X122622Y-73499D02*
X118685Y-73499D01*
X124197Y-67987D02*
X128134Y-67987D01*
X128134Y-67987D02*
X128134Y-71924D01*
X128134Y-71924D02*
X124197Y-71924D01*
X124197Y-71924D02*
X124197Y-67987D01*
X118685Y-67987D02*
X122622Y-67987D01*
X122622Y-67987D02*
X122622Y-71924D01*
X122622Y-71924D02*
X118685Y-71924D01*
X118685Y-71924D02*
X118685Y-67987D01*
X133646Y-73499D02*
X129709Y-73499D01*
X129709Y-73499D02*
X129709Y-77436D01*
X129709Y-77436D02*
X133646Y-77436D01*
X133646Y-67987D02*
X129709Y-67987D01*
X129709Y-67987D02*
X129709Y-71924D01*
X129709Y-71924D02*
X133646Y-71924D01*
X124197Y-62475D02*
X124197Y-66412D01*
X124197Y-66412D02*
X128134Y-66412D01*
X128134Y-66412D02*
X128134Y-62475D01*
X122622Y-66412D02*
X122622Y-62475D01*
X118685Y-66412D02*
X122622Y-66412D01*
X118685Y-66412D02*
X118685Y-62475D01*
X113173Y-71924D02*
X117110Y-71924D01*
X117110Y-71924D02*
X117110Y-67987D01*
X117110Y-67987D02*
X113173Y-67987D01*
X113173Y-77436D02*
X117110Y-77436D01*
X117110Y-77436D02*
X117110Y-73499D01*
X117110Y-73499D02*
X113173Y-73499D01*
X124197Y-82948D02*
X124197Y-79011D01*
X124197Y-79011D02*
X128134Y-79011D01*
X128134Y-79011D02*
X128134Y-82948D01*
X118685Y-82948D02*
X118685Y-79011D01*
X118685Y-79011D02*
X122622Y-79011D01*
X122622Y-79011D02*
X122622Y-82948D01*
X129709Y-62475D02*
X129709Y-66412D01*
X129709Y-66412D02*
X133646Y-66412D01*
X129709Y-82948D02*
X129709Y-79011D01*
X129709Y-79011D02*
X133646Y-79011D01*
X113173Y-79011D02*
X117110Y-79011D01*
X117110Y-79011D02*
X117110Y-82948D01*
X113173Y-66412D02*
X117110Y-66412D01*
X117110Y-66412D02*
X117110Y-62475D01*
X111598Y-60900D02*
X135220Y-60900D01*
X135220Y-60900D02*
X135220Y-84522D01*
X135220Y-84522D02*
X111598Y-84522D01*
X111598Y-84522D02*
X111598Y-60900D01*
X129245Y-56437D02*
X129376Y-56437D01*
X129432Y-56644D02*
X129245Y-56644D01*
X129245Y-56250D01*
X129432Y-56250D01*
X129601Y-56644D02*
X129601Y-56250D01*
X129826Y-56644D01*
X129826Y-56250D01*
X130238Y-56606D02*
X130220Y-56625D01*
X130163Y-56644D01*
X130126Y-56644D01*
X130070Y-56625D01*
X130032Y-56587D01*
X130013Y-56550D01*
X129995Y-56475D01*
X129995Y-56419D01*
X130013Y-56344D01*
X130032Y-56306D01*
X130070Y-56269D01*
X130126Y-56250D01*
X130163Y-56250D01*
X130220Y-56269D01*
X130238Y-56287D01*
X130388Y-56287D02*
X130407Y-56269D01*
X130445Y-56250D01*
X130538Y-56250D01*
X130576Y-56269D01*
X130594Y-56287D01*
X130613Y-56325D01*
X130613Y-56362D01*
X130594Y-56419D01*
X130370Y-56644D01*
X130613Y-56644D01*
X129246Y-40701D02*
X129377Y-40701D01*
X129433Y-40907D02*
X129246Y-40907D01*
X129246Y-40513D01*
X129433Y-40513D01*
X129602Y-40907D02*
X129602Y-40513D01*
X129827Y-40907D01*
X129827Y-40513D01*
X130239Y-40869D02*
X130221Y-40888D01*
X130164Y-40907D01*
X130127Y-40907D01*
X130071Y-40888D01*
X130033Y-40851D01*
X130014Y-40813D01*
X129996Y-40738D01*
X129996Y-40682D01*
X130014Y-40607D01*
X130033Y-40569D01*
X130071Y-40532D01*
X130127Y-40513D01*
X130164Y-40513D01*
X130221Y-40532D01*
X130239Y-40551D01*
X130614Y-40907D02*
X130389Y-40907D01*
X130502Y-40907D02*
X130502Y-40513D01*
X130464Y-40569D01*
X130427Y-40607D01*
X130389Y-40626D01*
G54D13*
X135294Y-56004D02*
X135161Y-55814D01*
X135066Y-56004D02*
X135066Y-55604D01*
X135218Y-55604D01*
X135256Y-55623D01*
X135275Y-55642D01*
X135294Y-55681D01*
X135294Y-55738D01*
X135275Y-55776D01*
X135256Y-55795D01*
X135218Y-55814D01*
X135066Y-55814D01*
X135409Y-55604D02*
X135542Y-56004D01*
X135675Y-55604D01*
X136018Y-56004D02*
X135790Y-56004D01*
X135904Y-56004D02*
X135904Y-55604D01*
X135866Y-55661D01*
X135828Y-55700D01*
X135790Y-55719D01*
X136488Y-84351D02*
X136488Y-83951D01*
X136622Y-84236D01*
X136755Y-83951D01*
X136755Y-84351D01*
X136945Y-84351D02*
X136945Y-83951D01*
X137365Y-84313D02*
X137345Y-84332D01*
X137288Y-84351D01*
X137250Y-84351D01*
X137193Y-84332D01*
X137155Y-84294D01*
X137136Y-84256D01*
X137117Y-84179D01*
X137117Y-84122D01*
X137136Y-84046D01*
X137155Y-84008D01*
X137193Y-83970D01*
X137250Y-83951D01*
X137288Y-83951D01*
X137345Y-83970D01*
X137365Y-83989D01*
X137745Y-84351D02*
X137517Y-84351D01*
X137631Y-84351D02*
X137631Y-83951D01*
X137593Y-84008D01*
X137555Y-84046D01*
X137517Y-84065D01*
G54D10*
X112963Y-37151D02*
X112776Y-37151D01*
X112776Y-36757D01*
X113320Y-37113D02*
X113301Y-37132D01*
X113245Y-37151D01*
X113207Y-37151D01*
X113151Y-37132D01*
X113113Y-37095D01*
X113095Y-37057D01*
X113076Y-36982D01*
X113076Y-36926D01*
X113095Y-36851D01*
X113113Y-36814D01*
X113151Y-36776D01*
X113207Y-36757D01*
X113245Y-36757D01*
X113301Y-36776D01*
X113320Y-36795D01*
X113488Y-37151D02*
X113488Y-36757D01*
X113582Y-36757D01*
X113638Y-36776D01*
X113676Y-36814D01*
X113695Y-36851D01*
X113713Y-36926D01*
X113713Y-36982D01*
X113695Y-37057D01*
X113676Y-37095D01*
X113638Y-37132D01*
X113582Y-37151D01*
X113488Y-37151D01*
X114088Y-37151D02*
X113863Y-37151D01*
X113976Y-37151D02*
X113976Y-36757D01*
X113938Y-36814D01*
X113901Y-36851D01*
X113863Y-36870D01*
X134711Y-31064D02*
X134711Y-31346D01*
X134692Y-31402D01*
X134655Y-31439D01*
X134598Y-31458D01*
X134561Y-31458D01*
X135104Y-31458D02*
X134880Y-31458D01*
X134992Y-31458D02*
X134992Y-31064D01*
X134955Y-31121D01*
X134917Y-31158D01*
X134880Y-31177D01*
M02*
