G04 (created by PCBNEW (2013-07-07 BZR 4022)-stable) date 25/05/2015 14:38:35*
%MOIN*%
G04 Gerber Fmt 3.4, Leading zero omitted, Abs format*
%FSLAX34Y34*%
G01*
G70*
G90*
G04 APERTURE LIST*
%ADD10C,0.00590551*%
%ADD11C,0.07*%
%ADD12R,0.07X0.07*%
%ADD13R,0.0590551X0.1*%
%ADD14O,0.0590551X0.0787402*%
%ADD15C,0.0708661*%
%ADD16R,0.11811X0.11811*%
%ADD17C,0.055*%
%ADD18R,0.06X0.06*%
%ADD19C,0.06*%
%ADD20R,0.062X0.09*%
%ADD21O,0.062X0.09*%
%ADD22R,0.055X0.055*%
%ADD23C,0.0984252*%
%ADD24C,0.189*%
%ADD25R,0.189X0.189*%
%ADD26C,0.0787402*%
%ADD27O,0.0593X0.1187*%
%ADD28C,0.137795*%
%ADD29C,0.035*%
%ADD30C,0.012*%
%ADD31C,0.01*%
%ADD32C,0.008*%
G04 APERTURE END LIST*
G54D10*
G54D11*
X107086Y-48212D03*
X107086Y-49212D03*
G54D12*
X107086Y-50212D03*
G54D13*
X133858Y-84645D03*
X132858Y-84645D03*
X131858Y-84645D03*
X130858Y-84645D03*
X129858Y-84645D03*
X128858Y-84645D03*
X127858Y-84645D03*
X126858Y-84645D03*
X125858Y-84645D03*
X124858Y-84645D03*
X123858Y-84645D03*
X122858Y-84645D03*
X121858Y-84645D03*
X120858Y-84645D03*
X119858Y-84645D03*
X118858Y-84645D03*
X118858Y-75645D03*
X119858Y-75645D03*
X120858Y-75645D03*
X121858Y-75645D03*
X122858Y-75645D03*
X123858Y-75645D03*
X124858Y-75645D03*
X125858Y-75645D03*
X126858Y-75645D03*
X127858Y-75645D03*
X128858Y-75645D03*
X129858Y-75645D03*
X130858Y-75645D03*
X131858Y-75645D03*
X132858Y-75645D03*
X133858Y-75645D03*
G54D14*
X129526Y-54909D03*
X130313Y-54909D03*
X131101Y-54909D03*
X128738Y-54909D03*
G54D15*
X129920Y-49201D03*
X130904Y-49201D03*
X128935Y-49201D03*
G54D16*
X132085Y-52153D03*
X127754Y-52153D03*
G54D14*
X130314Y-42322D03*
X129527Y-42322D03*
X128740Y-42322D03*
X131102Y-42322D03*
G54D15*
X129921Y-48031D03*
X128937Y-48031D03*
X130905Y-48031D03*
G54D16*
X127755Y-45078D03*
X132086Y-45078D03*
G54D17*
X132479Y-58179D03*
X132479Y-57179D03*
X131294Y-57370D03*
X131294Y-58370D03*
X134294Y-43829D03*
X134294Y-42829D03*
X134251Y-46169D03*
X134251Y-45169D03*
X114370Y-42610D03*
X114370Y-43610D03*
X135659Y-46179D03*
X135659Y-45179D03*
X115485Y-43520D03*
X115485Y-42520D03*
X135909Y-49609D03*
X134909Y-49609D03*
X135909Y-48225D03*
X134909Y-48225D03*
G54D18*
X134433Y-56692D03*
G54D19*
X135433Y-56692D03*
X136433Y-56692D03*
G54D18*
X136007Y-85039D03*
G54D19*
X137007Y-85039D03*
X138007Y-85039D03*
G54D18*
X116051Y-82480D03*
G54D19*
X115051Y-82480D03*
G54D18*
X115354Y-65838D03*
G54D19*
X115354Y-66838D03*
G54D18*
X115354Y-72728D03*
G54D19*
X115354Y-73728D03*
G54D20*
X119110Y-44807D03*
G54D21*
X118110Y-44807D03*
X117110Y-44807D03*
X117110Y-41807D03*
X118110Y-41807D03*
X119110Y-41807D03*
G54D22*
X117003Y-46653D03*
G54D17*
X120003Y-46653D03*
G54D12*
X107283Y-41519D03*
G54D11*
X107283Y-43519D03*
G54D12*
X107283Y-54543D03*
G54D11*
X107283Y-52543D03*
G54D12*
X119307Y-57874D03*
G54D11*
X117307Y-57874D03*
G54D12*
X111992Y-57874D03*
G54D11*
X113992Y-57874D03*
G54D17*
X114370Y-63673D03*
X114370Y-64673D03*
X115551Y-63673D03*
X115551Y-64673D03*
X115051Y-84842D03*
X116051Y-84842D03*
X115051Y-83661D03*
X116051Y-83661D03*
X106389Y-56102D03*
X107389Y-56102D03*
X106389Y-57283D03*
X107389Y-57283D03*
X106586Y-46259D03*
X107586Y-46259D03*
X106586Y-45078D03*
X107586Y-45078D03*
G54D15*
X112795Y-83858D03*
X112795Y-82858D03*
X112795Y-81858D03*
X112795Y-80858D03*
X112795Y-79858D03*
X112795Y-78858D03*
X112795Y-77858D03*
X112795Y-76858D03*
X112795Y-75858D03*
X112795Y-74858D03*
X112795Y-73858D03*
X112795Y-72858D03*
X112795Y-71858D03*
X112795Y-70858D03*
X112795Y-69858D03*
X112795Y-68858D03*
X112795Y-67858D03*
X112795Y-66858D03*
X112795Y-65858D03*
X112795Y-64858D03*
X106795Y-64858D03*
X106795Y-65858D03*
X106795Y-66858D03*
X106795Y-67858D03*
X106795Y-68858D03*
X106795Y-69858D03*
X106795Y-70858D03*
X106795Y-71858D03*
X106795Y-72858D03*
X106795Y-73858D03*
X106795Y-74858D03*
X106795Y-75858D03*
X106795Y-76858D03*
X106795Y-77858D03*
X106795Y-78858D03*
X106795Y-79858D03*
X106795Y-80858D03*
X106795Y-81858D03*
X106795Y-82858D03*
X106795Y-83858D03*
X114173Y-54692D03*
X115173Y-54692D03*
X116173Y-54692D03*
X117173Y-54692D03*
X118173Y-54692D03*
X119173Y-54692D03*
X120173Y-54692D03*
X121173Y-54692D03*
G54D23*
X116141Y-38385D03*
X119094Y-38385D03*
X113188Y-38385D03*
X114173Y-34448D03*
X118110Y-34448D03*
X114173Y-39370D03*
X118110Y-39370D03*
X125984Y-38385D03*
X128937Y-38385D03*
X123031Y-38385D03*
X124015Y-34448D03*
X127952Y-34448D03*
X124015Y-39370D03*
X127952Y-39370D03*
G54D24*
X108267Y-36417D03*
G54D25*
X108267Y-38817D03*
G54D24*
X110267Y-37317D03*
G54D26*
X133661Y-37007D03*
X135629Y-37007D03*
X132677Y-37007D03*
X136614Y-37007D03*
X134645Y-35039D03*
G54D27*
X106751Y-61614D03*
X107751Y-61614D03*
X108751Y-61614D03*
X109751Y-61614D03*
X110751Y-61614D03*
X111751Y-61614D03*
G54D18*
X115157Y-79421D03*
G54D19*
X115157Y-80421D03*
G54D17*
X115157Y-78255D03*
X115157Y-77255D03*
G54D15*
X121598Y-56570D03*
X122598Y-56570D03*
X123598Y-56570D03*
X124598Y-56570D03*
X125598Y-56570D03*
G54D28*
X138188Y-35433D03*
X138188Y-82677D03*
X106692Y-85433D03*
G54D29*
X128000Y-41760D03*
X125240Y-41780D03*
X113877Y-56082D03*
X133500Y-61180D03*
X133508Y-70871D03*
X119200Y-48200D03*
X115460Y-51980D03*
X115688Y-60157D03*
X114035Y-61850D03*
X126100Y-49940D03*
X124140Y-51880D03*
X110941Y-64880D03*
X130320Y-67840D03*
X130300Y-71720D03*
X129400Y-71220D03*
X129412Y-68012D03*
X115748Y-60649D03*
X114507Y-61929D03*
X124370Y-58833D03*
X120216Y-63011D03*
X117052Y-68042D03*
X115807Y-56062D03*
X114015Y-57086D03*
X117500Y-68366D03*
X127342Y-62322D03*
X128169Y-61397D03*
X115807Y-57086D03*
X113976Y-58937D03*
X123818Y-58346D03*
X120177Y-62007D03*
X127080Y-73240D03*
X122940Y-69080D03*
X137322Y-69488D03*
X128860Y-41060D03*
X118420Y-59120D03*
X129060Y-86000D03*
X115859Y-45450D03*
G54D30*
X136007Y-85039D02*
X135547Y-85039D01*
X135281Y-85305D02*
X135547Y-85039D01*
X118333Y-85305D02*
X135281Y-85305D01*
X116033Y-83005D02*
X118333Y-85305D01*
X115576Y-83005D02*
X116033Y-83005D01*
X115051Y-82480D02*
X115576Y-83005D01*
X113673Y-83858D02*
X112795Y-83858D01*
X115051Y-82480D02*
X113673Y-83858D01*
X124940Y-41760D02*
X125220Y-41760D01*
X128000Y-41760D02*
X128000Y-41760D01*
X125220Y-41760D02*
X125240Y-41780D01*
X135909Y-46429D02*
X135659Y-46179D01*
X135909Y-48225D02*
X135909Y-46429D01*
X134262Y-46179D02*
X134251Y-46169D01*
X135659Y-46179D02*
X134262Y-46179D01*
X115051Y-83661D02*
X115051Y-84842D01*
X118640Y-42100D02*
X118640Y-41807D01*
X117220Y-43520D02*
X118640Y-42100D01*
X115485Y-43520D02*
X117220Y-43520D01*
X119110Y-41807D02*
X118640Y-41807D01*
X119110Y-41807D02*
X119580Y-41807D01*
X119627Y-41760D02*
X119580Y-41807D01*
X131305Y-41760D02*
X128000Y-41760D01*
X133834Y-44289D02*
X131305Y-41760D01*
X124940Y-41760D02*
X119627Y-41760D01*
X133815Y-44309D02*
X133834Y-44289D01*
X133815Y-45732D02*
X133815Y-44309D01*
X134251Y-46169D02*
X133815Y-45732D01*
X133834Y-44289D02*
X134294Y-43829D01*
G54D31*
X114334Y-67858D02*
X115354Y-66838D01*
X112795Y-67858D02*
X114334Y-67858D01*
X113761Y-56103D02*
X113856Y-56103D01*
X113856Y-56103D02*
X113877Y-56082D01*
X108251Y-63401D02*
X106795Y-64858D01*
X108251Y-60692D02*
X108251Y-63401D01*
X112051Y-56893D02*
X108251Y-60692D01*
X112972Y-56893D02*
X112051Y-56893D01*
X113761Y-56103D02*
X112972Y-56893D01*
X133508Y-71500D02*
X133508Y-70871D01*
X133500Y-61180D02*
X133508Y-61180D01*
X112826Y-80889D02*
X112795Y-80858D01*
X125461Y-80889D02*
X112826Y-80889D01*
X129065Y-77285D02*
X125461Y-80889D01*
X130229Y-77285D02*
X129065Y-77285D01*
X131412Y-76102D02*
X130229Y-77285D01*
X131412Y-74092D02*
X131412Y-76102D01*
X133508Y-71996D02*
X131412Y-74092D01*
X133508Y-49626D02*
X133508Y-61180D01*
X134909Y-48225D02*
X133508Y-49626D01*
X133508Y-71500D02*
X133508Y-71996D01*
X115018Y-52418D02*
X115021Y-52418D01*
X119200Y-48200D02*
X119218Y-48218D01*
X115021Y-52418D02*
X115460Y-51980D01*
X128721Y-43128D02*
X129527Y-42322D01*
X124308Y-43128D02*
X128721Y-43128D01*
X106090Y-61346D02*
X115018Y-52418D01*
X119218Y-48218D02*
X124308Y-43128D01*
X106090Y-75153D02*
X106090Y-61346D01*
X106795Y-75858D02*
X106090Y-75153D01*
X113779Y-62108D02*
X113779Y-62106D01*
X115688Y-60157D02*
X115709Y-60178D01*
X113779Y-62106D02*
X114035Y-61850D01*
X123811Y-52211D02*
X123811Y-52208D01*
X126100Y-49940D02*
X126091Y-49931D01*
X123811Y-52208D02*
X124140Y-51880D01*
X130314Y-45708D02*
X130314Y-42322D01*
X121724Y-54298D02*
X123811Y-52211D01*
X126091Y-49931D02*
X130314Y-45708D01*
X121724Y-54868D02*
X121724Y-54298D01*
X121290Y-55303D02*
X121724Y-54868D01*
X120585Y-55303D02*
X121290Y-55303D01*
X111007Y-64880D02*
X113779Y-62108D01*
X115709Y-60178D02*
X120585Y-55303D01*
X110941Y-64880D02*
X111007Y-64880D01*
X130303Y-72420D02*
X130303Y-71723D01*
X130307Y-67827D02*
X130303Y-67832D01*
X130320Y-67840D02*
X130307Y-67827D01*
X130303Y-71723D02*
X130300Y-71720D01*
X131102Y-47283D02*
X131102Y-42322D01*
X130303Y-67832D02*
X131920Y-66215D01*
X131920Y-66215D02*
X131920Y-54606D01*
X131920Y-54606D02*
X132826Y-53700D01*
X132826Y-53700D02*
X132826Y-49007D01*
X132826Y-49007D02*
X131102Y-47283D01*
X130303Y-76212D02*
X130303Y-72420D01*
X129682Y-76833D02*
X130303Y-76212D01*
X129156Y-76833D02*
X129682Y-76833D01*
X126118Y-79871D02*
X129156Y-76833D01*
X112808Y-79871D02*
X126118Y-79871D01*
X112795Y-79858D02*
X112808Y-79871D01*
X129412Y-67500D02*
X129412Y-68012D01*
X129400Y-71220D02*
X129412Y-71220D01*
X126663Y-78858D02*
X112795Y-78858D01*
X129412Y-76108D02*
X126663Y-78858D01*
X129412Y-67477D02*
X129412Y-67500D01*
X129412Y-71220D02*
X129412Y-76108D01*
X131720Y-65170D02*
X129412Y-67477D01*
X131720Y-53743D02*
X131720Y-65170D01*
X130904Y-52927D02*
X131720Y-53743D01*
X130904Y-49201D02*
X130904Y-52927D01*
X114256Y-62111D02*
X114325Y-62111D01*
X115748Y-60649D02*
X115733Y-60634D01*
X114325Y-62111D02*
X114507Y-61929D01*
X129768Y-54364D02*
X130313Y-54909D01*
X128377Y-54364D02*
X129768Y-54364D01*
X127175Y-55567D02*
X128377Y-54364D01*
X120690Y-55567D02*
X127175Y-55567D01*
X118797Y-57459D02*
X120690Y-55567D01*
X118797Y-57570D02*
X118797Y-57459D01*
X108245Y-68121D02*
X114256Y-62111D01*
X115733Y-60634D02*
X118797Y-57570D01*
X108245Y-72407D02*
X108245Y-68121D01*
X106795Y-73858D02*
X108245Y-72407D01*
X120204Y-62999D02*
X120216Y-63011D01*
X128738Y-54909D02*
X128293Y-54909D01*
X118980Y-64222D02*
X120204Y-62999D01*
X124370Y-58833D02*
X128293Y-54909D01*
X112703Y-64222D02*
X118980Y-64222D01*
X109242Y-67683D02*
X112703Y-64222D01*
X109242Y-74411D02*
X109242Y-67683D01*
X106795Y-76858D02*
X109242Y-74411D01*
X136964Y-83995D02*
X132858Y-83995D01*
X138007Y-85039D02*
X136964Y-83995D01*
X132858Y-84645D02*
X132858Y-83995D01*
G54D32*
X117052Y-67884D02*
X117052Y-68042D01*
X115555Y-66387D02*
X117052Y-67884D01*
X113266Y-66387D02*
X115555Y-66387D01*
X112795Y-66858D02*
X113266Y-66387D01*
X113857Y-57302D02*
X113857Y-57244D01*
X115807Y-56062D02*
X115804Y-56060D01*
X113857Y-57244D02*
X114015Y-57086D01*
X106289Y-67352D02*
X106795Y-67858D01*
X106289Y-65631D02*
X106289Y-67352D01*
X106562Y-65358D02*
X106289Y-65631D01*
X106999Y-65358D02*
X106562Y-65358D01*
X109251Y-63106D02*
X106999Y-65358D01*
X109251Y-61199D02*
X109251Y-63106D01*
X109803Y-60647D02*
X109251Y-61199D01*
X110512Y-60647D02*
X109803Y-60647D01*
X113857Y-57302D02*
X110512Y-60647D01*
X117173Y-54692D02*
X115804Y-56060D01*
X107300Y-69352D02*
X106795Y-69858D01*
X107300Y-67552D02*
X107300Y-69352D01*
X110751Y-64100D02*
X107300Y-67552D01*
X110751Y-61614D02*
X110751Y-64100D01*
X117500Y-68366D02*
X117500Y-68358D01*
X127342Y-62224D02*
X127342Y-62322D01*
X128169Y-61397D02*
X127342Y-62224D01*
X109795Y-76858D02*
X106795Y-79858D01*
X109795Y-71157D02*
X109795Y-76858D01*
X112594Y-68358D02*
X109795Y-71157D01*
X117500Y-68358D02*
X112594Y-68358D01*
X113877Y-58987D02*
X113925Y-58987D01*
X115807Y-57086D02*
X115792Y-57072D01*
X113925Y-58987D02*
X113976Y-58937D01*
X110251Y-62401D02*
X106795Y-65858D01*
X110251Y-61199D02*
X110251Y-62401D01*
X110679Y-60771D02*
X110251Y-61199D01*
X112093Y-60771D02*
X110679Y-60771D01*
X118173Y-54692D02*
X115792Y-57072D01*
X113877Y-58987D02*
X112093Y-60771D01*
X123818Y-58346D02*
X123820Y-58348D01*
X120050Y-62117D02*
X120067Y-62117D01*
X120067Y-62117D02*
X120177Y-62007D01*
X106289Y-80352D02*
X106795Y-80858D01*
X106289Y-76641D02*
X106289Y-80352D01*
X106572Y-76358D02*
X106289Y-76641D01*
X106997Y-76358D02*
X106572Y-76358D01*
X108905Y-74451D02*
X106997Y-76358D01*
X108905Y-67752D02*
X108905Y-74451D01*
X113518Y-63139D02*
X108905Y-67752D01*
X119029Y-63139D02*
X113518Y-63139D01*
X125598Y-56570D02*
X123820Y-58348D01*
X120050Y-62117D02*
X119029Y-63139D01*
G54D31*
X114932Y-74995D02*
X120858Y-74995D01*
X112795Y-72858D02*
X114932Y-74995D01*
X120858Y-75645D02*
X120858Y-74995D01*
X122740Y-68877D02*
X122740Y-68880D01*
X127080Y-73240D02*
X127091Y-73228D01*
X122740Y-68880D02*
X122940Y-69080D01*
X122720Y-68858D02*
X122740Y-68877D01*
X127091Y-73228D02*
X128858Y-74995D01*
X112795Y-68858D02*
X122720Y-68858D01*
X128858Y-75645D02*
X128858Y-74995D01*
G54D32*
X123492Y-76285D02*
X124858Y-76285D01*
X123293Y-76086D02*
X123492Y-76285D01*
X123293Y-75087D02*
X123293Y-76086D01*
X119064Y-70858D02*
X123293Y-75087D01*
X112795Y-70858D02*
X119064Y-70858D01*
X124858Y-75645D02*
X124858Y-76285D01*
X118710Y-69858D02*
X123858Y-75005D01*
X112795Y-69858D02*
X118710Y-69858D01*
X123858Y-75645D02*
X123858Y-75005D01*
X119581Y-72728D02*
X121858Y-75005D01*
X115354Y-72728D02*
X119581Y-72728D01*
X121858Y-75645D02*
X121858Y-75005D01*
X119710Y-71858D02*
X122858Y-75005D01*
X112795Y-71858D02*
X119710Y-71858D01*
X122858Y-75645D02*
X122858Y-75005D01*
G54D31*
X114232Y-76295D02*
X119858Y-76295D01*
X112795Y-74858D02*
X114232Y-76295D01*
X119858Y-75645D02*
X119858Y-76295D01*
X114582Y-75645D02*
X118858Y-75645D01*
X112795Y-73858D02*
X114582Y-75645D01*
G54D30*
X136882Y-69933D02*
X136882Y-69928D01*
X136882Y-69928D02*
X137322Y-69488D01*
X113635Y-82017D02*
X112795Y-82858D01*
X128890Y-82017D02*
X113635Y-82017D01*
X130858Y-83985D02*
X128890Y-82017D01*
X130858Y-84645D02*
X130858Y-83985D01*
X131858Y-74958D02*
X131858Y-75645D01*
X136882Y-69933D02*
X131858Y-74958D01*
G54D31*
X126343Y-82480D02*
X127858Y-83995D01*
X116051Y-82480D02*
X126343Y-82480D01*
X127858Y-84645D02*
X127858Y-83995D01*
X115770Y-45450D02*
X115859Y-45450D01*
X114370Y-44050D02*
X115770Y-45450D01*
X114370Y-43610D02*
X114370Y-44050D01*
X114759Y-77858D02*
X115157Y-78255D01*
X112795Y-77858D02*
X114759Y-77858D01*
G54D10*
G36*
X130394Y-83960D02*
X130358Y-83996D01*
X130295Y-83933D01*
X130203Y-83895D01*
X130104Y-83895D01*
X129513Y-83895D01*
X129421Y-83933D01*
X129358Y-83996D01*
X129295Y-83933D01*
X129203Y-83895D01*
X129104Y-83895D01*
X128970Y-83895D01*
X128908Y-83958D01*
X128908Y-84595D01*
X128916Y-84595D01*
X128916Y-84695D01*
X128908Y-84695D01*
X128908Y-84703D01*
X128808Y-84703D01*
X128808Y-84695D01*
X128800Y-84695D01*
X128800Y-84595D01*
X128808Y-84595D01*
X128808Y-83958D01*
X128745Y-83895D01*
X128612Y-83895D01*
X128513Y-83895D01*
X128421Y-83933D01*
X128358Y-83996D01*
X128295Y-83933D01*
X128203Y-83895D01*
X128138Y-83895D01*
X128135Y-83880D01*
X128070Y-83783D01*
X128070Y-83783D01*
X126614Y-82327D01*
X128761Y-82327D01*
X130394Y-83960D01*
X130394Y-83960D01*
G37*
G54D31*
X130394Y-83960D02*
X130358Y-83996D01*
X130295Y-83933D01*
X130203Y-83895D01*
X130104Y-83895D01*
X129513Y-83895D01*
X129421Y-83933D01*
X129358Y-83996D01*
X129295Y-83933D01*
X129203Y-83895D01*
X129104Y-83895D01*
X128970Y-83895D01*
X128908Y-83958D01*
X128908Y-84595D01*
X128916Y-84595D01*
X128916Y-84695D01*
X128908Y-84695D01*
X128908Y-84703D01*
X128808Y-84703D01*
X128808Y-84695D01*
X128800Y-84695D01*
X128800Y-84595D01*
X128808Y-84595D01*
X128808Y-83958D01*
X128745Y-83895D01*
X128612Y-83895D01*
X128513Y-83895D01*
X128421Y-83933D01*
X128358Y-83996D01*
X128295Y-83933D01*
X128203Y-83895D01*
X128138Y-83895D01*
X128135Y-83880D01*
X128070Y-83783D01*
X128070Y-83783D01*
X126614Y-82327D01*
X128761Y-82327D01*
X130394Y-83960D01*
G54D10*
G36*
X139494Y-86344D02*
X139128Y-86344D01*
X139128Y-82491D01*
X139128Y-35247D01*
X138985Y-34901D01*
X138721Y-34637D01*
X138376Y-34494D01*
X138003Y-34493D01*
X137657Y-34636D01*
X137393Y-34900D01*
X137250Y-35245D01*
X137249Y-35619D01*
X137392Y-35964D01*
X137656Y-36228D01*
X138001Y-36371D01*
X138374Y-36372D01*
X138720Y-36229D01*
X138984Y-35965D01*
X139127Y-35620D01*
X139128Y-35247D01*
X139128Y-82491D01*
X138985Y-82145D01*
X138721Y-81881D01*
X138376Y-81738D01*
X138003Y-81738D01*
X137657Y-81880D01*
X137393Y-82144D01*
X137250Y-82489D01*
X137249Y-82863D01*
X137392Y-83208D01*
X137656Y-83472D01*
X138001Y-83615D01*
X138374Y-83616D01*
X138720Y-83473D01*
X138984Y-83209D01*
X139127Y-82864D01*
X139128Y-82491D01*
X139128Y-86344D01*
X138557Y-86344D01*
X138557Y-84930D01*
X138474Y-84728D01*
X138319Y-84573D01*
X138117Y-84489D01*
X137898Y-84489D01*
X137886Y-84494D01*
X137176Y-83783D01*
X137078Y-83718D01*
X136964Y-83695D01*
X132858Y-83695D01*
X132743Y-83718D01*
X132646Y-83783D01*
X132581Y-83880D01*
X132578Y-83895D01*
X132513Y-83895D01*
X132421Y-83933D01*
X132358Y-83996D01*
X132295Y-83933D01*
X132203Y-83895D01*
X132104Y-83895D01*
X131513Y-83895D01*
X131421Y-83933D01*
X131358Y-83996D01*
X131295Y-83933D01*
X131203Y-83895D01*
X131150Y-83895D01*
X131144Y-83866D01*
X131077Y-83766D01*
X129109Y-81798D01*
X129008Y-81731D01*
X128890Y-81707D01*
X113635Y-81707D01*
X113635Y-81707D01*
X113612Y-81712D01*
X113517Y-81731D01*
X113416Y-81798D01*
X113416Y-81798D01*
X113399Y-81815D01*
X113399Y-81738D01*
X113307Y-81516D01*
X113149Y-81358D01*
X113307Y-81201D01*
X113312Y-81189D01*
X125461Y-81189D01*
X125461Y-81189D01*
X125576Y-81166D01*
X125576Y-81166D01*
X125674Y-81101D01*
X128320Y-78454D01*
X128375Y-78587D01*
X128556Y-78769D01*
X128793Y-78867D01*
X129049Y-78867D01*
X129285Y-78769D01*
X129467Y-78588D01*
X129565Y-78352D01*
X129565Y-78096D01*
X129467Y-77859D01*
X129286Y-77678D01*
X129152Y-77622D01*
X129189Y-77585D01*
X130229Y-77585D01*
X130229Y-77585D01*
X130344Y-77562D01*
X130344Y-77562D01*
X130441Y-77497D01*
X131544Y-76395D01*
X131612Y-76395D01*
X132203Y-76395D01*
X132294Y-76357D01*
X132358Y-76294D01*
X132421Y-76357D01*
X132513Y-76395D01*
X132612Y-76395D01*
X133203Y-76395D01*
X133294Y-76357D01*
X133358Y-76294D01*
X133421Y-76357D01*
X133513Y-76395D01*
X133612Y-76395D01*
X134203Y-76395D01*
X134294Y-76357D01*
X134365Y-76287D01*
X134403Y-76195D01*
X134403Y-76096D01*
X134403Y-75096D01*
X134365Y-75004D01*
X134295Y-74933D01*
X134203Y-74895D01*
X134104Y-74895D01*
X133513Y-74895D01*
X133421Y-74933D01*
X133358Y-74996D01*
X133295Y-74933D01*
X133203Y-74895D01*
X133104Y-74895D01*
X132513Y-74895D01*
X132421Y-74933D01*
X132358Y-74996D01*
X132308Y-74946D01*
X137101Y-70153D01*
X137101Y-70153D01*
X137101Y-70153D01*
X137112Y-70136D01*
X137336Y-69913D01*
X137407Y-69913D01*
X137563Y-69848D01*
X137682Y-69729D01*
X137747Y-69573D01*
X137747Y-69404D01*
X137683Y-69247D01*
X137563Y-69128D01*
X137407Y-69063D01*
X137257Y-69063D01*
X137257Y-36880D01*
X137160Y-36643D01*
X136979Y-36462D01*
X136742Y-36364D01*
X136486Y-36364D01*
X136250Y-36461D01*
X136121Y-36589D01*
X135995Y-36462D01*
X135758Y-36364D01*
X135502Y-36364D01*
X135289Y-36452D01*
X135289Y-34911D01*
X135191Y-34675D01*
X135010Y-34493D01*
X134774Y-34395D01*
X134518Y-34395D01*
X134281Y-34493D01*
X134100Y-34674D01*
X134002Y-34910D01*
X134001Y-35166D01*
X134099Y-35403D01*
X134280Y-35584D01*
X134517Y-35682D01*
X134773Y-35683D01*
X135009Y-35585D01*
X135191Y-35404D01*
X135289Y-35167D01*
X135289Y-34911D01*
X135289Y-36452D01*
X135265Y-36461D01*
X135084Y-36642D01*
X135054Y-36715D01*
X134927Y-36587D01*
X134744Y-36511D01*
X134547Y-36511D01*
X134365Y-36587D01*
X134236Y-36715D01*
X134207Y-36643D01*
X134026Y-36462D01*
X133790Y-36364D01*
X133533Y-36364D01*
X133297Y-36461D01*
X133169Y-36589D01*
X133042Y-36462D01*
X132805Y-36364D01*
X132549Y-36364D01*
X132313Y-36461D01*
X132131Y-36642D01*
X132033Y-36879D01*
X132033Y-37135D01*
X132131Y-37372D01*
X132312Y-37553D01*
X132548Y-37651D01*
X132804Y-37651D01*
X133041Y-37553D01*
X133169Y-37426D01*
X133296Y-37553D01*
X133532Y-37651D01*
X133788Y-37651D01*
X134025Y-37553D01*
X134206Y-37372D01*
X134236Y-37300D01*
X134364Y-37428D01*
X134546Y-37503D01*
X134743Y-37504D01*
X134926Y-37428D01*
X135054Y-37300D01*
X135083Y-37372D01*
X135264Y-37553D01*
X135501Y-37651D01*
X135757Y-37651D01*
X135994Y-37553D01*
X136122Y-37426D01*
X136249Y-37553D01*
X136485Y-37651D01*
X136741Y-37651D01*
X136978Y-37553D01*
X137159Y-37372D01*
X137257Y-37136D01*
X137257Y-36880D01*
X137257Y-69063D01*
X137238Y-69063D01*
X137082Y-69127D01*
X136987Y-69222D01*
X136987Y-56774D01*
X136976Y-56556D01*
X136914Y-56405D01*
X136818Y-56377D01*
X136748Y-56448D01*
X136748Y-56307D01*
X136720Y-56211D01*
X136514Y-56138D01*
X136434Y-56142D01*
X136434Y-49505D01*
X136434Y-48121D01*
X136355Y-47928D01*
X136219Y-47792D01*
X136219Y-46429D01*
X136196Y-46311D01*
X136196Y-46311D01*
X136182Y-46290D01*
X136184Y-46284D01*
X136184Y-46075D01*
X136105Y-45882D01*
X135957Y-45735D01*
X135824Y-45679D01*
X135956Y-45625D01*
X136104Y-45477D01*
X136184Y-45284D01*
X136184Y-45075D01*
X136105Y-44882D01*
X135957Y-44735D01*
X135764Y-44655D01*
X135555Y-44654D01*
X135362Y-44734D01*
X135215Y-44882D01*
X135134Y-45075D01*
X135134Y-45283D01*
X135214Y-45476D01*
X135362Y-45624D01*
X135495Y-45679D01*
X135362Y-45734D01*
X135227Y-45869D01*
X134694Y-45869D01*
X134549Y-45724D01*
X134416Y-45669D01*
X134548Y-45614D01*
X134696Y-45467D01*
X134776Y-45274D01*
X134777Y-45065D01*
X134697Y-44872D01*
X134549Y-44724D01*
X134356Y-44644D01*
X134147Y-44644D01*
X134125Y-44653D01*
X134125Y-44437D01*
X134208Y-44354D01*
X134398Y-44355D01*
X134591Y-44275D01*
X134739Y-44127D01*
X134819Y-43934D01*
X134819Y-43725D01*
X134740Y-43532D01*
X134592Y-43385D01*
X134459Y-43329D01*
X134591Y-43275D01*
X134739Y-43127D01*
X134819Y-42934D01*
X134819Y-42725D01*
X134740Y-42532D01*
X134592Y-42385D01*
X134399Y-42305D01*
X134190Y-42304D01*
X133997Y-42384D01*
X133850Y-42532D01*
X133769Y-42725D01*
X133769Y-42933D01*
X133849Y-43126D01*
X133997Y-43274D01*
X134130Y-43329D01*
X133997Y-43384D01*
X133850Y-43532D01*
X133769Y-43725D01*
X133769Y-43786D01*
X131524Y-41540D01*
X131423Y-41473D01*
X131305Y-41450D01*
X129679Y-41450D01*
X129679Y-38238D01*
X129566Y-37965D01*
X129357Y-37757D01*
X129085Y-37643D01*
X128790Y-37643D01*
X128517Y-37756D01*
X128308Y-37964D01*
X128195Y-38237D01*
X128194Y-38532D01*
X128261Y-38694D01*
X128101Y-38628D01*
X127805Y-38627D01*
X127532Y-38740D01*
X127323Y-38949D01*
X127210Y-39221D01*
X127210Y-39517D01*
X127323Y-39789D01*
X127531Y-39998D01*
X127804Y-40112D01*
X128099Y-40112D01*
X128372Y-39999D01*
X128581Y-39791D01*
X128694Y-39518D01*
X128695Y-39223D01*
X128628Y-39061D01*
X128788Y-39127D01*
X129083Y-39128D01*
X129356Y-39015D01*
X129565Y-38806D01*
X129679Y-38534D01*
X129679Y-38238D01*
X129679Y-41450D01*
X128291Y-41450D01*
X128241Y-41399D01*
X128084Y-41335D01*
X127915Y-41334D01*
X127759Y-41399D01*
X127639Y-41518D01*
X127575Y-41675D01*
X127574Y-41844D01*
X127639Y-42000D01*
X127758Y-42120D01*
X127915Y-42184D01*
X128084Y-42185D01*
X128205Y-42134D01*
X128191Y-42186D01*
X128255Y-42272D01*
X128690Y-42272D01*
X128690Y-42264D01*
X128790Y-42264D01*
X128790Y-42272D01*
X128798Y-42272D01*
X128798Y-42372D01*
X128790Y-42372D01*
X128790Y-42380D01*
X128690Y-42380D01*
X128690Y-42372D01*
X128255Y-42372D01*
X128191Y-42459D01*
X128248Y-42666D01*
X128373Y-42828D01*
X126730Y-42828D01*
X126730Y-38513D01*
X126722Y-38218D01*
X126624Y-37982D01*
X126509Y-37931D01*
X126438Y-38002D01*
X126438Y-37860D01*
X126387Y-37745D01*
X126111Y-37640D01*
X125816Y-37647D01*
X125580Y-37745D01*
X125530Y-37860D01*
X125984Y-38315D01*
X126438Y-37860D01*
X126438Y-38002D01*
X126054Y-38385D01*
X126509Y-38840D01*
X126624Y-38789D01*
X126730Y-38513D01*
X126730Y-42828D01*
X126438Y-42828D01*
X126438Y-38910D01*
X125984Y-38456D01*
X125913Y-38527D01*
X125913Y-38385D01*
X125459Y-37931D01*
X125344Y-37982D01*
X125238Y-38258D01*
X125246Y-38553D01*
X125344Y-38789D01*
X125459Y-38840D01*
X125913Y-38385D01*
X125913Y-38527D01*
X125530Y-38910D01*
X125580Y-39026D01*
X125856Y-39131D01*
X126151Y-39123D01*
X126387Y-39026D01*
X126438Y-38910D01*
X126438Y-42828D01*
X125665Y-42828D01*
X125665Y-41695D01*
X125600Y-41539D01*
X125481Y-41419D01*
X125324Y-41355D01*
X125155Y-41354D01*
X124999Y-41419D01*
X124968Y-41450D01*
X124940Y-41450D01*
X124758Y-41450D01*
X124758Y-39223D01*
X124645Y-38950D01*
X124436Y-38741D01*
X124164Y-38628D01*
X123868Y-38627D01*
X123706Y-38694D01*
X123773Y-38534D01*
X123773Y-38238D01*
X123661Y-37965D01*
X123452Y-37757D01*
X123179Y-37643D01*
X122884Y-37643D01*
X122611Y-37756D01*
X122402Y-37964D01*
X122289Y-38237D01*
X122289Y-38532D01*
X122401Y-38805D01*
X122610Y-39014D01*
X122883Y-39127D01*
X123178Y-39128D01*
X123340Y-39061D01*
X123273Y-39221D01*
X123273Y-39517D01*
X123386Y-39789D01*
X123594Y-39998D01*
X123867Y-40112D01*
X124162Y-40112D01*
X124435Y-39999D01*
X124644Y-39791D01*
X124757Y-39518D01*
X124758Y-39223D01*
X124758Y-41450D01*
X119836Y-41450D01*
X119836Y-38238D01*
X119723Y-37965D01*
X119515Y-37757D01*
X119242Y-37643D01*
X118947Y-37643D01*
X118674Y-37756D01*
X118465Y-37964D01*
X118352Y-38237D01*
X118352Y-38532D01*
X118419Y-38694D01*
X118258Y-38628D01*
X117963Y-38627D01*
X117690Y-38740D01*
X117481Y-38949D01*
X117368Y-39221D01*
X117367Y-39517D01*
X117480Y-39789D01*
X117689Y-39998D01*
X117961Y-40112D01*
X118257Y-40112D01*
X118530Y-39999D01*
X118739Y-39791D01*
X118852Y-39518D01*
X118852Y-39223D01*
X118785Y-39061D01*
X118946Y-39127D01*
X119241Y-39128D01*
X119514Y-39015D01*
X119723Y-38806D01*
X119836Y-38534D01*
X119836Y-38238D01*
X119836Y-41450D01*
X119629Y-41450D01*
X119627Y-41439D01*
X119506Y-41257D01*
X119324Y-41136D01*
X119110Y-41093D01*
X118895Y-41136D01*
X118714Y-41257D01*
X118610Y-41413D01*
X118506Y-41257D01*
X118324Y-41136D01*
X118110Y-41093D01*
X117895Y-41136D01*
X117714Y-41257D01*
X117610Y-41412D01*
X117608Y-41406D01*
X117470Y-41235D01*
X117278Y-41130D01*
X117246Y-41124D01*
X117160Y-41172D01*
X117160Y-41757D01*
X117168Y-41757D01*
X117168Y-41857D01*
X117160Y-41857D01*
X117160Y-42442D01*
X117246Y-42490D01*
X117278Y-42483D01*
X117470Y-42378D01*
X117608Y-42207D01*
X117610Y-42201D01*
X117714Y-42356D01*
X117852Y-42449D01*
X117091Y-43210D01*
X117060Y-43210D01*
X117060Y-42442D01*
X117060Y-41857D01*
X117060Y-41757D01*
X117060Y-41172D01*
X116973Y-41124D01*
X116942Y-41130D01*
X116883Y-41162D01*
X116883Y-38238D01*
X116771Y-37965D01*
X116562Y-37757D01*
X116289Y-37643D01*
X115994Y-37643D01*
X115721Y-37756D01*
X115512Y-37964D01*
X115399Y-38237D01*
X115399Y-38532D01*
X115512Y-38805D01*
X115720Y-39014D01*
X115993Y-39127D01*
X116288Y-39128D01*
X116561Y-39015D01*
X116770Y-38806D01*
X116883Y-38534D01*
X116883Y-38238D01*
X116883Y-41162D01*
X116749Y-41235D01*
X116611Y-41406D01*
X116550Y-41617D01*
X116550Y-41757D01*
X117060Y-41757D01*
X117060Y-41857D01*
X116550Y-41857D01*
X116550Y-41997D01*
X116611Y-42207D01*
X116749Y-42378D01*
X116942Y-42483D01*
X116973Y-42490D01*
X117060Y-42442D01*
X117060Y-43210D01*
X115917Y-43210D01*
X115782Y-43075D01*
X115649Y-43020D01*
X115782Y-42965D01*
X115929Y-42817D01*
X116009Y-42624D01*
X116010Y-42416D01*
X115930Y-42223D01*
X115782Y-42075D01*
X115589Y-41995D01*
X115381Y-41994D01*
X115188Y-42074D01*
X115040Y-42222D01*
X114960Y-42415D01*
X114959Y-42624D01*
X115039Y-42817D01*
X115187Y-42964D01*
X115320Y-43020D01*
X115188Y-43074D01*
X115040Y-43222D01*
X114960Y-43415D01*
X114959Y-43624D01*
X115039Y-43817D01*
X115187Y-43964D01*
X115380Y-44044D01*
X115589Y-44045D01*
X115782Y-43965D01*
X115917Y-43830D01*
X117220Y-43830D01*
X117338Y-43806D01*
X117439Y-43739D01*
X118778Y-42399D01*
X118895Y-42478D01*
X119110Y-42520D01*
X119324Y-42478D01*
X119506Y-42356D01*
X119627Y-42175D01*
X119641Y-42104D01*
X119698Y-42093D01*
X119734Y-42070D01*
X124929Y-42070D01*
X124998Y-42140D01*
X125155Y-42204D01*
X125324Y-42205D01*
X125480Y-42140D01*
X125600Y-42021D01*
X125664Y-41864D01*
X125665Y-41695D01*
X125665Y-42828D01*
X124308Y-42828D01*
X124193Y-42851D01*
X124096Y-42916D01*
X120509Y-46502D01*
X120449Y-46356D01*
X120301Y-46208D01*
X120108Y-46128D01*
X119899Y-46128D01*
X119706Y-46208D01*
X119670Y-46244D01*
X119670Y-45207D01*
X119670Y-44307D01*
X119632Y-44215D01*
X119562Y-44145D01*
X119470Y-44107D01*
X119370Y-44107D01*
X118750Y-44107D01*
X118658Y-44145D01*
X118588Y-44215D01*
X118550Y-44307D01*
X118550Y-44323D01*
X118506Y-44257D01*
X118324Y-44136D01*
X118110Y-44093D01*
X117895Y-44136D01*
X117714Y-44257D01*
X117610Y-44413D01*
X117506Y-44257D01*
X117324Y-44136D01*
X117110Y-44093D01*
X116895Y-44136D01*
X116714Y-44257D01*
X116592Y-44439D01*
X116550Y-44653D01*
X116550Y-44960D01*
X116592Y-45175D01*
X116714Y-45356D01*
X116895Y-45478D01*
X117110Y-45520D01*
X117324Y-45478D01*
X117506Y-45356D01*
X117610Y-45201D01*
X117714Y-45356D01*
X117895Y-45478D01*
X118110Y-45520D01*
X118324Y-45478D01*
X118506Y-45356D01*
X118550Y-45290D01*
X118550Y-45306D01*
X118588Y-45398D01*
X118658Y-45468D01*
X118750Y-45507D01*
X118849Y-45507D01*
X119469Y-45507D01*
X119561Y-45469D01*
X119632Y-45398D01*
X119670Y-45307D01*
X119670Y-45207D01*
X119670Y-46244D01*
X119559Y-46355D01*
X119479Y-46548D01*
X119478Y-46757D01*
X119558Y-46950D01*
X119706Y-47098D01*
X119853Y-47159D01*
X119237Y-47775D01*
X119115Y-47774D01*
X118959Y-47839D01*
X118839Y-47958D01*
X118775Y-48115D01*
X118774Y-48284D01*
X118839Y-48440D01*
X118958Y-48560D01*
X119115Y-48624D01*
X119284Y-48625D01*
X119440Y-48560D01*
X119560Y-48441D01*
X119624Y-48284D01*
X119624Y-48236D01*
X124432Y-43428D01*
X128721Y-43428D01*
X128721Y-43428D01*
X128836Y-43406D01*
X128836Y-43406D01*
X128933Y-43340D01*
X129334Y-42940D01*
X129527Y-42979D01*
X129736Y-42937D01*
X129913Y-42819D01*
X129921Y-42807D01*
X129929Y-42819D01*
X130014Y-42876D01*
X130014Y-45584D01*
X128596Y-47002D01*
X128596Y-45619D01*
X128596Y-44438D01*
X128558Y-44346D01*
X128488Y-44276D01*
X128396Y-44238D01*
X128296Y-44238D01*
X127115Y-44238D01*
X127023Y-44276D01*
X126953Y-44346D01*
X126915Y-44438D01*
X126915Y-44537D01*
X126915Y-45718D01*
X126953Y-45810D01*
X127023Y-45881D01*
X127115Y-45919D01*
X127214Y-45919D01*
X128395Y-45919D01*
X128487Y-45881D01*
X128558Y-45811D01*
X128596Y-45719D01*
X128596Y-45619D01*
X128596Y-47002D01*
X126084Y-49514D01*
X126015Y-49514D01*
X125859Y-49579D01*
X125739Y-49698D01*
X125675Y-49855D01*
X125674Y-50024D01*
X125739Y-50180D01*
X125858Y-50300D01*
X126015Y-50364D01*
X126184Y-50365D01*
X126340Y-50300D01*
X126460Y-50181D01*
X126524Y-50024D01*
X126525Y-49922D01*
X128332Y-48115D01*
X128332Y-48151D01*
X128424Y-48373D01*
X128594Y-48543D01*
X128769Y-48616D01*
X128593Y-48688D01*
X128423Y-48858D01*
X128331Y-49080D01*
X128331Y-49320D01*
X128423Y-49543D01*
X128593Y-49713D01*
X128815Y-49805D01*
X129055Y-49805D01*
X129277Y-49713D01*
X129447Y-49543D01*
X129449Y-49540D01*
X129494Y-49555D01*
X129849Y-49201D01*
X129494Y-48846D01*
X129449Y-48861D01*
X129448Y-48859D01*
X129278Y-48689D01*
X129103Y-48616D01*
X129278Y-48544D01*
X129449Y-48374D01*
X129450Y-48370D01*
X129496Y-48386D01*
X129850Y-48031D01*
X129496Y-47676D01*
X129450Y-47692D01*
X129449Y-47689D01*
X129279Y-47519D01*
X129057Y-47427D01*
X129020Y-47427D01*
X130527Y-45920D01*
X130592Y-45823D01*
X130614Y-45708D01*
X130614Y-45708D01*
X130614Y-42876D01*
X130700Y-42819D01*
X130708Y-42807D01*
X130716Y-42819D01*
X130802Y-42876D01*
X130802Y-47283D01*
X130825Y-47398D01*
X130844Y-47427D01*
X130785Y-47427D01*
X130563Y-47518D01*
X130393Y-47688D01*
X130392Y-47692D01*
X130346Y-47676D01*
X130275Y-47747D01*
X130275Y-47606D01*
X130241Y-47505D01*
X130016Y-47422D01*
X129775Y-47432D01*
X129600Y-47505D01*
X129566Y-47606D01*
X129921Y-47960D01*
X130275Y-47606D01*
X130275Y-47747D01*
X129991Y-48031D01*
X130346Y-48386D01*
X130391Y-48370D01*
X130392Y-48373D01*
X130562Y-48543D01*
X130737Y-48616D01*
X130562Y-48688D01*
X130392Y-48858D01*
X130390Y-48861D01*
X130345Y-48846D01*
X130275Y-48916D01*
X130275Y-48456D01*
X129921Y-48102D01*
X129566Y-48456D01*
X129600Y-48557D01*
X129750Y-48612D01*
X129599Y-48674D01*
X129565Y-48775D01*
X129920Y-49130D01*
X130274Y-48775D01*
X130240Y-48674D01*
X130090Y-48620D01*
X130241Y-48557D01*
X130275Y-48456D01*
X130275Y-48916D01*
X129990Y-49201D01*
X130345Y-49555D01*
X130390Y-49540D01*
X130391Y-49543D01*
X130561Y-49713D01*
X130604Y-49730D01*
X130604Y-52927D01*
X130627Y-53041D01*
X130692Y-53139D01*
X131420Y-53867D01*
X131420Y-54372D01*
X131276Y-54290D01*
X131235Y-54282D01*
X131151Y-54331D01*
X131151Y-54859D01*
X131159Y-54859D01*
X131159Y-54959D01*
X131151Y-54959D01*
X131151Y-55488D01*
X131235Y-55536D01*
X131276Y-55529D01*
X131420Y-55446D01*
X131420Y-56853D01*
X131399Y-56845D01*
X131190Y-56844D01*
X131051Y-56902D01*
X131051Y-55488D01*
X131051Y-54959D01*
X131043Y-54959D01*
X131043Y-54859D01*
X131051Y-54859D01*
X131051Y-54331D01*
X130966Y-54282D01*
X130926Y-54290D01*
X130740Y-54396D01*
X130712Y-54432D01*
X130699Y-54413D01*
X130522Y-54295D01*
X130313Y-54253D01*
X130274Y-54261D01*
X130274Y-49626D01*
X129920Y-49271D01*
X129565Y-49626D01*
X129599Y-49727D01*
X129825Y-49810D01*
X130065Y-49799D01*
X130240Y-49727D01*
X130274Y-49626D01*
X130274Y-54261D01*
X130120Y-54292D01*
X129980Y-54152D01*
X129883Y-54087D01*
X129768Y-54064D01*
X128595Y-54064D01*
X128595Y-52694D01*
X128595Y-51513D01*
X128557Y-51421D01*
X128487Y-51351D01*
X128395Y-51313D01*
X128295Y-51313D01*
X127114Y-51313D01*
X127022Y-51351D01*
X126952Y-51421D01*
X126914Y-51513D01*
X126914Y-51612D01*
X126914Y-52793D01*
X126952Y-52885D01*
X127022Y-52956D01*
X127114Y-52994D01*
X127213Y-52994D01*
X128394Y-52994D01*
X128486Y-52956D01*
X128557Y-52886D01*
X128595Y-52794D01*
X128595Y-52694D01*
X128595Y-54064D01*
X128377Y-54064D01*
X128262Y-54087D01*
X128165Y-54152D01*
X127051Y-55267D01*
X121750Y-55267D01*
X121936Y-55080D01*
X121936Y-55080D01*
X122001Y-54983D01*
X122024Y-54868D01*
X122024Y-54868D01*
X122024Y-54423D01*
X124023Y-52423D01*
X124031Y-52413D01*
X124139Y-52304D01*
X124224Y-52305D01*
X124380Y-52240D01*
X124500Y-52121D01*
X124564Y-51964D01*
X124565Y-51795D01*
X124500Y-51639D01*
X124381Y-51519D01*
X124224Y-51455D01*
X124055Y-51454D01*
X123899Y-51519D01*
X123779Y-51638D01*
X123715Y-51795D01*
X123714Y-51880D01*
X123599Y-51996D01*
X123592Y-52006D01*
X121512Y-54086D01*
X121466Y-54155D01*
X121267Y-54083D01*
X121027Y-54093D01*
X120852Y-54165D01*
X120818Y-54266D01*
X121173Y-54621D01*
X121178Y-54615D01*
X121249Y-54686D01*
X121243Y-54692D01*
X121249Y-54697D01*
X121178Y-54768D01*
X121173Y-54762D01*
X121167Y-54768D01*
X121096Y-54697D01*
X121102Y-54692D01*
X120747Y-54337D01*
X120688Y-54357D01*
X120685Y-54350D01*
X120516Y-54180D01*
X120293Y-54087D01*
X120053Y-54087D01*
X119831Y-54179D01*
X119673Y-54337D01*
X119516Y-54180D01*
X119293Y-54087D01*
X119053Y-54087D01*
X118831Y-54179D01*
X118673Y-54337D01*
X118516Y-54180D01*
X118293Y-54087D01*
X118053Y-54087D01*
X117831Y-54179D01*
X117673Y-54337D01*
X117528Y-54193D01*
X117528Y-46879D01*
X117528Y-46329D01*
X117491Y-46237D01*
X117420Y-46166D01*
X117328Y-46128D01*
X117229Y-46128D01*
X116679Y-46128D01*
X116587Y-46166D01*
X116517Y-46236D01*
X116478Y-46328D01*
X116478Y-46428D01*
X116478Y-46978D01*
X116516Y-47069D01*
X116587Y-47140D01*
X116678Y-47178D01*
X116778Y-47178D01*
X117328Y-47178D01*
X117420Y-47140D01*
X117490Y-47070D01*
X117528Y-46978D01*
X117528Y-46879D01*
X117528Y-54193D01*
X117516Y-54180D01*
X117293Y-54087D01*
X117053Y-54087D01*
X116831Y-54179D01*
X116673Y-54337D01*
X116516Y-54180D01*
X116293Y-54087D01*
X116284Y-54087D01*
X116284Y-45365D01*
X116220Y-45209D01*
X116100Y-45089D01*
X115944Y-45025D01*
X115775Y-45024D01*
X115771Y-45026D01*
X114915Y-44171D01*
X114915Y-39223D01*
X114802Y-38950D01*
X114594Y-38741D01*
X114321Y-38628D01*
X114026Y-38627D01*
X113864Y-38694D01*
X113930Y-38534D01*
X113931Y-38238D01*
X113818Y-37965D01*
X113609Y-37757D01*
X113337Y-37643D01*
X113042Y-37643D01*
X112769Y-37756D01*
X112560Y-37964D01*
X112446Y-38237D01*
X112446Y-38532D01*
X112559Y-38805D01*
X112768Y-39014D01*
X113040Y-39127D01*
X113335Y-39128D01*
X113497Y-39061D01*
X113431Y-39221D01*
X113430Y-39517D01*
X113543Y-39789D01*
X113752Y-39998D01*
X114024Y-40112D01*
X114320Y-40112D01*
X114593Y-39999D01*
X114802Y-39791D01*
X114915Y-39518D01*
X114915Y-39223D01*
X114915Y-44171D01*
X114733Y-43989D01*
X114814Y-43908D01*
X114894Y-43715D01*
X114895Y-43506D01*
X114815Y-43313D01*
X114667Y-43165D01*
X114534Y-43110D01*
X114667Y-43055D01*
X114814Y-42908D01*
X114894Y-42715D01*
X114895Y-42506D01*
X114815Y-42313D01*
X114667Y-42165D01*
X114474Y-42085D01*
X114266Y-42085D01*
X114073Y-42164D01*
X113925Y-42312D01*
X113845Y-42505D01*
X113844Y-42714D01*
X113924Y-42907D01*
X114072Y-43055D01*
X114205Y-43110D01*
X114073Y-43164D01*
X113925Y-43312D01*
X113845Y-43505D01*
X113844Y-43714D01*
X113924Y-43907D01*
X114070Y-44053D01*
X114092Y-44164D01*
X114157Y-44262D01*
X115438Y-45542D01*
X115499Y-45690D01*
X115618Y-45810D01*
X115774Y-45874D01*
X115944Y-45875D01*
X116100Y-45810D01*
X116219Y-45691D01*
X116284Y-45534D01*
X116284Y-45365D01*
X116284Y-54087D01*
X116053Y-54087D01*
X115831Y-54179D01*
X115673Y-54337D01*
X115516Y-54180D01*
X115293Y-54087D01*
X115053Y-54087D01*
X114831Y-54179D01*
X114673Y-54337D01*
X114516Y-54180D01*
X114293Y-54087D01*
X114053Y-54087D01*
X113831Y-54179D01*
X113661Y-54349D01*
X113569Y-54571D01*
X113568Y-54811D01*
X113660Y-55034D01*
X113830Y-55204D01*
X114052Y-55296D01*
X114292Y-55296D01*
X114515Y-55204D01*
X114673Y-55046D01*
X114830Y-55204D01*
X115052Y-55296D01*
X115292Y-55296D01*
X115515Y-55204D01*
X115673Y-55046D01*
X115830Y-55204D01*
X116052Y-55296D01*
X116158Y-55296D01*
X115817Y-55638D01*
X115722Y-55637D01*
X115566Y-55702D01*
X115446Y-55821D01*
X115382Y-55978D01*
X115382Y-56147D01*
X115446Y-56303D01*
X115566Y-56423D01*
X115722Y-56487D01*
X115891Y-56488D01*
X116020Y-56434D01*
X115793Y-56661D01*
X115722Y-56661D01*
X115566Y-56726D01*
X115446Y-56845D01*
X115382Y-57001D01*
X115382Y-57170D01*
X115446Y-57327D01*
X115566Y-57446D01*
X115722Y-57511D01*
X115891Y-57511D01*
X116047Y-57447D01*
X116167Y-57327D01*
X116232Y-57171D01*
X116232Y-57043D01*
X118000Y-55274D01*
X118052Y-55296D01*
X118292Y-55296D01*
X118515Y-55204D01*
X118673Y-55046D01*
X118830Y-55204D01*
X119052Y-55296D01*
X119292Y-55296D01*
X119515Y-55204D01*
X119673Y-55046D01*
X119830Y-55204D01*
X120052Y-55296D01*
X120167Y-55296D01*
X117852Y-57611D01*
X117829Y-57556D01*
X117729Y-57522D01*
X117658Y-57593D01*
X117658Y-57451D01*
X117625Y-57351D01*
X117400Y-57269D01*
X117162Y-57279D01*
X116989Y-57351D01*
X116955Y-57451D01*
X117307Y-57803D01*
X117658Y-57451D01*
X117658Y-57593D01*
X117377Y-57874D01*
X117383Y-57879D01*
X117312Y-57950D01*
X117307Y-57944D01*
X117236Y-58015D01*
X117236Y-57874D01*
X116884Y-57522D01*
X116784Y-57556D01*
X116702Y-57780D01*
X116712Y-58018D01*
X116784Y-58191D01*
X116884Y-58225D01*
X117236Y-57874D01*
X117236Y-58015D01*
X116955Y-58296D01*
X116989Y-58396D01*
X117046Y-58417D01*
X115731Y-59732D01*
X115604Y-59732D01*
X115448Y-59796D01*
X115328Y-59916D01*
X115264Y-60072D01*
X115263Y-60241D01*
X115328Y-60397D01*
X115373Y-60443D01*
X115323Y-60564D01*
X115322Y-60733D01*
X115387Y-60890D01*
X115506Y-61009D01*
X115663Y-61074D01*
X115832Y-61074D01*
X115988Y-61010D01*
X116108Y-60890D01*
X116172Y-60734D01*
X116173Y-60618D01*
X118707Y-58084D01*
X118707Y-58273D01*
X118745Y-58365D01*
X118815Y-58435D01*
X118907Y-58473D01*
X119006Y-58474D01*
X119706Y-58474D01*
X119798Y-58436D01*
X119868Y-58365D01*
X119907Y-58273D01*
X119907Y-58174D01*
X119907Y-57474D01*
X119869Y-57382D01*
X119798Y-57312D01*
X119707Y-57274D01*
X119607Y-57273D01*
X119407Y-57273D01*
X120814Y-55867D01*
X126912Y-55867D01*
X126203Y-56576D01*
X126203Y-56450D01*
X126111Y-56228D01*
X125941Y-56058D01*
X125719Y-55965D01*
X125479Y-55965D01*
X125256Y-56057D01*
X125098Y-56215D01*
X124941Y-56058D01*
X124719Y-55965D01*
X124479Y-55965D01*
X124256Y-56057D01*
X124086Y-56227D01*
X124083Y-56235D01*
X124024Y-56215D01*
X123953Y-56286D01*
X123953Y-56144D01*
X123919Y-56043D01*
X123693Y-55961D01*
X123453Y-55971D01*
X123278Y-56043D01*
X123244Y-56144D01*
X123598Y-56499D01*
X123953Y-56144D01*
X123953Y-56286D01*
X123669Y-56570D01*
X124024Y-56924D01*
X124083Y-56904D01*
X124086Y-56911D01*
X124256Y-57082D01*
X124478Y-57174D01*
X124584Y-57174D01*
X123953Y-57805D01*
X123953Y-56995D01*
X123598Y-56640D01*
X123528Y-56711D01*
X123528Y-56570D01*
X123173Y-56215D01*
X123114Y-56235D01*
X123111Y-56228D01*
X122941Y-56058D01*
X122719Y-55965D01*
X122479Y-55965D01*
X122256Y-56057D01*
X122098Y-56215D01*
X121941Y-56058D01*
X121719Y-55965D01*
X121479Y-55965D01*
X121256Y-56057D01*
X121086Y-56227D01*
X120994Y-56449D01*
X120994Y-56689D01*
X121086Y-56911D01*
X121256Y-57082D01*
X121478Y-57174D01*
X121718Y-57174D01*
X121940Y-57082D01*
X122098Y-56924D01*
X122256Y-57082D01*
X122478Y-57174D01*
X122718Y-57174D01*
X122940Y-57082D01*
X123110Y-56912D01*
X123114Y-56904D01*
X123173Y-56924D01*
X123528Y-56570D01*
X123528Y-56711D01*
X123244Y-56995D01*
X123278Y-57096D01*
X123504Y-57178D01*
X123744Y-57168D01*
X123919Y-57096D01*
X123953Y-56995D01*
X123953Y-57805D01*
X123837Y-57921D01*
X123734Y-57921D01*
X123578Y-57985D01*
X123458Y-58105D01*
X123393Y-58261D01*
X123393Y-58430D01*
X123458Y-58586D01*
X123577Y-58706D01*
X123733Y-58771D01*
X123903Y-58771D01*
X123945Y-58754D01*
X123945Y-58917D01*
X124009Y-59073D01*
X124129Y-59193D01*
X124285Y-59258D01*
X124454Y-59258D01*
X124610Y-59193D01*
X124730Y-59074D01*
X124795Y-58918D01*
X124795Y-58832D01*
X128300Y-55327D01*
X128353Y-55406D01*
X128530Y-55524D01*
X128738Y-55566D01*
X128947Y-55524D01*
X129124Y-55406D01*
X129132Y-55394D01*
X129140Y-55406D01*
X129317Y-55524D01*
X129526Y-55566D01*
X129735Y-55524D01*
X129911Y-55406D01*
X129920Y-55394D01*
X129928Y-55406D01*
X130105Y-55524D01*
X130313Y-55566D01*
X130522Y-55524D01*
X130699Y-55406D01*
X130712Y-55386D01*
X130740Y-55422D01*
X130926Y-55529D01*
X130966Y-55536D01*
X131051Y-55488D01*
X131051Y-56902D01*
X130997Y-56924D01*
X130850Y-57072D01*
X130769Y-57265D01*
X130769Y-57474D01*
X130849Y-57667D01*
X130997Y-57814D01*
X131130Y-57870D01*
X130997Y-57924D01*
X130850Y-58072D01*
X130769Y-58265D01*
X130769Y-58474D01*
X130849Y-58667D01*
X130997Y-58814D01*
X131189Y-58894D01*
X131398Y-58895D01*
X131420Y-58886D01*
X131420Y-65046D01*
X129515Y-66951D01*
X129467Y-66835D01*
X129286Y-66654D01*
X129050Y-66556D01*
X128794Y-66556D01*
X128594Y-66638D01*
X128594Y-61313D01*
X128529Y-61157D01*
X128410Y-61037D01*
X128254Y-60972D01*
X128085Y-60972D01*
X127928Y-61037D01*
X127809Y-61156D01*
X127744Y-61312D01*
X127744Y-61412D01*
X127259Y-61897D01*
X127258Y-61897D01*
X127101Y-61962D01*
X126982Y-62081D01*
X126917Y-62237D01*
X126917Y-62406D01*
X126981Y-62563D01*
X127101Y-62682D01*
X127257Y-62747D01*
X127426Y-62747D01*
X127582Y-62683D01*
X127702Y-62563D01*
X127767Y-62407D01*
X127767Y-62238D01*
X127758Y-62218D01*
X128154Y-61822D01*
X128253Y-61822D01*
X128409Y-61758D01*
X128529Y-61638D01*
X128594Y-61482D01*
X128594Y-61313D01*
X128594Y-66638D01*
X128557Y-66653D01*
X128376Y-66834D01*
X128278Y-67071D01*
X128277Y-67327D01*
X128375Y-67564D01*
X128556Y-67745D01*
X128793Y-67843D01*
X129022Y-67843D01*
X128987Y-67927D01*
X128987Y-68097D01*
X129052Y-68253D01*
X129171Y-68372D01*
X129327Y-68437D01*
X129497Y-68437D01*
X129653Y-68373D01*
X129772Y-68253D01*
X129837Y-68097D01*
X129837Y-67928D01*
X129773Y-67772D01*
X129712Y-67711D01*
X129712Y-67602D01*
X131620Y-65694D01*
X131620Y-66091D01*
X130296Y-67414D01*
X130235Y-67414D01*
X130079Y-67479D01*
X129959Y-67598D01*
X129895Y-67755D01*
X129894Y-67924D01*
X129959Y-68080D01*
X130078Y-68200D01*
X130235Y-68264D01*
X130404Y-68265D01*
X130560Y-68200D01*
X130680Y-68081D01*
X130744Y-67924D01*
X130745Y-67814D01*
X132132Y-66427D01*
X132132Y-66427D01*
X132197Y-66330D01*
X132220Y-66215D01*
X132220Y-66215D01*
X132220Y-58640D01*
X132375Y-58704D01*
X132583Y-58705D01*
X132776Y-58625D01*
X132924Y-58477D01*
X133004Y-58284D01*
X133005Y-58075D01*
X132925Y-57882D01*
X132777Y-57735D01*
X132644Y-57679D01*
X132776Y-57625D01*
X132924Y-57477D01*
X133004Y-57284D01*
X133005Y-57075D01*
X132925Y-56882D01*
X132777Y-56735D01*
X132584Y-56655D01*
X132375Y-56654D01*
X132220Y-56719D01*
X132220Y-54730D01*
X133038Y-53913D01*
X133038Y-53913D01*
X133103Y-53815D01*
X133126Y-53700D01*
X133126Y-53700D01*
X133126Y-49007D01*
X133103Y-48892D01*
X133038Y-48795D01*
X133038Y-48795D01*
X131402Y-47159D01*
X131402Y-45901D01*
X131446Y-45919D01*
X131545Y-45919D01*
X132726Y-45919D01*
X132818Y-45881D01*
X132888Y-45811D01*
X132927Y-45719D01*
X132927Y-45619D01*
X132927Y-44438D01*
X132889Y-44346D01*
X132818Y-44276D01*
X132727Y-44238D01*
X132627Y-44238D01*
X131446Y-44238D01*
X131402Y-44256D01*
X131402Y-42876D01*
X131487Y-42819D01*
X131606Y-42642D01*
X131629Y-42523D01*
X133505Y-44399D01*
X133505Y-45732D01*
X133529Y-45851D01*
X133596Y-45952D01*
X133727Y-46082D01*
X133726Y-46273D01*
X133806Y-46466D01*
X133954Y-46614D01*
X134147Y-46694D01*
X134355Y-46694D01*
X134548Y-46614D01*
X134673Y-46489D01*
X135227Y-46489D01*
X135362Y-46624D01*
X135554Y-46704D01*
X135599Y-46704D01*
X135599Y-47792D01*
X135465Y-47927D01*
X135409Y-48060D01*
X135355Y-47928D01*
X135207Y-47780D01*
X135014Y-47700D01*
X134805Y-47700D01*
X134612Y-47779D01*
X134465Y-47927D01*
X134384Y-48120D01*
X134384Y-48326D01*
X133296Y-49414D01*
X133231Y-49511D01*
X133208Y-49626D01*
X133208Y-60870D01*
X133139Y-60938D01*
X133075Y-61095D01*
X133074Y-61264D01*
X133139Y-61420D01*
X133258Y-61540D01*
X133415Y-61604D01*
X133584Y-61605D01*
X133740Y-61540D01*
X133860Y-61421D01*
X133924Y-61264D01*
X133925Y-61095D01*
X133860Y-60939D01*
X133808Y-60887D01*
X133808Y-49750D01*
X134809Y-48750D01*
X135013Y-48750D01*
X135206Y-48670D01*
X135354Y-48522D01*
X135409Y-48389D01*
X135464Y-48522D01*
X135612Y-48670D01*
X135804Y-48750D01*
X136013Y-48750D01*
X136206Y-48670D01*
X136354Y-48522D01*
X136434Y-48330D01*
X136434Y-48121D01*
X136434Y-49505D01*
X136355Y-49312D01*
X136207Y-49165D01*
X136014Y-49084D01*
X135805Y-49084D01*
X135612Y-49164D01*
X135465Y-49312D01*
X135409Y-49445D01*
X135355Y-49312D01*
X135207Y-49165D01*
X135014Y-49084D01*
X134805Y-49084D01*
X134612Y-49164D01*
X134465Y-49312D01*
X134384Y-49504D01*
X134384Y-49713D01*
X134464Y-49906D01*
X134612Y-50054D01*
X134804Y-50134D01*
X135013Y-50134D01*
X135206Y-50055D01*
X135354Y-49907D01*
X135409Y-49774D01*
X135464Y-49906D01*
X135612Y-50054D01*
X135804Y-50134D01*
X136013Y-50134D01*
X136206Y-50055D01*
X136354Y-49907D01*
X136434Y-49714D01*
X136434Y-49505D01*
X136434Y-56142D01*
X136296Y-56149D01*
X136145Y-56211D01*
X136117Y-56307D01*
X136433Y-56622D01*
X136748Y-56307D01*
X136748Y-56448D01*
X136503Y-56692D01*
X136818Y-57008D01*
X136914Y-56980D01*
X136987Y-56774D01*
X136987Y-69222D01*
X136962Y-69247D01*
X136897Y-69403D01*
X136897Y-69474D01*
X136748Y-69624D01*
X136748Y-57078D01*
X136433Y-56763D01*
X136362Y-56834D01*
X136362Y-56692D01*
X136047Y-56377D01*
X135951Y-56405D01*
X135932Y-56460D01*
X135899Y-56381D01*
X135745Y-56226D01*
X135542Y-56143D01*
X135324Y-56142D01*
X135121Y-56226D01*
X134983Y-56364D01*
X134983Y-56343D01*
X134945Y-56251D01*
X134874Y-56181D01*
X134783Y-56142D01*
X134683Y-56142D01*
X134083Y-56142D01*
X133991Y-56180D01*
X133921Y-56251D01*
X133883Y-56342D01*
X133883Y-56442D01*
X133883Y-57042D01*
X133921Y-57134D01*
X133991Y-57204D01*
X134083Y-57242D01*
X134182Y-57242D01*
X134782Y-57242D01*
X134874Y-57204D01*
X134944Y-57134D01*
X134983Y-57042D01*
X134983Y-57020D01*
X135121Y-57158D01*
X135323Y-57242D01*
X135541Y-57243D01*
X135744Y-57159D01*
X135899Y-57004D01*
X135930Y-56929D01*
X135951Y-56980D01*
X136047Y-57008D01*
X136362Y-56692D01*
X136362Y-56834D01*
X136117Y-57078D01*
X136145Y-57174D01*
X136351Y-57247D01*
X136569Y-57236D01*
X136720Y-57174D01*
X136748Y-57078D01*
X136748Y-69624D01*
X136663Y-69709D01*
X136652Y-69725D01*
X131712Y-74665D01*
X131712Y-74216D01*
X133720Y-72208D01*
X133785Y-72110D01*
X133808Y-71996D01*
X133808Y-71996D01*
X133808Y-71500D01*
X133808Y-71172D01*
X133868Y-71112D01*
X133933Y-70956D01*
X133933Y-70787D01*
X133869Y-70630D01*
X133749Y-70511D01*
X133593Y-70446D01*
X133424Y-70446D01*
X133268Y-70510D01*
X133148Y-70630D01*
X133083Y-70786D01*
X133083Y-70955D01*
X133148Y-71111D01*
X133208Y-71172D01*
X133208Y-71500D01*
X133208Y-71871D01*
X131200Y-73879D01*
X131135Y-73977D01*
X131112Y-74092D01*
X131112Y-74895D01*
X131104Y-74895D01*
X130603Y-74895D01*
X130603Y-72420D01*
X130603Y-72017D01*
X130660Y-71961D01*
X130724Y-71804D01*
X130725Y-71635D01*
X130660Y-71479D01*
X130541Y-71359D01*
X130384Y-71295D01*
X130215Y-71294D01*
X130059Y-71359D01*
X129939Y-71478D01*
X129875Y-71635D01*
X129874Y-71804D01*
X129939Y-71960D01*
X130003Y-72024D01*
X130003Y-72420D01*
X130003Y-74895D01*
X129970Y-74895D01*
X129908Y-74958D01*
X129908Y-75595D01*
X129916Y-75595D01*
X129916Y-75695D01*
X129908Y-75695D01*
X129908Y-75703D01*
X129808Y-75703D01*
X129808Y-75695D01*
X129800Y-75695D01*
X129800Y-75595D01*
X129808Y-75595D01*
X129808Y-74958D01*
X129745Y-74895D01*
X129712Y-74895D01*
X129712Y-71508D01*
X129760Y-71461D01*
X129824Y-71304D01*
X129825Y-71135D01*
X129760Y-70979D01*
X129641Y-70859D01*
X129484Y-70795D01*
X129315Y-70794D01*
X129159Y-70859D01*
X129039Y-70978D01*
X128975Y-71135D01*
X128974Y-71304D01*
X129039Y-71460D01*
X129112Y-71533D01*
X129112Y-74846D01*
X129070Y-74783D01*
X129070Y-74783D01*
X127505Y-73218D01*
X127505Y-73155D01*
X127440Y-72999D01*
X127321Y-72879D01*
X127164Y-72815D01*
X126995Y-72814D01*
X126839Y-72879D01*
X126719Y-72998D01*
X126655Y-73155D01*
X126654Y-73324D01*
X126719Y-73480D01*
X126838Y-73600D01*
X126995Y-73664D01*
X127103Y-73665D01*
X128396Y-74958D01*
X128358Y-74996D01*
X128295Y-74933D01*
X128203Y-74895D01*
X128104Y-74895D01*
X127513Y-74895D01*
X127421Y-74933D01*
X127358Y-74996D01*
X127295Y-74933D01*
X127203Y-74895D01*
X127104Y-74895D01*
X126513Y-74895D01*
X126421Y-74933D01*
X126358Y-74996D01*
X126295Y-74933D01*
X126203Y-74895D01*
X126104Y-74895D01*
X125970Y-74895D01*
X125908Y-74958D01*
X125908Y-75595D01*
X125916Y-75595D01*
X125916Y-75695D01*
X125908Y-75695D01*
X125908Y-76333D01*
X125970Y-76395D01*
X126104Y-76395D01*
X126203Y-76395D01*
X126295Y-76357D01*
X126358Y-76294D01*
X126421Y-76357D01*
X126513Y-76395D01*
X126612Y-76395D01*
X127203Y-76395D01*
X127294Y-76357D01*
X127358Y-76294D01*
X127421Y-76357D01*
X127513Y-76395D01*
X127612Y-76395D01*
X128203Y-76395D01*
X128294Y-76357D01*
X128358Y-76294D01*
X128421Y-76357D01*
X128513Y-76395D01*
X128612Y-76395D01*
X128701Y-76395D01*
X126538Y-78558D01*
X118456Y-78558D01*
X118541Y-78352D01*
X118541Y-78096D01*
X118444Y-77859D01*
X118263Y-77678D01*
X118026Y-77580D01*
X117770Y-77579D01*
X117533Y-77677D01*
X117352Y-77858D01*
X117254Y-78095D01*
X117254Y-78351D01*
X117339Y-78558D01*
X115597Y-78558D01*
X115602Y-78553D01*
X115682Y-78360D01*
X115682Y-78151D01*
X115602Y-77958D01*
X115455Y-77811D01*
X115322Y-77755D01*
X115454Y-77701D01*
X115602Y-77553D01*
X115682Y-77360D01*
X115682Y-77151D01*
X115602Y-76958D01*
X115455Y-76811D01*
X115262Y-76730D01*
X115053Y-76730D01*
X114860Y-76810D01*
X114712Y-76958D01*
X114632Y-77151D01*
X114632Y-77359D01*
X114712Y-77552D01*
X114717Y-77558D01*
X113325Y-77558D01*
X113307Y-77516D01*
X113149Y-77358D01*
X113307Y-77201D01*
X113399Y-76979D01*
X113399Y-76738D01*
X113307Y-76516D01*
X113149Y-76358D01*
X113307Y-76201D01*
X113399Y-75979D01*
X113399Y-75886D01*
X114020Y-76507D01*
X114020Y-76507D01*
X114117Y-76572D01*
X114232Y-76595D01*
X114232Y-76595D01*
X119858Y-76595D01*
X119973Y-76572D01*
X120070Y-76507D01*
X120135Y-76410D01*
X120138Y-76395D01*
X120203Y-76395D01*
X120294Y-76357D01*
X120358Y-76294D01*
X120421Y-76357D01*
X120513Y-76395D01*
X120612Y-76395D01*
X121203Y-76395D01*
X121294Y-76357D01*
X121358Y-76294D01*
X121421Y-76357D01*
X121513Y-76395D01*
X121612Y-76395D01*
X122203Y-76395D01*
X122294Y-76357D01*
X122358Y-76294D01*
X122421Y-76357D01*
X122513Y-76395D01*
X122612Y-76395D01*
X123192Y-76395D01*
X123287Y-76490D01*
X123287Y-76490D01*
X123381Y-76553D01*
X123492Y-76575D01*
X124858Y-76575D01*
X124969Y-76553D01*
X125063Y-76490D01*
X125126Y-76396D01*
X125126Y-76395D01*
X125203Y-76395D01*
X125294Y-76357D01*
X125358Y-76294D01*
X125421Y-76357D01*
X125513Y-76395D01*
X125612Y-76395D01*
X125745Y-76395D01*
X125808Y-76333D01*
X125808Y-75695D01*
X125800Y-75695D01*
X125800Y-75595D01*
X125808Y-75595D01*
X125808Y-74958D01*
X125745Y-74895D01*
X125612Y-74895D01*
X125513Y-74895D01*
X125421Y-74933D01*
X125358Y-74996D01*
X125295Y-74933D01*
X125203Y-74895D01*
X125104Y-74895D01*
X124513Y-74895D01*
X124421Y-74933D01*
X124358Y-74996D01*
X124295Y-74933D01*
X124203Y-74895D01*
X124126Y-74895D01*
X124126Y-74894D01*
X124063Y-74800D01*
X124063Y-74800D01*
X118916Y-69653D01*
X118821Y-69590D01*
X118710Y-69568D01*
X113329Y-69568D01*
X113307Y-69516D01*
X113149Y-69358D01*
X113307Y-69201D01*
X113325Y-69158D01*
X122514Y-69158D01*
X122514Y-69164D01*
X122579Y-69320D01*
X122698Y-69440D01*
X122855Y-69504D01*
X123024Y-69505D01*
X123180Y-69440D01*
X123300Y-69321D01*
X123364Y-69164D01*
X123365Y-68995D01*
X123300Y-68839D01*
X123181Y-68719D01*
X123024Y-68655D01*
X122941Y-68655D01*
X122933Y-68646D01*
X122835Y-68581D01*
X122720Y-68558D01*
X118541Y-68558D01*
X118541Y-67072D01*
X118444Y-66835D01*
X118263Y-66654D01*
X118026Y-66556D01*
X117770Y-66556D01*
X117533Y-66653D01*
X117352Y-66834D01*
X117254Y-67071D01*
X117254Y-67327D01*
X117352Y-67564D01*
X117532Y-67745D01*
X117769Y-67843D01*
X118025Y-67843D01*
X118262Y-67746D01*
X118443Y-67565D01*
X118541Y-67328D01*
X118541Y-67072D01*
X118541Y-68558D01*
X117880Y-68558D01*
X117924Y-68451D01*
X117925Y-68281D01*
X117860Y-68125D01*
X117741Y-68006D01*
X117584Y-67941D01*
X117470Y-67941D01*
X117413Y-67801D01*
X117293Y-67682D01*
X117237Y-67658D01*
X115862Y-66283D01*
X115866Y-66280D01*
X115904Y-66188D01*
X115904Y-65489D01*
X115866Y-65397D01*
X115848Y-65378D01*
X115848Y-65041D01*
X115551Y-64743D01*
X115254Y-65041D01*
X115278Y-65133D01*
X115475Y-65203D01*
X115683Y-65191D01*
X115823Y-65133D01*
X115848Y-65041D01*
X115848Y-65378D01*
X115796Y-65326D01*
X115704Y-65288D01*
X115604Y-65288D01*
X115466Y-65288D01*
X115404Y-65351D01*
X115404Y-65788D01*
X115841Y-65788D01*
X115904Y-65726D01*
X115904Y-65489D01*
X115904Y-66188D01*
X115904Y-65951D01*
X115841Y-65888D01*
X115404Y-65888D01*
X115404Y-65896D01*
X115304Y-65896D01*
X115304Y-65888D01*
X115304Y-65788D01*
X115304Y-65351D01*
X115241Y-65288D01*
X115103Y-65288D01*
X115004Y-65288D01*
X114912Y-65326D01*
X114842Y-65397D01*
X114804Y-65489D01*
X114804Y-65726D01*
X114866Y-65788D01*
X115304Y-65788D01*
X115304Y-65888D01*
X114866Y-65888D01*
X114804Y-65951D01*
X114804Y-66097D01*
X114667Y-66097D01*
X114667Y-65041D01*
X114370Y-64743D01*
X114072Y-65041D01*
X114097Y-65133D01*
X114294Y-65203D01*
X114502Y-65191D01*
X114642Y-65133D01*
X114667Y-65041D01*
X114667Y-66097D01*
X113350Y-66097D01*
X113399Y-65979D01*
X113399Y-65738D01*
X113307Y-65516D01*
X113149Y-65358D01*
X113307Y-65201D01*
X113399Y-64979D01*
X113399Y-64738D01*
X113310Y-64522D01*
X113866Y-64522D01*
X113840Y-64597D01*
X113851Y-64805D01*
X113909Y-64946D01*
X114002Y-64970D01*
X114299Y-64673D01*
X114293Y-64667D01*
X114364Y-64596D01*
X114370Y-64602D01*
X114375Y-64596D01*
X114446Y-64667D01*
X114440Y-64673D01*
X114737Y-64970D01*
X114830Y-64946D01*
X114899Y-64749D01*
X114888Y-64540D01*
X114881Y-64522D01*
X115047Y-64522D01*
X115021Y-64597D01*
X115032Y-64805D01*
X115090Y-64946D01*
X115183Y-64970D01*
X115480Y-64673D01*
X115474Y-64667D01*
X115545Y-64596D01*
X115551Y-64602D01*
X115556Y-64596D01*
X115627Y-64667D01*
X115621Y-64673D01*
X115918Y-64970D01*
X116011Y-64946D01*
X116081Y-64749D01*
X116069Y-64540D01*
X116062Y-64522D01*
X118980Y-64522D01*
X118980Y-64522D01*
X119095Y-64500D01*
X119095Y-64500D01*
X119192Y-64435D01*
X120190Y-63436D01*
X120300Y-63436D01*
X120456Y-63372D01*
X120576Y-63252D01*
X120641Y-63096D01*
X120641Y-62927D01*
X120577Y-62771D01*
X120457Y-62651D01*
X120301Y-62586D01*
X120132Y-62586D01*
X119976Y-62651D01*
X119856Y-62770D01*
X119791Y-62926D01*
X119791Y-62987D01*
X118856Y-63922D01*
X116015Y-63922D01*
X116076Y-63778D01*
X116076Y-63569D01*
X116018Y-63429D01*
X119029Y-63429D01*
X119140Y-63407D01*
X119234Y-63344D01*
X120146Y-62432D01*
X120261Y-62432D01*
X120417Y-62368D01*
X120537Y-62248D01*
X120602Y-62092D01*
X120602Y-61923D01*
X120537Y-61767D01*
X120418Y-61647D01*
X120262Y-61582D01*
X120092Y-61582D01*
X119936Y-61647D01*
X119817Y-61766D01*
X119752Y-61922D01*
X119752Y-62006D01*
X118909Y-62849D01*
X113942Y-62849D01*
X114394Y-62397D01*
X114440Y-62388D01*
X114440Y-62388D01*
X114491Y-62354D01*
X114592Y-62354D01*
X114748Y-62289D01*
X114867Y-62170D01*
X114932Y-62014D01*
X114932Y-61844D01*
X114868Y-61688D01*
X114748Y-61569D01*
X114596Y-61505D01*
X114596Y-57967D01*
X114586Y-57729D01*
X114514Y-57556D01*
X114414Y-57522D01*
X114062Y-57874D01*
X114414Y-58225D01*
X114514Y-58191D01*
X114596Y-57967D01*
X114596Y-61505D01*
X114592Y-61504D01*
X114423Y-61504D01*
X114329Y-61543D01*
X114276Y-61490D01*
X114120Y-61425D01*
X113951Y-61425D01*
X113795Y-61489D01*
X113675Y-61609D01*
X113610Y-61765D01*
X113610Y-61851D01*
X113567Y-61894D01*
X113562Y-61901D01*
X111008Y-64455D01*
X110857Y-64455D01*
X110772Y-64490D01*
X110957Y-64305D01*
X111019Y-64211D01*
X111041Y-64100D01*
X111041Y-62378D01*
X111138Y-62314D01*
X111251Y-62144D01*
X111365Y-62314D01*
X111542Y-62432D01*
X111751Y-62474D01*
X111961Y-62432D01*
X112138Y-62314D01*
X112256Y-62136D01*
X112298Y-61927D01*
X112298Y-61300D01*
X112256Y-61091D01*
X112216Y-61031D01*
X112298Y-60976D01*
X113913Y-59361D01*
X114060Y-59362D01*
X114216Y-59297D01*
X114336Y-59178D01*
X114401Y-59021D01*
X114401Y-58852D01*
X114343Y-58712D01*
X114343Y-58296D01*
X113992Y-57944D01*
X113640Y-58296D01*
X113674Y-58396D01*
X113898Y-58478D01*
X114136Y-58468D01*
X114310Y-58396D01*
X114343Y-58296D01*
X114343Y-58712D01*
X114336Y-58696D01*
X114217Y-58576D01*
X114061Y-58512D01*
X113892Y-58511D01*
X113735Y-58576D01*
X113616Y-58695D01*
X113551Y-58852D01*
X113551Y-58903D01*
X111973Y-60481D01*
X111089Y-60481D01*
X113442Y-58127D01*
X113469Y-58191D01*
X113570Y-58225D01*
X113921Y-57874D01*
X113915Y-57868D01*
X113986Y-57797D01*
X113992Y-57803D01*
X114343Y-57451D01*
X114320Y-57382D01*
X114375Y-57327D01*
X114440Y-57171D01*
X114440Y-57002D01*
X114376Y-56846D01*
X114256Y-56726D01*
X114100Y-56661D01*
X113931Y-56661D01*
X113775Y-56726D01*
X113655Y-56845D01*
X113590Y-57001D01*
X113590Y-57132D01*
X113589Y-57133D01*
X113583Y-57167D01*
X112592Y-58158D01*
X112592Y-57474D01*
X112554Y-57382D01*
X112483Y-57312D01*
X112392Y-57274D01*
X112292Y-57273D01*
X112094Y-57273D01*
X112175Y-57193D01*
X112972Y-57193D01*
X112972Y-57193D01*
X113087Y-57170D01*
X113087Y-57170D01*
X113184Y-57105D01*
X113785Y-56504D01*
X113793Y-56507D01*
X113962Y-56507D01*
X114118Y-56443D01*
X114238Y-56323D01*
X114302Y-56167D01*
X114303Y-55998D01*
X114238Y-55842D01*
X114119Y-55722D01*
X113962Y-55657D01*
X113793Y-55657D01*
X113637Y-55722D01*
X113517Y-55841D01*
X113459Y-55981D01*
X112848Y-56593D01*
X112051Y-56593D01*
X111936Y-56615D01*
X111839Y-56680D01*
X108039Y-60480D01*
X107974Y-60577D01*
X107951Y-60692D01*
X107951Y-60813D01*
X107914Y-60793D01*
X107886Y-60787D01*
X107801Y-60835D01*
X107801Y-61564D01*
X107809Y-61564D01*
X107809Y-61664D01*
X107801Y-61664D01*
X107801Y-62392D01*
X107886Y-62440D01*
X107914Y-62435D01*
X107951Y-62415D01*
X107951Y-63277D01*
X107701Y-63527D01*
X107701Y-62392D01*
X107701Y-61664D01*
X107298Y-61664D01*
X107205Y-61664D01*
X106801Y-61664D01*
X106801Y-62392D01*
X106886Y-62440D01*
X106914Y-62435D01*
X107103Y-62332D01*
X107237Y-62166D01*
X107251Y-62118D01*
X107266Y-62166D01*
X107400Y-62332D01*
X107589Y-62435D01*
X107617Y-62440D01*
X107701Y-62392D01*
X107701Y-63527D01*
X106957Y-64271D01*
X106916Y-64254D01*
X106675Y-64253D01*
X106453Y-64345D01*
X106390Y-64408D01*
X106390Y-62320D01*
X106400Y-62332D01*
X106589Y-62435D01*
X106617Y-62440D01*
X106701Y-62392D01*
X106701Y-61664D01*
X106694Y-61664D01*
X106694Y-61564D01*
X106701Y-61564D01*
X106701Y-61556D01*
X106801Y-61556D01*
X106801Y-61564D01*
X107205Y-61564D01*
X107298Y-61564D01*
X107701Y-61564D01*
X107701Y-60835D01*
X107617Y-60787D01*
X107589Y-60793D01*
X107400Y-60895D01*
X107266Y-61061D01*
X107251Y-61109D01*
X107237Y-61061D01*
X107103Y-60895D01*
X107014Y-60847D01*
X115224Y-52636D01*
X115224Y-52636D01*
X115233Y-52630D01*
X115459Y-52404D01*
X115544Y-52405D01*
X115700Y-52340D01*
X115820Y-52221D01*
X115884Y-52064D01*
X115885Y-51895D01*
X115820Y-51739D01*
X115701Y-51619D01*
X115544Y-51555D01*
X115375Y-51554D01*
X115219Y-51619D01*
X115099Y-51738D01*
X115035Y-51895D01*
X115034Y-51980D01*
X114815Y-52200D01*
X114815Y-52200D01*
X114806Y-52206D01*
X111463Y-55549D01*
X111463Y-37552D01*
X111462Y-37077D01*
X111281Y-36642D01*
X111119Y-36536D01*
X111048Y-36606D01*
X110338Y-37317D01*
X111119Y-38098D01*
X111281Y-37992D01*
X111463Y-37552D01*
X111463Y-55549D01*
X111048Y-55963D01*
X111048Y-38169D01*
X110267Y-37388D01*
X110262Y-37393D01*
X110197Y-37328D01*
X110191Y-37322D01*
X110197Y-37317D01*
X110191Y-37311D01*
X110262Y-37241D01*
X110267Y-37246D01*
X111048Y-36465D01*
X110942Y-36303D01*
X110503Y-36121D01*
X110027Y-36122D01*
X109592Y-36303D01*
X109486Y-36465D01*
X109462Y-36441D01*
X109462Y-36177D01*
X109281Y-35742D01*
X109119Y-35636D01*
X109048Y-35706D01*
X109048Y-35565D01*
X108942Y-35403D01*
X108503Y-35221D01*
X108027Y-35222D01*
X107592Y-35403D01*
X107486Y-35565D01*
X108267Y-36346D01*
X109048Y-35565D01*
X109048Y-35706D01*
X108338Y-36417D01*
X108343Y-36422D01*
X108273Y-36493D01*
X108267Y-36488D01*
X108197Y-36558D01*
X108197Y-36417D01*
X107415Y-35636D01*
X107253Y-35742D01*
X107072Y-36181D01*
X107073Y-36657D01*
X107253Y-37092D01*
X107415Y-37198D01*
X108197Y-36417D01*
X108197Y-36558D01*
X107486Y-37269D01*
X107592Y-37431D01*
X108032Y-37612D01*
X108507Y-37611D01*
X108942Y-37431D01*
X109048Y-37269D01*
X109048Y-37269D01*
X109072Y-37292D01*
X109073Y-37557D01*
X109100Y-37622D01*
X109048Y-37622D01*
X107273Y-37622D01*
X107181Y-37660D01*
X107110Y-37730D01*
X107072Y-37822D01*
X107072Y-37921D01*
X107072Y-39811D01*
X107110Y-39903D01*
X107180Y-39974D01*
X107272Y-40012D01*
X107372Y-40012D01*
X109262Y-40012D01*
X109354Y-39974D01*
X109424Y-39904D01*
X109462Y-39812D01*
X109462Y-39712D01*
X109462Y-38192D01*
X109486Y-38169D01*
X109592Y-38331D01*
X110032Y-38512D01*
X110507Y-38511D01*
X110942Y-38331D01*
X111048Y-38169D01*
X111048Y-55963D01*
X108116Y-58896D01*
X108116Y-46335D01*
X108116Y-45154D01*
X108105Y-44945D01*
X108047Y-44805D01*
X107954Y-44781D01*
X107887Y-44848D01*
X107887Y-43613D01*
X107883Y-43507D01*
X107883Y-41820D01*
X107883Y-41120D01*
X107845Y-41028D01*
X107775Y-40957D01*
X107683Y-40919D01*
X107583Y-40919D01*
X106883Y-40919D01*
X106792Y-40957D01*
X106721Y-41027D01*
X106683Y-41119D01*
X106683Y-41219D01*
X106683Y-41919D01*
X106721Y-42011D01*
X106791Y-42081D01*
X106883Y-42119D01*
X106982Y-42119D01*
X107682Y-42119D01*
X107774Y-42081D01*
X107845Y-42011D01*
X107883Y-41919D01*
X107883Y-41820D01*
X107883Y-43507D01*
X107877Y-43374D01*
X107806Y-43201D01*
X107705Y-43168D01*
X107634Y-43238D01*
X107634Y-43097D01*
X107601Y-42997D01*
X107377Y-42915D01*
X107138Y-42925D01*
X106965Y-42997D01*
X106932Y-43097D01*
X107283Y-43448D01*
X107634Y-43097D01*
X107634Y-43238D01*
X107354Y-43519D01*
X107705Y-43871D01*
X107806Y-43837D01*
X107887Y-43613D01*
X107887Y-44848D01*
X107883Y-44852D01*
X107883Y-44710D01*
X107859Y-44618D01*
X107662Y-44548D01*
X107634Y-44550D01*
X107634Y-43941D01*
X107283Y-43590D01*
X107212Y-43661D01*
X107212Y-43519D01*
X106861Y-43168D01*
X106760Y-43201D01*
X106678Y-43425D01*
X106689Y-43664D01*
X106760Y-43837D01*
X106861Y-43871D01*
X107212Y-43519D01*
X107212Y-43661D01*
X106932Y-43941D01*
X106965Y-44042D01*
X107189Y-44124D01*
X107428Y-44114D01*
X107601Y-44042D01*
X107634Y-43941D01*
X107634Y-44550D01*
X107453Y-44560D01*
X107313Y-44618D01*
X107289Y-44710D01*
X107586Y-45008D01*
X107883Y-44710D01*
X107883Y-44852D01*
X107657Y-45078D01*
X107954Y-45375D01*
X108047Y-45351D01*
X108116Y-45154D01*
X108116Y-46335D01*
X108105Y-46127D01*
X108047Y-45987D01*
X107954Y-45962D01*
X107883Y-46033D01*
X107883Y-45892D01*
X107883Y-45446D01*
X107586Y-45149D01*
X107515Y-45220D01*
X107515Y-45078D01*
X107218Y-44781D01*
X107126Y-44805D01*
X107087Y-44915D01*
X107031Y-44781D01*
X106884Y-44633D01*
X106691Y-44553D01*
X106482Y-44553D01*
X106289Y-44633D01*
X106141Y-44780D01*
X106061Y-44973D01*
X106061Y-45182D01*
X106141Y-45375D01*
X106288Y-45523D01*
X106481Y-45603D01*
X106690Y-45603D01*
X106883Y-45524D01*
X107031Y-45376D01*
X107083Y-45249D01*
X107126Y-45351D01*
X107218Y-45375D01*
X107515Y-45078D01*
X107515Y-45220D01*
X107289Y-45446D01*
X107313Y-45539D01*
X107510Y-45608D01*
X107719Y-45597D01*
X107859Y-45539D01*
X107883Y-45446D01*
X107883Y-45892D01*
X107859Y-45799D01*
X107662Y-45729D01*
X107453Y-45741D01*
X107313Y-45799D01*
X107289Y-45892D01*
X107586Y-46189D01*
X107883Y-45892D01*
X107883Y-46033D01*
X107657Y-46259D01*
X107954Y-46556D01*
X108047Y-46532D01*
X108116Y-46335D01*
X108116Y-58896D01*
X107919Y-59093D01*
X107919Y-57359D01*
X107919Y-56178D01*
X107908Y-55969D01*
X107887Y-55920D01*
X107887Y-52637D01*
X107883Y-52535D01*
X107883Y-46627D01*
X107586Y-46330D01*
X107515Y-46401D01*
X107515Y-46259D01*
X107218Y-45962D01*
X107126Y-45987D01*
X107087Y-46096D01*
X107031Y-45962D01*
X106884Y-45815D01*
X106691Y-45734D01*
X106482Y-45734D01*
X106289Y-45814D01*
X106141Y-45962D01*
X106061Y-46154D01*
X106061Y-46363D01*
X106141Y-46556D01*
X106288Y-46704D01*
X106481Y-46784D01*
X106690Y-46784D01*
X106883Y-46705D01*
X107031Y-46557D01*
X107083Y-46431D01*
X107126Y-46532D01*
X107218Y-46556D01*
X107515Y-46259D01*
X107515Y-46401D01*
X107289Y-46627D01*
X107313Y-46720D01*
X107510Y-46789D01*
X107719Y-46778D01*
X107859Y-46720D01*
X107883Y-46627D01*
X107883Y-52535D01*
X107877Y-52398D01*
X107806Y-52225D01*
X107705Y-52191D01*
X107691Y-52206D01*
X107691Y-49306D01*
X107686Y-49202D01*
X107686Y-48093D01*
X107595Y-47873D01*
X107426Y-47704D01*
X107206Y-47612D01*
X106967Y-47612D01*
X106747Y-47703D01*
X106578Y-47872D01*
X106486Y-48092D01*
X106486Y-48331D01*
X106577Y-48552D01*
X106746Y-48720D01*
X106756Y-48725D01*
X106735Y-48790D01*
X107086Y-49141D01*
X107438Y-48790D01*
X107416Y-48725D01*
X107426Y-48721D01*
X107594Y-48552D01*
X107686Y-48332D01*
X107686Y-48093D01*
X107686Y-49202D01*
X107680Y-49067D01*
X107609Y-48894D01*
X107508Y-48861D01*
X107157Y-49212D01*
X107162Y-49218D01*
X107092Y-49288D01*
X107086Y-49283D01*
X107081Y-49288D01*
X107015Y-49223D01*
X107010Y-49218D01*
X107015Y-49212D01*
X106664Y-48861D01*
X106563Y-48894D01*
X106482Y-49118D01*
X106492Y-49357D01*
X106563Y-49530D01*
X106664Y-49564D01*
X106619Y-49609D01*
X106641Y-49631D01*
X106595Y-49650D01*
X106524Y-49720D01*
X106486Y-49812D01*
X106486Y-49912D01*
X106486Y-50612D01*
X106524Y-50704D01*
X106594Y-50774D01*
X106686Y-50812D01*
X106786Y-50812D01*
X107486Y-50812D01*
X107578Y-50774D01*
X107648Y-50704D01*
X107686Y-50612D01*
X107686Y-50513D01*
X107686Y-49813D01*
X107648Y-49721D01*
X107578Y-49650D01*
X107531Y-49631D01*
X107553Y-49609D01*
X107508Y-49564D01*
X107609Y-49530D01*
X107691Y-49306D01*
X107691Y-52206D01*
X107686Y-52210D01*
X107634Y-52262D01*
X107634Y-52121D01*
X107601Y-52020D01*
X107377Y-51938D01*
X107138Y-51948D01*
X106965Y-52020D01*
X106932Y-52121D01*
X107283Y-52472D01*
X107634Y-52121D01*
X107634Y-52262D01*
X107354Y-52543D01*
X107705Y-52894D01*
X107806Y-52861D01*
X107887Y-52637D01*
X107887Y-55920D01*
X107883Y-55909D01*
X107883Y-54843D01*
X107883Y-54143D01*
X107845Y-54051D01*
X107775Y-53981D01*
X107683Y-53943D01*
X107634Y-53943D01*
X107634Y-52965D01*
X107283Y-52614D01*
X107212Y-52684D01*
X107212Y-52543D01*
X106861Y-52191D01*
X106760Y-52225D01*
X106678Y-52449D01*
X106689Y-52688D01*
X106760Y-52861D01*
X106861Y-52894D01*
X107212Y-52543D01*
X107212Y-52684D01*
X106932Y-52965D01*
X106965Y-53065D01*
X107189Y-53147D01*
X107428Y-53137D01*
X107601Y-53065D01*
X107634Y-52965D01*
X107634Y-53943D01*
X107583Y-53943D01*
X106883Y-53943D01*
X106792Y-53981D01*
X106721Y-54051D01*
X106683Y-54143D01*
X106683Y-54242D01*
X106683Y-54942D01*
X106721Y-55034D01*
X106791Y-55105D01*
X106883Y-55143D01*
X106982Y-55143D01*
X107682Y-55143D01*
X107774Y-55105D01*
X107845Y-55035D01*
X107883Y-54943D01*
X107883Y-54843D01*
X107883Y-55909D01*
X107850Y-55829D01*
X107757Y-55805D01*
X107686Y-55875D01*
X107686Y-55734D01*
X107662Y-55641D01*
X107465Y-55572D01*
X107257Y-55583D01*
X107116Y-55641D01*
X107092Y-55734D01*
X107389Y-56031D01*
X107686Y-55734D01*
X107686Y-55875D01*
X107460Y-56102D01*
X107757Y-56399D01*
X107850Y-56375D01*
X107919Y-56178D01*
X107919Y-57359D01*
X107908Y-57150D01*
X107850Y-57010D01*
X107757Y-56986D01*
X107686Y-57057D01*
X107686Y-56915D01*
X107686Y-56470D01*
X107389Y-56173D01*
X107319Y-56243D01*
X107319Y-56102D01*
X107021Y-55805D01*
X106929Y-55829D01*
X106890Y-55939D01*
X106835Y-55805D01*
X106687Y-55657D01*
X106494Y-55577D01*
X106285Y-55577D01*
X106092Y-55657D01*
X105944Y-55804D01*
X105864Y-55997D01*
X105864Y-56206D01*
X105944Y-56399D01*
X106091Y-56547D01*
X106284Y-56627D01*
X106493Y-56627D01*
X106686Y-56547D01*
X106834Y-56400D01*
X106887Y-56273D01*
X106929Y-56375D01*
X107021Y-56399D01*
X107319Y-56102D01*
X107319Y-56243D01*
X107092Y-56470D01*
X107116Y-56562D01*
X107313Y-56632D01*
X107522Y-56620D01*
X107662Y-56562D01*
X107686Y-56470D01*
X107686Y-56915D01*
X107662Y-56822D01*
X107465Y-56753D01*
X107257Y-56764D01*
X107116Y-56822D01*
X107092Y-56915D01*
X107389Y-57212D01*
X107686Y-56915D01*
X107686Y-57057D01*
X107460Y-57283D01*
X107757Y-57580D01*
X107850Y-57556D01*
X107919Y-57359D01*
X107919Y-59093D01*
X107686Y-59325D01*
X107686Y-57651D01*
X107389Y-57354D01*
X107319Y-57424D01*
X107319Y-57283D01*
X107021Y-56986D01*
X106929Y-57010D01*
X106890Y-57120D01*
X106835Y-56986D01*
X106687Y-56838D01*
X106494Y-56758D01*
X106285Y-56758D01*
X106092Y-56838D01*
X105944Y-56985D01*
X105864Y-57178D01*
X105864Y-57387D01*
X105944Y-57580D01*
X106091Y-57728D01*
X106284Y-57808D01*
X106493Y-57808D01*
X106686Y-57728D01*
X106834Y-57581D01*
X106887Y-57454D01*
X106929Y-57556D01*
X107021Y-57580D01*
X107319Y-57283D01*
X107319Y-57424D01*
X107092Y-57651D01*
X107116Y-57744D01*
X107313Y-57813D01*
X107522Y-57802D01*
X107662Y-57744D01*
X107686Y-57651D01*
X107686Y-59325D01*
X105878Y-61134D01*
X105813Y-61231D01*
X105790Y-61346D01*
X105790Y-75153D01*
X105813Y-75268D01*
X105878Y-75365D01*
X106208Y-75695D01*
X106191Y-75737D01*
X106190Y-75977D01*
X106282Y-76200D01*
X106301Y-76219D01*
X106084Y-76436D01*
X106021Y-76530D01*
X105999Y-76641D01*
X105999Y-80352D01*
X106021Y-80463D01*
X106084Y-80557D01*
X106212Y-80685D01*
X106191Y-80737D01*
X106190Y-80977D01*
X106282Y-81200D01*
X106440Y-81358D01*
X106283Y-81515D01*
X106191Y-81737D01*
X106190Y-81977D01*
X106282Y-82200D01*
X106452Y-82370D01*
X106460Y-82373D01*
X106440Y-82433D01*
X106795Y-82787D01*
X107149Y-82433D01*
X107129Y-82373D01*
X107137Y-82370D01*
X107307Y-82201D01*
X107399Y-81979D01*
X107399Y-81738D01*
X107307Y-81516D01*
X107149Y-81358D01*
X107307Y-81201D01*
X107399Y-80979D01*
X107399Y-80738D01*
X107307Y-80516D01*
X107149Y-80358D01*
X107307Y-80201D01*
X107399Y-79979D01*
X107399Y-79738D01*
X107377Y-79685D01*
X110000Y-77063D01*
X110000Y-77063D01*
X110000Y-77063D01*
X110063Y-76969D01*
X110085Y-76858D01*
X110085Y-76858D01*
X110085Y-76858D01*
X110085Y-71277D01*
X112247Y-69115D01*
X112282Y-69200D01*
X112440Y-69358D01*
X112283Y-69515D01*
X112191Y-69737D01*
X112190Y-69977D01*
X112282Y-70200D01*
X112440Y-70358D01*
X112283Y-70515D01*
X112191Y-70737D01*
X112190Y-70977D01*
X112282Y-71200D01*
X112440Y-71358D01*
X112283Y-71515D01*
X112191Y-71737D01*
X112190Y-71977D01*
X112282Y-72200D01*
X112440Y-72358D01*
X112283Y-72515D01*
X112191Y-72737D01*
X112190Y-72977D01*
X112282Y-73200D01*
X112440Y-73358D01*
X112283Y-73515D01*
X112191Y-73737D01*
X112190Y-73977D01*
X112282Y-74200D01*
X112440Y-74358D01*
X112283Y-74515D01*
X112191Y-74737D01*
X112190Y-74977D01*
X112282Y-75200D01*
X112440Y-75358D01*
X112283Y-75515D01*
X112191Y-75737D01*
X112190Y-75977D01*
X112282Y-76200D01*
X112440Y-76358D01*
X112283Y-76515D01*
X112191Y-76737D01*
X112190Y-76977D01*
X112282Y-77200D01*
X112440Y-77358D01*
X112283Y-77515D01*
X112191Y-77737D01*
X112190Y-77977D01*
X112282Y-78200D01*
X112440Y-78358D01*
X112283Y-78515D01*
X112191Y-78737D01*
X112190Y-78977D01*
X112282Y-79200D01*
X112440Y-79358D01*
X112283Y-79515D01*
X112191Y-79737D01*
X112190Y-79977D01*
X112282Y-80200D01*
X112440Y-80358D01*
X112283Y-80515D01*
X112191Y-80737D01*
X112190Y-80977D01*
X112282Y-81200D01*
X112440Y-81358D01*
X112283Y-81515D01*
X112191Y-81737D01*
X112190Y-81977D01*
X112282Y-82200D01*
X112440Y-82358D01*
X112283Y-82515D01*
X112191Y-82737D01*
X112190Y-82977D01*
X112282Y-83200D01*
X112440Y-83358D01*
X112283Y-83515D01*
X112191Y-83737D01*
X112190Y-83977D01*
X112282Y-84200D01*
X112452Y-84370D01*
X112674Y-84462D01*
X112914Y-84462D01*
X113137Y-84370D01*
X113307Y-84201D01*
X113320Y-84168D01*
X113673Y-84168D01*
X113791Y-84144D01*
X113892Y-84077D01*
X114940Y-83029D01*
X114941Y-83030D01*
X115160Y-83030D01*
X115162Y-83029D01*
X115357Y-83224D01*
X115457Y-83291D01*
X115576Y-83315D01*
X115641Y-83315D01*
X115638Y-83318D01*
X115683Y-83364D01*
X115590Y-83388D01*
X115551Y-83498D01*
X115496Y-83364D01*
X115348Y-83216D01*
X115156Y-83136D01*
X114947Y-83136D01*
X114754Y-83216D01*
X114606Y-83363D01*
X114526Y-83556D01*
X114526Y-83765D01*
X114605Y-83958D01*
X114741Y-84093D01*
X114741Y-84410D01*
X114606Y-84544D01*
X114526Y-84737D01*
X114526Y-84946D01*
X114605Y-85139D01*
X114753Y-85287D01*
X114946Y-85367D01*
X115155Y-85367D01*
X115348Y-85287D01*
X115495Y-85140D01*
X115548Y-85013D01*
X115590Y-85115D01*
X115683Y-85139D01*
X115980Y-84842D01*
X115683Y-84545D01*
X115590Y-84569D01*
X115551Y-84679D01*
X115496Y-84545D01*
X115361Y-84409D01*
X115361Y-84093D01*
X115495Y-83959D01*
X115548Y-83832D01*
X115590Y-83934D01*
X115683Y-83958D01*
X115980Y-83661D01*
X115974Y-83655D01*
X116045Y-83585D01*
X116051Y-83590D01*
X116056Y-83585D01*
X116127Y-83655D01*
X116121Y-83661D01*
X116418Y-83958D01*
X116511Y-83934D01*
X116514Y-83925D01*
X118114Y-85525D01*
X118215Y-85592D01*
X118333Y-85615D01*
X135281Y-85615D01*
X135399Y-85592D01*
X135500Y-85525D01*
X135520Y-85505D01*
X135566Y-85551D01*
X135657Y-85589D01*
X135757Y-85589D01*
X136357Y-85589D01*
X136449Y-85551D01*
X136519Y-85481D01*
X136557Y-85389D01*
X136557Y-85367D01*
X136695Y-85505D01*
X136897Y-85589D01*
X137116Y-85589D01*
X137319Y-85505D01*
X137473Y-85351D01*
X137507Y-85269D01*
X137541Y-85350D01*
X137695Y-85505D01*
X137897Y-85589D01*
X138116Y-85589D01*
X138319Y-85505D01*
X138473Y-85351D01*
X138557Y-85149D01*
X138557Y-84930D01*
X138557Y-86344D01*
X116581Y-86344D01*
X116581Y-84918D01*
X116569Y-84709D01*
X116511Y-84569D01*
X116418Y-84545D01*
X116348Y-84616D01*
X116348Y-84474D01*
X116348Y-84029D01*
X116051Y-83732D01*
X115754Y-84029D01*
X115778Y-84121D01*
X115975Y-84191D01*
X116183Y-84179D01*
X116323Y-84121D01*
X116348Y-84029D01*
X116348Y-84474D01*
X116323Y-84381D01*
X116126Y-84312D01*
X115918Y-84323D01*
X115778Y-84381D01*
X115754Y-84474D01*
X116051Y-84771D01*
X116348Y-84474D01*
X116348Y-84616D01*
X116121Y-84842D01*
X116418Y-85139D01*
X116511Y-85115D01*
X116581Y-84918D01*
X116581Y-86344D01*
X116348Y-86344D01*
X116348Y-85210D01*
X116051Y-84913D01*
X115980Y-84983D01*
X115754Y-85210D01*
X115778Y-85303D01*
X115975Y-85372D01*
X116183Y-85361D01*
X116323Y-85303D01*
X116348Y-85210D01*
X116348Y-86344D01*
X106945Y-86344D01*
X107224Y-86229D01*
X107488Y-85965D01*
X107631Y-85620D01*
X107632Y-85247D01*
X107489Y-84901D01*
X107404Y-84816D01*
X107404Y-82953D01*
X107394Y-82712D01*
X107321Y-82537D01*
X107220Y-82503D01*
X106865Y-82858D01*
X107220Y-83212D01*
X107321Y-83178D01*
X107404Y-82953D01*
X107404Y-84816D01*
X107399Y-84812D01*
X107399Y-83738D01*
X107307Y-83516D01*
X107138Y-83346D01*
X107129Y-83342D01*
X107149Y-83283D01*
X106795Y-82928D01*
X106724Y-82999D01*
X106724Y-82858D01*
X106370Y-82503D01*
X106269Y-82537D01*
X106186Y-82763D01*
X106196Y-83003D01*
X106269Y-83178D01*
X106370Y-83212D01*
X106724Y-82858D01*
X106724Y-82999D01*
X106440Y-83283D01*
X106460Y-83342D01*
X106453Y-83345D01*
X106283Y-83515D01*
X106191Y-83737D01*
X106190Y-83977D01*
X106282Y-84200D01*
X106452Y-84370D01*
X106674Y-84462D01*
X106914Y-84462D01*
X107137Y-84370D01*
X107307Y-84201D01*
X107399Y-83979D01*
X107399Y-83738D01*
X107399Y-84812D01*
X107225Y-84637D01*
X106880Y-84494D01*
X106506Y-84493D01*
X106161Y-84636D01*
X105897Y-84900D01*
X105754Y-85245D01*
X105753Y-85619D01*
X105896Y-85964D01*
X106160Y-86228D01*
X106439Y-86344D01*
X105584Y-86344D01*
X105584Y-33734D01*
X113959Y-33734D01*
X113753Y-33819D01*
X113544Y-34027D01*
X113431Y-34300D01*
X113430Y-34595D01*
X113543Y-34868D01*
X113752Y-35077D01*
X114024Y-35190D01*
X114320Y-35191D01*
X114593Y-35078D01*
X114802Y-34869D01*
X114915Y-34597D01*
X114915Y-34301D01*
X114802Y-34028D01*
X114594Y-33820D01*
X114387Y-33734D01*
X117896Y-33734D01*
X117690Y-33819D01*
X117481Y-34027D01*
X117368Y-34300D01*
X117367Y-34595D01*
X117480Y-34868D01*
X117689Y-35077D01*
X117961Y-35190D01*
X118257Y-35191D01*
X118530Y-35078D01*
X118739Y-34869D01*
X118852Y-34597D01*
X118852Y-34301D01*
X118739Y-34028D01*
X118531Y-33820D01*
X118324Y-33734D01*
X123801Y-33734D01*
X123595Y-33819D01*
X123386Y-34027D01*
X123273Y-34300D01*
X123273Y-34595D01*
X123386Y-34868D01*
X123594Y-35077D01*
X123867Y-35190D01*
X124162Y-35191D01*
X124435Y-35078D01*
X124644Y-34869D01*
X124757Y-34597D01*
X124758Y-34301D01*
X124645Y-34028D01*
X124436Y-33820D01*
X124230Y-33734D01*
X127738Y-33734D01*
X127532Y-33819D01*
X127323Y-34027D01*
X127210Y-34300D01*
X127210Y-34595D01*
X127323Y-34868D01*
X127531Y-35077D01*
X127804Y-35190D01*
X128099Y-35191D01*
X128372Y-35078D01*
X128581Y-34869D01*
X128694Y-34597D01*
X128695Y-34301D01*
X128582Y-34028D01*
X128373Y-33820D01*
X128167Y-33734D01*
X132296Y-33734D01*
X132256Y-33773D01*
X132181Y-33956D01*
X132181Y-34153D01*
X132256Y-34335D01*
X132395Y-34475D01*
X132568Y-34547D01*
X132396Y-34618D01*
X132256Y-34758D01*
X132181Y-34940D01*
X132181Y-35137D01*
X132256Y-35320D01*
X132395Y-35459D01*
X132578Y-35535D01*
X132775Y-35535D01*
X132957Y-35460D01*
X133097Y-35320D01*
X133173Y-35138D01*
X133173Y-34941D01*
X133097Y-34758D01*
X132958Y-34619D01*
X132785Y-34547D01*
X132957Y-34475D01*
X133097Y-34336D01*
X133173Y-34154D01*
X133173Y-33956D01*
X133097Y-33774D01*
X133057Y-33734D01*
X136233Y-33734D01*
X136193Y-33773D01*
X136118Y-33956D01*
X136118Y-34153D01*
X136193Y-34335D01*
X136332Y-34475D01*
X136505Y-34547D01*
X136333Y-34618D01*
X136193Y-34758D01*
X136118Y-34940D01*
X136118Y-35137D01*
X136193Y-35320D01*
X136332Y-35459D01*
X136515Y-35535D01*
X136712Y-35535D01*
X136894Y-35460D01*
X137034Y-35320D01*
X137110Y-35138D01*
X137110Y-34941D01*
X137034Y-34758D01*
X136895Y-34619D01*
X136722Y-34547D01*
X136894Y-34475D01*
X137034Y-34336D01*
X137110Y-34154D01*
X137110Y-33956D01*
X137034Y-33774D01*
X136994Y-33734D01*
X139494Y-33734D01*
X139494Y-86344D01*
X139494Y-86344D01*
G37*
G54D31*
X139494Y-86344D02*
X139128Y-86344D01*
X139128Y-82491D01*
X139128Y-35247D01*
X138985Y-34901D01*
X138721Y-34637D01*
X138376Y-34494D01*
X138003Y-34493D01*
X137657Y-34636D01*
X137393Y-34900D01*
X137250Y-35245D01*
X137249Y-35619D01*
X137392Y-35964D01*
X137656Y-36228D01*
X138001Y-36371D01*
X138374Y-36372D01*
X138720Y-36229D01*
X138984Y-35965D01*
X139127Y-35620D01*
X139128Y-35247D01*
X139128Y-82491D01*
X138985Y-82145D01*
X138721Y-81881D01*
X138376Y-81738D01*
X138003Y-81738D01*
X137657Y-81880D01*
X137393Y-82144D01*
X137250Y-82489D01*
X137249Y-82863D01*
X137392Y-83208D01*
X137656Y-83472D01*
X138001Y-83615D01*
X138374Y-83616D01*
X138720Y-83473D01*
X138984Y-83209D01*
X139127Y-82864D01*
X139128Y-82491D01*
X139128Y-86344D01*
X138557Y-86344D01*
X138557Y-84930D01*
X138474Y-84728D01*
X138319Y-84573D01*
X138117Y-84489D01*
X137898Y-84489D01*
X137886Y-84494D01*
X137176Y-83783D01*
X137078Y-83718D01*
X136964Y-83695D01*
X132858Y-83695D01*
X132743Y-83718D01*
X132646Y-83783D01*
X132581Y-83880D01*
X132578Y-83895D01*
X132513Y-83895D01*
X132421Y-83933D01*
X132358Y-83996D01*
X132295Y-83933D01*
X132203Y-83895D01*
X132104Y-83895D01*
X131513Y-83895D01*
X131421Y-83933D01*
X131358Y-83996D01*
X131295Y-83933D01*
X131203Y-83895D01*
X131150Y-83895D01*
X131144Y-83866D01*
X131077Y-83766D01*
X129109Y-81798D01*
X129008Y-81731D01*
X128890Y-81707D01*
X113635Y-81707D01*
X113635Y-81707D01*
X113612Y-81712D01*
X113517Y-81731D01*
X113416Y-81798D01*
X113416Y-81798D01*
X113399Y-81815D01*
X113399Y-81738D01*
X113307Y-81516D01*
X113149Y-81358D01*
X113307Y-81201D01*
X113312Y-81189D01*
X125461Y-81189D01*
X125461Y-81189D01*
X125576Y-81166D01*
X125576Y-81166D01*
X125674Y-81101D01*
X128320Y-78454D01*
X128375Y-78587D01*
X128556Y-78769D01*
X128793Y-78867D01*
X129049Y-78867D01*
X129285Y-78769D01*
X129467Y-78588D01*
X129565Y-78352D01*
X129565Y-78096D01*
X129467Y-77859D01*
X129286Y-77678D01*
X129152Y-77622D01*
X129189Y-77585D01*
X130229Y-77585D01*
X130229Y-77585D01*
X130344Y-77562D01*
X130344Y-77562D01*
X130441Y-77497D01*
X131544Y-76395D01*
X131612Y-76395D01*
X132203Y-76395D01*
X132294Y-76357D01*
X132358Y-76294D01*
X132421Y-76357D01*
X132513Y-76395D01*
X132612Y-76395D01*
X133203Y-76395D01*
X133294Y-76357D01*
X133358Y-76294D01*
X133421Y-76357D01*
X133513Y-76395D01*
X133612Y-76395D01*
X134203Y-76395D01*
X134294Y-76357D01*
X134365Y-76287D01*
X134403Y-76195D01*
X134403Y-76096D01*
X134403Y-75096D01*
X134365Y-75004D01*
X134295Y-74933D01*
X134203Y-74895D01*
X134104Y-74895D01*
X133513Y-74895D01*
X133421Y-74933D01*
X133358Y-74996D01*
X133295Y-74933D01*
X133203Y-74895D01*
X133104Y-74895D01*
X132513Y-74895D01*
X132421Y-74933D01*
X132358Y-74996D01*
X132308Y-74946D01*
X137101Y-70153D01*
X137101Y-70153D01*
X137101Y-70153D01*
X137112Y-70136D01*
X137336Y-69913D01*
X137407Y-69913D01*
X137563Y-69848D01*
X137682Y-69729D01*
X137747Y-69573D01*
X137747Y-69404D01*
X137683Y-69247D01*
X137563Y-69128D01*
X137407Y-69063D01*
X137257Y-69063D01*
X137257Y-36880D01*
X137160Y-36643D01*
X136979Y-36462D01*
X136742Y-36364D01*
X136486Y-36364D01*
X136250Y-36461D01*
X136121Y-36589D01*
X135995Y-36462D01*
X135758Y-36364D01*
X135502Y-36364D01*
X135289Y-36452D01*
X135289Y-34911D01*
X135191Y-34675D01*
X135010Y-34493D01*
X134774Y-34395D01*
X134518Y-34395D01*
X134281Y-34493D01*
X134100Y-34674D01*
X134002Y-34910D01*
X134001Y-35166D01*
X134099Y-35403D01*
X134280Y-35584D01*
X134517Y-35682D01*
X134773Y-35683D01*
X135009Y-35585D01*
X135191Y-35404D01*
X135289Y-35167D01*
X135289Y-34911D01*
X135289Y-36452D01*
X135265Y-36461D01*
X135084Y-36642D01*
X135054Y-36715D01*
X134927Y-36587D01*
X134744Y-36511D01*
X134547Y-36511D01*
X134365Y-36587D01*
X134236Y-36715D01*
X134207Y-36643D01*
X134026Y-36462D01*
X133790Y-36364D01*
X133533Y-36364D01*
X133297Y-36461D01*
X133169Y-36589D01*
X133042Y-36462D01*
X132805Y-36364D01*
X132549Y-36364D01*
X132313Y-36461D01*
X132131Y-36642D01*
X132033Y-36879D01*
X132033Y-37135D01*
X132131Y-37372D01*
X132312Y-37553D01*
X132548Y-37651D01*
X132804Y-37651D01*
X133041Y-37553D01*
X133169Y-37426D01*
X133296Y-37553D01*
X133532Y-37651D01*
X133788Y-37651D01*
X134025Y-37553D01*
X134206Y-37372D01*
X134236Y-37300D01*
X134364Y-37428D01*
X134546Y-37503D01*
X134743Y-37504D01*
X134926Y-37428D01*
X135054Y-37300D01*
X135083Y-37372D01*
X135264Y-37553D01*
X135501Y-37651D01*
X135757Y-37651D01*
X135994Y-37553D01*
X136122Y-37426D01*
X136249Y-37553D01*
X136485Y-37651D01*
X136741Y-37651D01*
X136978Y-37553D01*
X137159Y-37372D01*
X137257Y-37136D01*
X137257Y-36880D01*
X137257Y-69063D01*
X137238Y-69063D01*
X137082Y-69127D01*
X136987Y-69222D01*
X136987Y-56774D01*
X136976Y-56556D01*
X136914Y-56405D01*
X136818Y-56377D01*
X136748Y-56448D01*
X136748Y-56307D01*
X136720Y-56211D01*
X136514Y-56138D01*
X136434Y-56142D01*
X136434Y-49505D01*
X136434Y-48121D01*
X136355Y-47928D01*
X136219Y-47792D01*
X136219Y-46429D01*
X136196Y-46311D01*
X136196Y-46311D01*
X136182Y-46290D01*
X136184Y-46284D01*
X136184Y-46075D01*
X136105Y-45882D01*
X135957Y-45735D01*
X135824Y-45679D01*
X135956Y-45625D01*
X136104Y-45477D01*
X136184Y-45284D01*
X136184Y-45075D01*
X136105Y-44882D01*
X135957Y-44735D01*
X135764Y-44655D01*
X135555Y-44654D01*
X135362Y-44734D01*
X135215Y-44882D01*
X135134Y-45075D01*
X135134Y-45283D01*
X135214Y-45476D01*
X135362Y-45624D01*
X135495Y-45679D01*
X135362Y-45734D01*
X135227Y-45869D01*
X134694Y-45869D01*
X134549Y-45724D01*
X134416Y-45669D01*
X134548Y-45614D01*
X134696Y-45467D01*
X134776Y-45274D01*
X134777Y-45065D01*
X134697Y-44872D01*
X134549Y-44724D01*
X134356Y-44644D01*
X134147Y-44644D01*
X134125Y-44653D01*
X134125Y-44437D01*
X134208Y-44354D01*
X134398Y-44355D01*
X134591Y-44275D01*
X134739Y-44127D01*
X134819Y-43934D01*
X134819Y-43725D01*
X134740Y-43532D01*
X134592Y-43385D01*
X134459Y-43329D01*
X134591Y-43275D01*
X134739Y-43127D01*
X134819Y-42934D01*
X134819Y-42725D01*
X134740Y-42532D01*
X134592Y-42385D01*
X134399Y-42305D01*
X134190Y-42304D01*
X133997Y-42384D01*
X133850Y-42532D01*
X133769Y-42725D01*
X133769Y-42933D01*
X133849Y-43126D01*
X133997Y-43274D01*
X134130Y-43329D01*
X133997Y-43384D01*
X133850Y-43532D01*
X133769Y-43725D01*
X133769Y-43786D01*
X131524Y-41540D01*
X131423Y-41473D01*
X131305Y-41450D01*
X129679Y-41450D01*
X129679Y-38238D01*
X129566Y-37965D01*
X129357Y-37757D01*
X129085Y-37643D01*
X128790Y-37643D01*
X128517Y-37756D01*
X128308Y-37964D01*
X128195Y-38237D01*
X128194Y-38532D01*
X128261Y-38694D01*
X128101Y-38628D01*
X127805Y-38627D01*
X127532Y-38740D01*
X127323Y-38949D01*
X127210Y-39221D01*
X127210Y-39517D01*
X127323Y-39789D01*
X127531Y-39998D01*
X127804Y-40112D01*
X128099Y-40112D01*
X128372Y-39999D01*
X128581Y-39791D01*
X128694Y-39518D01*
X128695Y-39223D01*
X128628Y-39061D01*
X128788Y-39127D01*
X129083Y-39128D01*
X129356Y-39015D01*
X129565Y-38806D01*
X129679Y-38534D01*
X129679Y-38238D01*
X129679Y-41450D01*
X128291Y-41450D01*
X128241Y-41399D01*
X128084Y-41335D01*
X127915Y-41334D01*
X127759Y-41399D01*
X127639Y-41518D01*
X127575Y-41675D01*
X127574Y-41844D01*
X127639Y-42000D01*
X127758Y-42120D01*
X127915Y-42184D01*
X128084Y-42185D01*
X128205Y-42134D01*
X128191Y-42186D01*
X128255Y-42272D01*
X128690Y-42272D01*
X128690Y-42264D01*
X128790Y-42264D01*
X128790Y-42272D01*
X128798Y-42272D01*
X128798Y-42372D01*
X128790Y-42372D01*
X128790Y-42380D01*
X128690Y-42380D01*
X128690Y-42372D01*
X128255Y-42372D01*
X128191Y-42459D01*
X128248Y-42666D01*
X128373Y-42828D01*
X126730Y-42828D01*
X126730Y-38513D01*
X126722Y-38218D01*
X126624Y-37982D01*
X126509Y-37931D01*
X126438Y-38002D01*
X126438Y-37860D01*
X126387Y-37745D01*
X126111Y-37640D01*
X125816Y-37647D01*
X125580Y-37745D01*
X125530Y-37860D01*
X125984Y-38315D01*
X126438Y-37860D01*
X126438Y-38002D01*
X126054Y-38385D01*
X126509Y-38840D01*
X126624Y-38789D01*
X126730Y-38513D01*
X126730Y-42828D01*
X126438Y-42828D01*
X126438Y-38910D01*
X125984Y-38456D01*
X125913Y-38527D01*
X125913Y-38385D01*
X125459Y-37931D01*
X125344Y-37982D01*
X125238Y-38258D01*
X125246Y-38553D01*
X125344Y-38789D01*
X125459Y-38840D01*
X125913Y-38385D01*
X125913Y-38527D01*
X125530Y-38910D01*
X125580Y-39026D01*
X125856Y-39131D01*
X126151Y-39123D01*
X126387Y-39026D01*
X126438Y-38910D01*
X126438Y-42828D01*
X125665Y-42828D01*
X125665Y-41695D01*
X125600Y-41539D01*
X125481Y-41419D01*
X125324Y-41355D01*
X125155Y-41354D01*
X124999Y-41419D01*
X124968Y-41450D01*
X124940Y-41450D01*
X124758Y-41450D01*
X124758Y-39223D01*
X124645Y-38950D01*
X124436Y-38741D01*
X124164Y-38628D01*
X123868Y-38627D01*
X123706Y-38694D01*
X123773Y-38534D01*
X123773Y-38238D01*
X123661Y-37965D01*
X123452Y-37757D01*
X123179Y-37643D01*
X122884Y-37643D01*
X122611Y-37756D01*
X122402Y-37964D01*
X122289Y-38237D01*
X122289Y-38532D01*
X122401Y-38805D01*
X122610Y-39014D01*
X122883Y-39127D01*
X123178Y-39128D01*
X123340Y-39061D01*
X123273Y-39221D01*
X123273Y-39517D01*
X123386Y-39789D01*
X123594Y-39998D01*
X123867Y-40112D01*
X124162Y-40112D01*
X124435Y-39999D01*
X124644Y-39791D01*
X124757Y-39518D01*
X124758Y-39223D01*
X124758Y-41450D01*
X119836Y-41450D01*
X119836Y-38238D01*
X119723Y-37965D01*
X119515Y-37757D01*
X119242Y-37643D01*
X118947Y-37643D01*
X118674Y-37756D01*
X118465Y-37964D01*
X118352Y-38237D01*
X118352Y-38532D01*
X118419Y-38694D01*
X118258Y-38628D01*
X117963Y-38627D01*
X117690Y-38740D01*
X117481Y-38949D01*
X117368Y-39221D01*
X117367Y-39517D01*
X117480Y-39789D01*
X117689Y-39998D01*
X117961Y-40112D01*
X118257Y-40112D01*
X118530Y-39999D01*
X118739Y-39791D01*
X118852Y-39518D01*
X118852Y-39223D01*
X118785Y-39061D01*
X118946Y-39127D01*
X119241Y-39128D01*
X119514Y-39015D01*
X119723Y-38806D01*
X119836Y-38534D01*
X119836Y-38238D01*
X119836Y-41450D01*
X119629Y-41450D01*
X119627Y-41439D01*
X119506Y-41257D01*
X119324Y-41136D01*
X119110Y-41093D01*
X118895Y-41136D01*
X118714Y-41257D01*
X118610Y-41413D01*
X118506Y-41257D01*
X118324Y-41136D01*
X118110Y-41093D01*
X117895Y-41136D01*
X117714Y-41257D01*
X117610Y-41412D01*
X117608Y-41406D01*
X117470Y-41235D01*
X117278Y-41130D01*
X117246Y-41124D01*
X117160Y-41172D01*
X117160Y-41757D01*
X117168Y-41757D01*
X117168Y-41857D01*
X117160Y-41857D01*
X117160Y-42442D01*
X117246Y-42490D01*
X117278Y-42483D01*
X117470Y-42378D01*
X117608Y-42207D01*
X117610Y-42201D01*
X117714Y-42356D01*
X117852Y-42449D01*
X117091Y-43210D01*
X117060Y-43210D01*
X117060Y-42442D01*
X117060Y-41857D01*
X117060Y-41757D01*
X117060Y-41172D01*
X116973Y-41124D01*
X116942Y-41130D01*
X116883Y-41162D01*
X116883Y-38238D01*
X116771Y-37965D01*
X116562Y-37757D01*
X116289Y-37643D01*
X115994Y-37643D01*
X115721Y-37756D01*
X115512Y-37964D01*
X115399Y-38237D01*
X115399Y-38532D01*
X115512Y-38805D01*
X115720Y-39014D01*
X115993Y-39127D01*
X116288Y-39128D01*
X116561Y-39015D01*
X116770Y-38806D01*
X116883Y-38534D01*
X116883Y-38238D01*
X116883Y-41162D01*
X116749Y-41235D01*
X116611Y-41406D01*
X116550Y-41617D01*
X116550Y-41757D01*
X117060Y-41757D01*
X117060Y-41857D01*
X116550Y-41857D01*
X116550Y-41997D01*
X116611Y-42207D01*
X116749Y-42378D01*
X116942Y-42483D01*
X116973Y-42490D01*
X117060Y-42442D01*
X117060Y-43210D01*
X115917Y-43210D01*
X115782Y-43075D01*
X115649Y-43020D01*
X115782Y-42965D01*
X115929Y-42817D01*
X116009Y-42624D01*
X116010Y-42416D01*
X115930Y-42223D01*
X115782Y-42075D01*
X115589Y-41995D01*
X115381Y-41994D01*
X115188Y-42074D01*
X115040Y-42222D01*
X114960Y-42415D01*
X114959Y-42624D01*
X115039Y-42817D01*
X115187Y-42964D01*
X115320Y-43020D01*
X115188Y-43074D01*
X115040Y-43222D01*
X114960Y-43415D01*
X114959Y-43624D01*
X115039Y-43817D01*
X115187Y-43964D01*
X115380Y-44044D01*
X115589Y-44045D01*
X115782Y-43965D01*
X115917Y-43830D01*
X117220Y-43830D01*
X117338Y-43806D01*
X117439Y-43739D01*
X118778Y-42399D01*
X118895Y-42478D01*
X119110Y-42520D01*
X119324Y-42478D01*
X119506Y-42356D01*
X119627Y-42175D01*
X119641Y-42104D01*
X119698Y-42093D01*
X119734Y-42070D01*
X124929Y-42070D01*
X124998Y-42140D01*
X125155Y-42204D01*
X125324Y-42205D01*
X125480Y-42140D01*
X125600Y-42021D01*
X125664Y-41864D01*
X125665Y-41695D01*
X125665Y-42828D01*
X124308Y-42828D01*
X124193Y-42851D01*
X124096Y-42916D01*
X120509Y-46502D01*
X120449Y-46356D01*
X120301Y-46208D01*
X120108Y-46128D01*
X119899Y-46128D01*
X119706Y-46208D01*
X119670Y-46244D01*
X119670Y-45207D01*
X119670Y-44307D01*
X119632Y-44215D01*
X119562Y-44145D01*
X119470Y-44107D01*
X119370Y-44107D01*
X118750Y-44107D01*
X118658Y-44145D01*
X118588Y-44215D01*
X118550Y-44307D01*
X118550Y-44323D01*
X118506Y-44257D01*
X118324Y-44136D01*
X118110Y-44093D01*
X117895Y-44136D01*
X117714Y-44257D01*
X117610Y-44413D01*
X117506Y-44257D01*
X117324Y-44136D01*
X117110Y-44093D01*
X116895Y-44136D01*
X116714Y-44257D01*
X116592Y-44439D01*
X116550Y-44653D01*
X116550Y-44960D01*
X116592Y-45175D01*
X116714Y-45356D01*
X116895Y-45478D01*
X117110Y-45520D01*
X117324Y-45478D01*
X117506Y-45356D01*
X117610Y-45201D01*
X117714Y-45356D01*
X117895Y-45478D01*
X118110Y-45520D01*
X118324Y-45478D01*
X118506Y-45356D01*
X118550Y-45290D01*
X118550Y-45306D01*
X118588Y-45398D01*
X118658Y-45468D01*
X118750Y-45507D01*
X118849Y-45507D01*
X119469Y-45507D01*
X119561Y-45469D01*
X119632Y-45398D01*
X119670Y-45307D01*
X119670Y-45207D01*
X119670Y-46244D01*
X119559Y-46355D01*
X119479Y-46548D01*
X119478Y-46757D01*
X119558Y-46950D01*
X119706Y-47098D01*
X119853Y-47159D01*
X119237Y-47775D01*
X119115Y-47774D01*
X118959Y-47839D01*
X118839Y-47958D01*
X118775Y-48115D01*
X118774Y-48284D01*
X118839Y-48440D01*
X118958Y-48560D01*
X119115Y-48624D01*
X119284Y-48625D01*
X119440Y-48560D01*
X119560Y-48441D01*
X119624Y-48284D01*
X119624Y-48236D01*
X124432Y-43428D01*
X128721Y-43428D01*
X128721Y-43428D01*
X128836Y-43406D01*
X128836Y-43406D01*
X128933Y-43340D01*
X129334Y-42940D01*
X129527Y-42979D01*
X129736Y-42937D01*
X129913Y-42819D01*
X129921Y-42807D01*
X129929Y-42819D01*
X130014Y-42876D01*
X130014Y-45584D01*
X128596Y-47002D01*
X128596Y-45619D01*
X128596Y-44438D01*
X128558Y-44346D01*
X128488Y-44276D01*
X128396Y-44238D01*
X128296Y-44238D01*
X127115Y-44238D01*
X127023Y-44276D01*
X126953Y-44346D01*
X126915Y-44438D01*
X126915Y-44537D01*
X126915Y-45718D01*
X126953Y-45810D01*
X127023Y-45881D01*
X127115Y-45919D01*
X127214Y-45919D01*
X128395Y-45919D01*
X128487Y-45881D01*
X128558Y-45811D01*
X128596Y-45719D01*
X128596Y-45619D01*
X128596Y-47002D01*
X126084Y-49514D01*
X126015Y-49514D01*
X125859Y-49579D01*
X125739Y-49698D01*
X125675Y-49855D01*
X125674Y-50024D01*
X125739Y-50180D01*
X125858Y-50300D01*
X126015Y-50364D01*
X126184Y-50365D01*
X126340Y-50300D01*
X126460Y-50181D01*
X126524Y-50024D01*
X126525Y-49922D01*
X128332Y-48115D01*
X128332Y-48151D01*
X128424Y-48373D01*
X128594Y-48543D01*
X128769Y-48616D01*
X128593Y-48688D01*
X128423Y-48858D01*
X128331Y-49080D01*
X128331Y-49320D01*
X128423Y-49543D01*
X128593Y-49713D01*
X128815Y-49805D01*
X129055Y-49805D01*
X129277Y-49713D01*
X129447Y-49543D01*
X129449Y-49540D01*
X129494Y-49555D01*
X129849Y-49201D01*
X129494Y-48846D01*
X129449Y-48861D01*
X129448Y-48859D01*
X129278Y-48689D01*
X129103Y-48616D01*
X129278Y-48544D01*
X129449Y-48374D01*
X129450Y-48370D01*
X129496Y-48386D01*
X129850Y-48031D01*
X129496Y-47676D01*
X129450Y-47692D01*
X129449Y-47689D01*
X129279Y-47519D01*
X129057Y-47427D01*
X129020Y-47427D01*
X130527Y-45920D01*
X130592Y-45823D01*
X130614Y-45708D01*
X130614Y-45708D01*
X130614Y-42876D01*
X130700Y-42819D01*
X130708Y-42807D01*
X130716Y-42819D01*
X130802Y-42876D01*
X130802Y-47283D01*
X130825Y-47398D01*
X130844Y-47427D01*
X130785Y-47427D01*
X130563Y-47518D01*
X130393Y-47688D01*
X130392Y-47692D01*
X130346Y-47676D01*
X130275Y-47747D01*
X130275Y-47606D01*
X130241Y-47505D01*
X130016Y-47422D01*
X129775Y-47432D01*
X129600Y-47505D01*
X129566Y-47606D01*
X129921Y-47960D01*
X130275Y-47606D01*
X130275Y-47747D01*
X129991Y-48031D01*
X130346Y-48386D01*
X130391Y-48370D01*
X130392Y-48373D01*
X130562Y-48543D01*
X130737Y-48616D01*
X130562Y-48688D01*
X130392Y-48858D01*
X130390Y-48861D01*
X130345Y-48846D01*
X130275Y-48916D01*
X130275Y-48456D01*
X129921Y-48102D01*
X129566Y-48456D01*
X129600Y-48557D01*
X129750Y-48612D01*
X129599Y-48674D01*
X129565Y-48775D01*
X129920Y-49130D01*
X130274Y-48775D01*
X130240Y-48674D01*
X130090Y-48620D01*
X130241Y-48557D01*
X130275Y-48456D01*
X130275Y-48916D01*
X129990Y-49201D01*
X130345Y-49555D01*
X130390Y-49540D01*
X130391Y-49543D01*
X130561Y-49713D01*
X130604Y-49730D01*
X130604Y-52927D01*
X130627Y-53041D01*
X130692Y-53139D01*
X131420Y-53867D01*
X131420Y-54372D01*
X131276Y-54290D01*
X131235Y-54282D01*
X131151Y-54331D01*
X131151Y-54859D01*
X131159Y-54859D01*
X131159Y-54959D01*
X131151Y-54959D01*
X131151Y-55488D01*
X131235Y-55536D01*
X131276Y-55529D01*
X131420Y-55446D01*
X131420Y-56853D01*
X131399Y-56845D01*
X131190Y-56844D01*
X131051Y-56902D01*
X131051Y-55488D01*
X131051Y-54959D01*
X131043Y-54959D01*
X131043Y-54859D01*
X131051Y-54859D01*
X131051Y-54331D01*
X130966Y-54282D01*
X130926Y-54290D01*
X130740Y-54396D01*
X130712Y-54432D01*
X130699Y-54413D01*
X130522Y-54295D01*
X130313Y-54253D01*
X130274Y-54261D01*
X130274Y-49626D01*
X129920Y-49271D01*
X129565Y-49626D01*
X129599Y-49727D01*
X129825Y-49810D01*
X130065Y-49799D01*
X130240Y-49727D01*
X130274Y-49626D01*
X130274Y-54261D01*
X130120Y-54292D01*
X129980Y-54152D01*
X129883Y-54087D01*
X129768Y-54064D01*
X128595Y-54064D01*
X128595Y-52694D01*
X128595Y-51513D01*
X128557Y-51421D01*
X128487Y-51351D01*
X128395Y-51313D01*
X128295Y-51313D01*
X127114Y-51313D01*
X127022Y-51351D01*
X126952Y-51421D01*
X126914Y-51513D01*
X126914Y-51612D01*
X126914Y-52793D01*
X126952Y-52885D01*
X127022Y-52956D01*
X127114Y-52994D01*
X127213Y-52994D01*
X128394Y-52994D01*
X128486Y-52956D01*
X128557Y-52886D01*
X128595Y-52794D01*
X128595Y-52694D01*
X128595Y-54064D01*
X128377Y-54064D01*
X128262Y-54087D01*
X128165Y-54152D01*
X127051Y-55267D01*
X121750Y-55267D01*
X121936Y-55080D01*
X121936Y-55080D01*
X122001Y-54983D01*
X122024Y-54868D01*
X122024Y-54868D01*
X122024Y-54423D01*
X124023Y-52423D01*
X124031Y-52413D01*
X124139Y-52304D01*
X124224Y-52305D01*
X124380Y-52240D01*
X124500Y-52121D01*
X124564Y-51964D01*
X124565Y-51795D01*
X124500Y-51639D01*
X124381Y-51519D01*
X124224Y-51455D01*
X124055Y-51454D01*
X123899Y-51519D01*
X123779Y-51638D01*
X123715Y-51795D01*
X123714Y-51880D01*
X123599Y-51996D01*
X123592Y-52006D01*
X121512Y-54086D01*
X121466Y-54155D01*
X121267Y-54083D01*
X121027Y-54093D01*
X120852Y-54165D01*
X120818Y-54266D01*
X121173Y-54621D01*
X121178Y-54615D01*
X121249Y-54686D01*
X121243Y-54692D01*
X121249Y-54697D01*
X121178Y-54768D01*
X121173Y-54762D01*
X121167Y-54768D01*
X121096Y-54697D01*
X121102Y-54692D01*
X120747Y-54337D01*
X120688Y-54357D01*
X120685Y-54350D01*
X120516Y-54180D01*
X120293Y-54087D01*
X120053Y-54087D01*
X119831Y-54179D01*
X119673Y-54337D01*
X119516Y-54180D01*
X119293Y-54087D01*
X119053Y-54087D01*
X118831Y-54179D01*
X118673Y-54337D01*
X118516Y-54180D01*
X118293Y-54087D01*
X118053Y-54087D01*
X117831Y-54179D01*
X117673Y-54337D01*
X117528Y-54193D01*
X117528Y-46879D01*
X117528Y-46329D01*
X117491Y-46237D01*
X117420Y-46166D01*
X117328Y-46128D01*
X117229Y-46128D01*
X116679Y-46128D01*
X116587Y-46166D01*
X116517Y-46236D01*
X116478Y-46328D01*
X116478Y-46428D01*
X116478Y-46978D01*
X116516Y-47069D01*
X116587Y-47140D01*
X116678Y-47178D01*
X116778Y-47178D01*
X117328Y-47178D01*
X117420Y-47140D01*
X117490Y-47070D01*
X117528Y-46978D01*
X117528Y-46879D01*
X117528Y-54193D01*
X117516Y-54180D01*
X117293Y-54087D01*
X117053Y-54087D01*
X116831Y-54179D01*
X116673Y-54337D01*
X116516Y-54180D01*
X116293Y-54087D01*
X116284Y-54087D01*
X116284Y-45365D01*
X116220Y-45209D01*
X116100Y-45089D01*
X115944Y-45025D01*
X115775Y-45024D01*
X115771Y-45026D01*
X114915Y-44171D01*
X114915Y-39223D01*
X114802Y-38950D01*
X114594Y-38741D01*
X114321Y-38628D01*
X114026Y-38627D01*
X113864Y-38694D01*
X113930Y-38534D01*
X113931Y-38238D01*
X113818Y-37965D01*
X113609Y-37757D01*
X113337Y-37643D01*
X113042Y-37643D01*
X112769Y-37756D01*
X112560Y-37964D01*
X112446Y-38237D01*
X112446Y-38532D01*
X112559Y-38805D01*
X112768Y-39014D01*
X113040Y-39127D01*
X113335Y-39128D01*
X113497Y-39061D01*
X113431Y-39221D01*
X113430Y-39517D01*
X113543Y-39789D01*
X113752Y-39998D01*
X114024Y-40112D01*
X114320Y-40112D01*
X114593Y-39999D01*
X114802Y-39791D01*
X114915Y-39518D01*
X114915Y-39223D01*
X114915Y-44171D01*
X114733Y-43989D01*
X114814Y-43908D01*
X114894Y-43715D01*
X114895Y-43506D01*
X114815Y-43313D01*
X114667Y-43165D01*
X114534Y-43110D01*
X114667Y-43055D01*
X114814Y-42908D01*
X114894Y-42715D01*
X114895Y-42506D01*
X114815Y-42313D01*
X114667Y-42165D01*
X114474Y-42085D01*
X114266Y-42085D01*
X114073Y-42164D01*
X113925Y-42312D01*
X113845Y-42505D01*
X113844Y-42714D01*
X113924Y-42907D01*
X114072Y-43055D01*
X114205Y-43110D01*
X114073Y-43164D01*
X113925Y-43312D01*
X113845Y-43505D01*
X113844Y-43714D01*
X113924Y-43907D01*
X114070Y-44053D01*
X114092Y-44164D01*
X114157Y-44262D01*
X115438Y-45542D01*
X115499Y-45690D01*
X115618Y-45810D01*
X115774Y-45874D01*
X115944Y-45875D01*
X116100Y-45810D01*
X116219Y-45691D01*
X116284Y-45534D01*
X116284Y-45365D01*
X116284Y-54087D01*
X116053Y-54087D01*
X115831Y-54179D01*
X115673Y-54337D01*
X115516Y-54180D01*
X115293Y-54087D01*
X115053Y-54087D01*
X114831Y-54179D01*
X114673Y-54337D01*
X114516Y-54180D01*
X114293Y-54087D01*
X114053Y-54087D01*
X113831Y-54179D01*
X113661Y-54349D01*
X113569Y-54571D01*
X113568Y-54811D01*
X113660Y-55034D01*
X113830Y-55204D01*
X114052Y-55296D01*
X114292Y-55296D01*
X114515Y-55204D01*
X114673Y-55046D01*
X114830Y-55204D01*
X115052Y-55296D01*
X115292Y-55296D01*
X115515Y-55204D01*
X115673Y-55046D01*
X115830Y-55204D01*
X116052Y-55296D01*
X116158Y-55296D01*
X115817Y-55638D01*
X115722Y-55637D01*
X115566Y-55702D01*
X115446Y-55821D01*
X115382Y-55978D01*
X115382Y-56147D01*
X115446Y-56303D01*
X115566Y-56423D01*
X115722Y-56487D01*
X115891Y-56488D01*
X116020Y-56434D01*
X115793Y-56661D01*
X115722Y-56661D01*
X115566Y-56726D01*
X115446Y-56845D01*
X115382Y-57001D01*
X115382Y-57170D01*
X115446Y-57327D01*
X115566Y-57446D01*
X115722Y-57511D01*
X115891Y-57511D01*
X116047Y-57447D01*
X116167Y-57327D01*
X116232Y-57171D01*
X116232Y-57043D01*
X118000Y-55274D01*
X118052Y-55296D01*
X118292Y-55296D01*
X118515Y-55204D01*
X118673Y-55046D01*
X118830Y-55204D01*
X119052Y-55296D01*
X119292Y-55296D01*
X119515Y-55204D01*
X119673Y-55046D01*
X119830Y-55204D01*
X120052Y-55296D01*
X120167Y-55296D01*
X117852Y-57611D01*
X117829Y-57556D01*
X117729Y-57522D01*
X117658Y-57593D01*
X117658Y-57451D01*
X117625Y-57351D01*
X117400Y-57269D01*
X117162Y-57279D01*
X116989Y-57351D01*
X116955Y-57451D01*
X117307Y-57803D01*
X117658Y-57451D01*
X117658Y-57593D01*
X117377Y-57874D01*
X117383Y-57879D01*
X117312Y-57950D01*
X117307Y-57944D01*
X117236Y-58015D01*
X117236Y-57874D01*
X116884Y-57522D01*
X116784Y-57556D01*
X116702Y-57780D01*
X116712Y-58018D01*
X116784Y-58191D01*
X116884Y-58225D01*
X117236Y-57874D01*
X117236Y-58015D01*
X116955Y-58296D01*
X116989Y-58396D01*
X117046Y-58417D01*
X115731Y-59732D01*
X115604Y-59732D01*
X115448Y-59796D01*
X115328Y-59916D01*
X115264Y-60072D01*
X115263Y-60241D01*
X115328Y-60397D01*
X115373Y-60443D01*
X115323Y-60564D01*
X115322Y-60733D01*
X115387Y-60890D01*
X115506Y-61009D01*
X115663Y-61074D01*
X115832Y-61074D01*
X115988Y-61010D01*
X116108Y-60890D01*
X116172Y-60734D01*
X116173Y-60618D01*
X118707Y-58084D01*
X118707Y-58273D01*
X118745Y-58365D01*
X118815Y-58435D01*
X118907Y-58473D01*
X119006Y-58474D01*
X119706Y-58474D01*
X119798Y-58436D01*
X119868Y-58365D01*
X119907Y-58273D01*
X119907Y-58174D01*
X119907Y-57474D01*
X119869Y-57382D01*
X119798Y-57312D01*
X119707Y-57274D01*
X119607Y-57273D01*
X119407Y-57273D01*
X120814Y-55867D01*
X126912Y-55867D01*
X126203Y-56576D01*
X126203Y-56450D01*
X126111Y-56228D01*
X125941Y-56058D01*
X125719Y-55965D01*
X125479Y-55965D01*
X125256Y-56057D01*
X125098Y-56215D01*
X124941Y-56058D01*
X124719Y-55965D01*
X124479Y-55965D01*
X124256Y-56057D01*
X124086Y-56227D01*
X124083Y-56235D01*
X124024Y-56215D01*
X123953Y-56286D01*
X123953Y-56144D01*
X123919Y-56043D01*
X123693Y-55961D01*
X123453Y-55971D01*
X123278Y-56043D01*
X123244Y-56144D01*
X123598Y-56499D01*
X123953Y-56144D01*
X123953Y-56286D01*
X123669Y-56570D01*
X124024Y-56924D01*
X124083Y-56904D01*
X124086Y-56911D01*
X124256Y-57082D01*
X124478Y-57174D01*
X124584Y-57174D01*
X123953Y-57805D01*
X123953Y-56995D01*
X123598Y-56640D01*
X123528Y-56711D01*
X123528Y-56570D01*
X123173Y-56215D01*
X123114Y-56235D01*
X123111Y-56228D01*
X122941Y-56058D01*
X122719Y-55965D01*
X122479Y-55965D01*
X122256Y-56057D01*
X122098Y-56215D01*
X121941Y-56058D01*
X121719Y-55965D01*
X121479Y-55965D01*
X121256Y-56057D01*
X121086Y-56227D01*
X120994Y-56449D01*
X120994Y-56689D01*
X121086Y-56911D01*
X121256Y-57082D01*
X121478Y-57174D01*
X121718Y-57174D01*
X121940Y-57082D01*
X122098Y-56924D01*
X122256Y-57082D01*
X122478Y-57174D01*
X122718Y-57174D01*
X122940Y-57082D01*
X123110Y-56912D01*
X123114Y-56904D01*
X123173Y-56924D01*
X123528Y-56570D01*
X123528Y-56711D01*
X123244Y-56995D01*
X123278Y-57096D01*
X123504Y-57178D01*
X123744Y-57168D01*
X123919Y-57096D01*
X123953Y-56995D01*
X123953Y-57805D01*
X123837Y-57921D01*
X123734Y-57921D01*
X123578Y-57985D01*
X123458Y-58105D01*
X123393Y-58261D01*
X123393Y-58430D01*
X123458Y-58586D01*
X123577Y-58706D01*
X123733Y-58771D01*
X123903Y-58771D01*
X123945Y-58754D01*
X123945Y-58917D01*
X124009Y-59073D01*
X124129Y-59193D01*
X124285Y-59258D01*
X124454Y-59258D01*
X124610Y-59193D01*
X124730Y-59074D01*
X124795Y-58918D01*
X124795Y-58832D01*
X128300Y-55327D01*
X128353Y-55406D01*
X128530Y-55524D01*
X128738Y-55566D01*
X128947Y-55524D01*
X129124Y-55406D01*
X129132Y-55394D01*
X129140Y-55406D01*
X129317Y-55524D01*
X129526Y-55566D01*
X129735Y-55524D01*
X129911Y-55406D01*
X129920Y-55394D01*
X129928Y-55406D01*
X130105Y-55524D01*
X130313Y-55566D01*
X130522Y-55524D01*
X130699Y-55406D01*
X130712Y-55386D01*
X130740Y-55422D01*
X130926Y-55529D01*
X130966Y-55536D01*
X131051Y-55488D01*
X131051Y-56902D01*
X130997Y-56924D01*
X130850Y-57072D01*
X130769Y-57265D01*
X130769Y-57474D01*
X130849Y-57667D01*
X130997Y-57814D01*
X131130Y-57870D01*
X130997Y-57924D01*
X130850Y-58072D01*
X130769Y-58265D01*
X130769Y-58474D01*
X130849Y-58667D01*
X130997Y-58814D01*
X131189Y-58894D01*
X131398Y-58895D01*
X131420Y-58886D01*
X131420Y-65046D01*
X129515Y-66951D01*
X129467Y-66835D01*
X129286Y-66654D01*
X129050Y-66556D01*
X128794Y-66556D01*
X128594Y-66638D01*
X128594Y-61313D01*
X128529Y-61157D01*
X128410Y-61037D01*
X128254Y-60972D01*
X128085Y-60972D01*
X127928Y-61037D01*
X127809Y-61156D01*
X127744Y-61312D01*
X127744Y-61412D01*
X127259Y-61897D01*
X127258Y-61897D01*
X127101Y-61962D01*
X126982Y-62081D01*
X126917Y-62237D01*
X126917Y-62406D01*
X126981Y-62563D01*
X127101Y-62682D01*
X127257Y-62747D01*
X127426Y-62747D01*
X127582Y-62683D01*
X127702Y-62563D01*
X127767Y-62407D01*
X127767Y-62238D01*
X127758Y-62218D01*
X128154Y-61822D01*
X128253Y-61822D01*
X128409Y-61758D01*
X128529Y-61638D01*
X128594Y-61482D01*
X128594Y-61313D01*
X128594Y-66638D01*
X128557Y-66653D01*
X128376Y-66834D01*
X128278Y-67071D01*
X128277Y-67327D01*
X128375Y-67564D01*
X128556Y-67745D01*
X128793Y-67843D01*
X129022Y-67843D01*
X128987Y-67927D01*
X128987Y-68097D01*
X129052Y-68253D01*
X129171Y-68372D01*
X129327Y-68437D01*
X129497Y-68437D01*
X129653Y-68373D01*
X129772Y-68253D01*
X129837Y-68097D01*
X129837Y-67928D01*
X129773Y-67772D01*
X129712Y-67711D01*
X129712Y-67602D01*
X131620Y-65694D01*
X131620Y-66091D01*
X130296Y-67414D01*
X130235Y-67414D01*
X130079Y-67479D01*
X129959Y-67598D01*
X129895Y-67755D01*
X129894Y-67924D01*
X129959Y-68080D01*
X130078Y-68200D01*
X130235Y-68264D01*
X130404Y-68265D01*
X130560Y-68200D01*
X130680Y-68081D01*
X130744Y-67924D01*
X130745Y-67814D01*
X132132Y-66427D01*
X132132Y-66427D01*
X132197Y-66330D01*
X132220Y-66215D01*
X132220Y-66215D01*
X132220Y-58640D01*
X132375Y-58704D01*
X132583Y-58705D01*
X132776Y-58625D01*
X132924Y-58477D01*
X133004Y-58284D01*
X133005Y-58075D01*
X132925Y-57882D01*
X132777Y-57735D01*
X132644Y-57679D01*
X132776Y-57625D01*
X132924Y-57477D01*
X133004Y-57284D01*
X133005Y-57075D01*
X132925Y-56882D01*
X132777Y-56735D01*
X132584Y-56655D01*
X132375Y-56654D01*
X132220Y-56719D01*
X132220Y-54730D01*
X133038Y-53913D01*
X133038Y-53913D01*
X133103Y-53815D01*
X133126Y-53700D01*
X133126Y-53700D01*
X133126Y-49007D01*
X133103Y-48892D01*
X133038Y-48795D01*
X133038Y-48795D01*
X131402Y-47159D01*
X131402Y-45901D01*
X131446Y-45919D01*
X131545Y-45919D01*
X132726Y-45919D01*
X132818Y-45881D01*
X132888Y-45811D01*
X132927Y-45719D01*
X132927Y-45619D01*
X132927Y-44438D01*
X132889Y-44346D01*
X132818Y-44276D01*
X132727Y-44238D01*
X132627Y-44238D01*
X131446Y-44238D01*
X131402Y-44256D01*
X131402Y-42876D01*
X131487Y-42819D01*
X131606Y-42642D01*
X131629Y-42523D01*
X133505Y-44399D01*
X133505Y-45732D01*
X133529Y-45851D01*
X133596Y-45952D01*
X133727Y-46082D01*
X133726Y-46273D01*
X133806Y-46466D01*
X133954Y-46614D01*
X134147Y-46694D01*
X134355Y-46694D01*
X134548Y-46614D01*
X134673Y-46489D01*
X135227Y-46489D01*
X135362Y-46624D01*
X135554Y-46704D01*
X135599Y-46704D01*
X135599Y-47792D01*
X135465Y-47927D01*
X135409Y-48060D01*
X135355Y-47928D01*
X135207Y-47780D01*
X135014Y-47700D01*
X134805Y-47700D01*
X134612Y-47779D01*
X134465Y-47927D01*
X134384Y-48120D01*
X134384Y-48326D01*
X133296Y-49414D01*
X133231Y-49511D01*
X133208Y-49626D01*
X133208Y-60870D01*
X133139Y-60938D01*
X133075Y-61095D01*
X133074Y-61264D01*
X133139Y-61420D01*
X133258Y-61540D01*
X133415Y-61604D01*
X133584Y-61605D01*
X133740Y-61540D01*
X133860Y-61421D01*
X133924Y-61264D01*
X133925Y-61095D01*
X133860Y-60939D01*
X133808Y-60887D01*
X133808Y-49750D01*
X134809Y-48750D01*
X135013Y-48750D01*
X135206Y-48670D01*
X135354Y-48522D01*
X135409Y-48389D01*
X135464Y-48522D01*
X135612Y-48670D01*
X135804Y-48750D01*
X136013Y-48750D01*
X136206Y-48670D01*
X136354Y-48522D01*
X136434Y-48330D01*
X136434Y-48121D01*
X136434Y-49505D01*
X136355Y-49312D01*
X136207Y-49165D01*
X136014Y-49084D01*
X135805Y-49084D01*
X135612Y-49164D01*
X135465Y-49312D01*
X135409Y-49445D01*
X135355Y-49312D01*
X135207Y-49165D01*
X135014Y-49084D01*
X134805Y-49084D01*
X134612Y-49164D01*
X134465Y-49312D01*
X134384Y-49504D01*
X134384Y-49713D01*
X134464Y-49906D01*
X134612Y-50054D01*
X134804Y-50134D01*
X135013Y-50134D01*
X135206Y-50055D01*
X135354Y-49907D01*
X135409Y-49774D01*
X135464Y-49906D01*
X135612Y-50054D01*
X135804Y-50134D01*
X136013Y-50134D01*
X136206Y-50055D01*
X136354Y-49907D01*
X136434Y-49714D01*
X136434Y-49505D01*
X136434Y-56142D01*
X136296Y-56149D01*
X136145Y-56211D01*
X136117Y-56307D01*
X136433Y-56622D01*
X136748Y-56307D01*
X136748Y-56448D01*
X136503Y-56692D01*
X136818Y-57008D01*
X136914Y-56980D01*
X136987Y-56774D01*
X136987Y-69222D01*
X136962Y-69247D01*
X136897Y-69403D01*
X136897Y-69474D01*
X136748Y-69624D01*
X136748Y-57078D01*
X136433Y-56763D01*
X136362Y-56834D01*
X136362Y-56692D01*
X136047Y-56377D01*
X135951Y-56405D01*
X135932Y-56460D01*
X135899Y-56381D01*
X135745Y-56226D01*
X135542Y-56143D01*
X135324Y-56142D01*
X135121Y-56226D01*
X134983Y-56364D01*
X134983Y-56343D01*
X134945Y-56251D01*
X134874Y-56181D01*
X134783Y-56142D01*
X134683Y-56142D01*
X134083Y-56142D01*
X133991Y-56180D01*
X133921Y-56251D01*
X133883Y-56342D01*
X133883Y-56442D01*
X133883Y-57042D01*
X133921Y-57134D01*
X133991Y-57204D01*
X134083Y-57242D01*
X134182Y-57242D01*
X134782Y-57242D01*
X134874Y-57204D01*
X134944Y-57134D01*
X134983Y-57042D01*
X134983Y-57020D01*
X135121Y-57158D01*
X135323Y-57242D01*
X135541Y-57243D01*
X135744Y-57159D01*
X135899Y-57004D01*
X135930Y-56929D01*
X135951Y-56980D01*
X136047Y-57008D01*
X136362Y-56692D01*
X136362Y-56834D01*
X136117Y-57078D01*
X136145Y-57174D01*
X136351Y-57247D01*
X136569Y-57236D01*
X136720Y-57174D01*
X136748Y-57078D01*
X136748Y-69624D01*
X136663Y-69709D01*
X136652Y-69725D01*
X131712Y-74665D01*
X131712Y-74216D01*
X133720Y-72208D01*
X133785Y-72110D01*
X133808Y-71996D01*
X133808Y-71996D01*
X133808Y-71500D01*
X133808Y-71172D01*
X133868Y-71112D01*
X133933Y-70956D01*
X133933Y-70787D01*
X133869Y-70630D01*
X133749Y-70511D01*
X133593Y-70446D01*
X133424Y-70446D01*
X133268Y-70510D01*
X133148Y-70630D01*
X133083Y-70786D01*
X133083Y-70955D01*
X133148Y-71111D01*
X133208Y-71172D01*
X133208Y-71500D01*
X133208Y-71871D01*
X131200Y-73879D01*
X131135Y-73977D01*
X131112Y-74092D01*
X131112Y-74895D01*
X131104Y-74895D01*
X130603Y-74895D01*
X130603Y-72420D01*
X130603Y-72017D01*
X130660Y-71961D01*
X130724Y-71804D01*
X130725Y-71635D01*
X130660Y-71479D01*
X130541Y-71359D01*
X130384Y-71295D01*
X130215Y-71294D01*
X130059Y-71359D01*
X129939Y-71478D01*
X129875Y-71635D01*
X129874Y-71804D01*
X129939Y-71960D01*
X130003Y-72024D01*
X130003Y-72420D01*
X130003Y-74895D01*
X129970Y-74895D01*
X129908Y-74958D01*
X129908Y-75595D01*
X129916Y-75595D01*
X129916Y-75695D01*
X129908Y-75695D01*
X129908Y-75703D01*
X129808Y-75703D01*
X129808Y-75695D01*
X129800Y-75695D01*
X129800Y-75595D01*
X129808Y-75595D01*
X129808Y-74958D01*
X129745Y-74895D01*
X129712Y-74895D01*
X129712Y-71508D01*
X129760Y-71461D01*
X129824Y-71304D01*
X129825Y-71135D01*
X129760Y-70979D01*
X129641Y-70859D01*
X129484Y-70795D01*
X129315Y-70794D01*
X129159Y-70859D01*
X129039Y-70978D01*
X128975Y-71135D01*
X128974Y-71304D01*
X129039Y-71460D01*
X129112Y-71533D01*
X129112Y-74846D01*
X129070Y-74783D01*
X129070Y-74783D01*
X127505Y-73218D01*
X127505Y-73155D01*
X127440Y-72999D01*
X127321Y-72879D01*
X127164Y-72815D01*
X126995Y-72814D01*
X126839Y-72879D01*
X126719Y-72998D01*
X126655Y-73155D01*
X126654Y-73324D01*
X126719Y-73480D01*
X126838Y-73600D01*
X126995Y-73664D01*
X127103Y-73665D01*
X128396Y-74958D01*
X128358Y-74996D01*
X128295Y-74933D01*
X128203Y-74895D01*
X128104Y-74895D01*
X127513Y-74895D01*
X127421Y-74933D01*
X127358Y-74996D01*
X127295Y-74933D01*
X127203Y-74895D01*
X127104Y-74895D01*
X126513Y-74895D01*
X126421Y-74933D01*
X126358Y-74996D01*
X126295Y-74933D01*
X126203Y-74895D01*
X126104Y-74895D01*
X125970Y-74895D01*
X125908Y-74958D01*
X125908Y-75595D01*
X125916Y-75595D01*
X125916Y-75695D01*
X125908Y-75695D01*
X125908Y-76333D01*
X125970Y-76395D01*
X126104Y-76395D01*
X126203Y-76395D01*
X126295Y-76357D01*
X126358Y-76294D01*
X126421Y-76357D01*
X126513Y-76395D01*
X126612Y-76395D01*
X127203Y-76395D01*
X127294Y-76357D01*
X127358Y-76294D01*
X127421Y-76357D01*
X127513Y-76395D01*
X127612Y-76395D01*
X128203Y-76395D01*
X128294Y-76357D01*
X128358Y-76294D01*
X128421Y-76357D01*
X128513Y-76395D01*
X128612Y-76395D01*
X128701Y-76395D01*
X126538Y-78558D01*
X118456Y-78558D01*
X118541Y-78352D01*
X118541Y-78096D01*
X118444Y-77859D01*
X118263Y-77678D01*
X118026Y-77580D01*
X117770Y-77579D01*
X117533Y-77677D01*
X117352Y-77858D01*
X117254Y-78095D01*
X117254Y-78351D01*
X117339Y-78558D01*
X115597Y-78558D01*
X115602Y-78553D01*
X115682Y-78360D01*
X115682Y-78151D01*
X115602Y-77958D01*
X115455Y-77811D01*
X115322Y-77755D01*
X115454Y-77701D01*
X115602Y-77553D01*
X115682Y-77360D01*
X115682Y-77151D01*
X115602Y-76958D01*
X115455Y-76811D01*
X115262Y-76730D01*
X115053Y-76730D01*
X114860Y-76810D01*
X114712Y-76958D01*
X114632Y-77151D01*
X114632Y-77359D01*
X114712Y-77552D01*
X114717Y-77558D01*
X113325Y-77558D01*
X113307Y-77516D01*
X113149Y-77358D01*
X113307Y-77201D01*
X113399Y-76979D01*
X113399Y-76738D01*
X113307Y-76516D01*
X113149Y-76358D01*
X113307Y-76201D01*
X113399Y-75979D01*
X113399Y-75886D01*
X114020Y-76507D01*
X114020Y-76507D01*
X114117Y-76572D01*
X114232Y-76595D01*
X114232Y-76595D01*
X119858Y-76595D01*
X119973Y-76572D01*
X120070Y-76507D01*
X120135Y-76410D01*
X120138Y-76395D01*
X120203Y-76395D01*
X120294Y-76357D01*
X120358Y-76294D01*
X120421Y-76357D01*
X120513Y-76395D01*
X120612Y-76395D01*
X121203Y-76395D01*
X121294Y-76357D01*
X121358Y-76294D01*
X121421Y-76357D01*
X121513Y-76395D01*
X121612Y-76395D01*
X122203Y-76395D01*
X122294Y-76357D01*
X122358Y-76294D01*
X122421Y-76357D01*
X122513Y-76395D01*
X122612Y-76395D01*
X123192Y-76395D01*
X123287Y-76490D01*
X123287Y-76490D01*
X123381Y-76553D01*
X123492Y-76575D01*
X124858Y-76575D01*
X124969Y-76553D01*
X125063Y-76490D01*
X125126Y-76396D01*
X125126Y-76395D01*
X125203Y-76395D01*
X125294Y-76357D01*
X125358Y-76294D01*
X125421Y-76357D01*
X125513Y-76395D01*
X125612Y-76395D01*
X125745Y-76395D01*
X125808Y-76333D01*
X125808Y-75695D01*
X125800Y-75695D01*
X125800Y-75595D01*
X125808Y-75595D01*
X125808Y-74958D01*
X125745Y-74895D01*
X125612Y-74895D01*
X125513Y-74895D01*
X125421Y-74933D01*
X125358Y-74996D01*
X125295Y-74933D01*
X125203Y-74895D01*
X125104Y-74895D01*
X124513Y-74895D01*
X124421Y-74933D01*
X124358Y-74996D01*
X124295Y-74933D01*
X124203Y-74895D01*
X124126Y-74895D01*
X124126Y-74894D01*
X124063Y-74800D01*
X124063Y-74800D01*
X118916Y-69653D01*
X118821Y-69590D01*
X118710Y-69568D01*
X113329Y-69568D01*
X113307Y-69516D01*
X113149Y-69358D01*
X113307Y-69201D01*
X113325Y-69158D01*
X122514Y-69158D01*
X122514Y-69164D01*
X122579Y-69320D01*
X122698Y-69440D01*
X122855Y-69504D01*
X123024Y-69505D01*
X123180Y-69440D01*
X123300Y-69321D01*
X123364Y-69164D01*
X123365Y-68995D01*
X123300Y-68839D01*
X123181Y-68719D01*
X123024Y-68655D01*
X122941Y-68655D01*
X122933Y-68646D01*
X122835Y-68581D01*
X122720Y-68558D01*
X118541Y-68558D01*
X118541Y-67072D01*
X118444Y-66835D01*
X118263Y-66654D01*
X118026Y-66556D01*
X117770Y-66556D01*
X117533Y-66653D01*
X117352Y-66834D01*
X117254Y-67071D01*
X117254Y-67327D01*
X117352Y-67564D01*
X117532Y-67745D01*
X117769Y-67843D01*
X118025Y-67843D01*
X118262Y-67746D01*
X118443Y-67565D01*
X118541Y-67328D01*
X118541Y-67072D01*
X118541Y-68558D01*
X117880Y-68558D01*
X117924Y-68451D01*
X117925Y-68281D01*
X117860Y-68125D01*
X117741Y-68006D01*
X117584Y-67941D01*
X117470Y-67941D01*
X117413Y-67801D01*
X117293Y-67682D01*
X117237Y-67658D01*
X115862Y-66283D01*
X115866Y-66280D01*
X115904Y-66188D01*
X115904Y-65489D01*
X115866Y-65397D01*
X115848Y-65378D01*
X115848Y-65041D01*
X115551Y-64743D01*
X115254Y-65041D01*
X115278Y-65133D01*
X115475Y-65203D01*
X115683Y-65191D01*
X115823Y-65133D01*
X115848Y-65041D01*
X115848Y-65378D01*
X115796Y-65326D01*
X115704Y-65288D01*
X115604Y-65288D01*
X115466Y-65288D01*
X115404Y-65351D01*
X115404Y-65788D01*
X115841Y-65788D01*
X115904Y-65726D01*
X115904Y-65489D01*
X115904Y-66188D01*
X115904Y-65951D01*
X115841Y-65888D01*
X115404Y-65888D01*
X115404Y-65896D01*
X115304Y-65896D01*
X115304Y-65888D01*
X115304Y-65788D01*
X115304Y-65351D01*
X115241Y-65288D01*
X115103Y-65288D01*
X115004Y-65288D01*
X114912Y-65326D01*
X114842Y-65397D01*
X114804Y-65489D01*
X114804Y-65726D01*
X114866Y-65788D01*
X115304Y-65788D01*
X115304Y-65888D01*
X114866Y-65888D01*
X114804Y-65951D01*
X114804Y-66097D01*
X114667Y-66097D01*
X114667Y-65041D01*
X114370Y-64743D01*
X114072Y-65041D01*
X114097Y-65133D01*
X114294Y-65203D01*
X114502Y-65191D01*
X114642Y-65133D01*
X114667Y-65041D01*
X114667Y-66097D01*
X113350Y-66097D01*
X113399Y-65979D01*
X113399Y-65738D01*
X113307Y-65516D01*
X113149Y-65358D01*
X113307Y-65201D01*
X113399Y-64979D01*
X113399Y-64738D01*
X113310Y-64522D01*
X113866Y-64522D01*
X113840Y-64597D01*
X113851Y-64805D01*
X113909Y-64946D01*
X114002Y-64970D01*
X114299Y-64673D01*
X114293Y-64667D01*
X114364Y-64596D01*
X114370Y-64602D01*
X114375Y-64596D01*
X114446Y-64667D01*
X114440Y-64673D01*
X114737Y-64970D01*
X114830Y-64946D01*
X114899Y-64749D01*
X114888Y-64540D01*
X114881Y-64522D01*
X115047Y-64522D01*
X115021Y-64597D01*
X115032Y-64805D01*
X115090Y-64946D01*
X115183Y-64970D01*
X115480Y-64673D01*
X115474Y-64667D01*
X115545Y-64596D01*
X115551Y-64602D01*
X115556Y-64596D01*
X115627Y-64667D01*
X115621Y-64673D01*
X115918Y-64970D01*
X116011Y-64946D01*
X116081Y-64749D01*
X116069Y-64540D01*
X116062Y-64522D01*
X118980Y-64522D01*
X118980Y-64522D01*
X119095Y-64500D01*
X119095Y-64500D01*
X119192Y-64435D01*
X120190Y-63436D01*
X120300Y-63436D01*
X120456Y-63372D01*
X120576Y-63252D01*
X120641Y-63096D01*
X120641Y-62927D01*
X120577Y-62771D01*
X120457Y-62651D01*
X120301Y-62586D01*
X120132Y-62586D01*
X119976Y-62651D01*
X119856Y-62770D01*
X119791Y-62926D01*
X119791Y-62987D01*
X118856Y-63922D01*
X116015Y-63922D01*
X116076Y-63778D01*
X116076Y-63569D01*
X116018Y-63429D01*
X119029Y-63429D01*
X119140Y-63407D01*
X119234Y-63344D01*
X120146Y-62432D01*
X120261Y-62432D01*
X120417Y-62368D01*
X120537Y-62248D01*
X120602Y-62092D01*
X120602Y-61923D01*
X120537Y-61767D01*
X120418Y-61647D01*
X120262Y-61582D01*
X120092Y-61582D01*
X119936Y-61647D01*
X119817Y-61766D01*
X119752Y-61922D01*
X119752Y-62006D01*
X118909Y-62849D01*
X113942Y-62849D01*
X114394Y-62397D01*
X114440Y-62388D01*
X114440Y-62388D01*
X114491Y-62354D01*
X114592Y-62354D01*
X114748Y-62289D01*
X114867Y-62170D01*
X114932Y-62014D01*
X114932Y-61844D01*
X114868Y-61688D01*
X114748Y-61569D01*
X114596Y-61505D01*
X114596Y-57967D01*
X114586Y-57729D01*
X114514Y-57556D01*
X114414Y-57522D01*
X114062Y-57874D01*
X114414Y-58225D01*
X114514Y-58191D01*
X114596Y-57967D01*
X114596Y-61505D01*
X114592Y-61504D01*
X114423Y-61504D01*
X114329Y-61543D01*
X114276Y-61490D01*
X114120Y-61425D01*
X113951Y-61425D01*
X113795Y-61489D01*
X113675Y-61609D01*
X113610Y-61765D01*
X113610Y-61851D01*
X113567Y-61894D01*
X113562Y-61901D01*
X111008Y-64455D01*
X110857Y-64455D01*
X110772Y-64490D01*
X110957Y-64305D01*
X111019Y-64211D01*
X111041Y-64100D01*
X111041Y-62378D01*
X111138Y-62314D01*
X111251Y-62144D01*
X111365Y-62314D01*
X111542Y-62432D01*
X111751Y-62474D01*
X111961Y-62432D01*
X112138Y-62314D01*
X112256Y-62136D01*
X112298Y-61927D01*
X112298Y-61300D01*
X112256Y-61091D01*
X112216Y-61031D01*
X112298Y-60976D01*
X113913Y-59361D01*
X114060Y-59362D01*
X114216Y-59297D01*
X114336Y-59178D01*
X114401Y-59021D01*
X114401Y-58852D01*
X114343Y-58712D01*
X114343Y-58296D01*
X113992Y-57944D01*
X113640Y-58296D01*
X113674Y-58396D01*
X113898Y-58478D01*
X114136Y-58468D01*
X114310Y-58396D01*
X114343Y-58296D01*
X114343Y-58712D01*
X114336Y-58696D01*
X114217Y-58576D01*
X114061Y-58512D01*
X113892Y-58511D01*
X113735Y-58576D01*
X113616Y-58695D01*
X113551Y-58852D01*
X113551Y-58903D01*
X111973Y-60481D01*
X111089Y-60481D01*
X113442Y-58127D01*
X113469Y-58191D01*
X113570Y-58225D01*
X113921Y-57874D01*
X113915Y-57868D01*
X113986Y-57797D01*
X113992Y-57803D01*
X114343Y-57451D01*
X114320Y-57382D01*
X114375Y-57327D01*
X114440Y-57171D01*
X114440Y-57002D01*
X114376Y-56846D01*
X114256Y-56726D01*
X114100Y-56661D01*
X113931Y-56661D01*
X113775Y-56726D01*
X113655Y-56845D01*
X113590Y-57001D01*
X113590Y-57132D01*
X113589Y-57133D01*
X113583Y-57167D01*
X112592Y-58158D01*
X112592Y-57474D01*
X112554Y-57382D01*
X112483Y-57312D01*
X112392Y-57274D01*
X112292Y-57273D01*
X112094Y-57273D01*
X112175Y-57193D01*
X112972Y-57193D01*
X112972Y-57193D01*
X113087Y-57170D01*
X113087Y-57170D01*
X113184Y-57105D01*
X113785Y-56504D01*
X113793Y-56507D01*
X113962Y-56507D01*
X114118Y-56443D01*
X114238Y-56323D01*
X114302Y-56167D01*
X114303Y-55998D01*
X114238Y-55842D01*
X114119Y-55722D01*
X113962Y-55657D01*
X113793Y-55657D01*
X113637Y-55722D01*
X113517Y-55841D01*
X113459Y-55981D01*
X112848Y-56593D01*
X112051Y-56593D01*
X111936Y-56615D01*
X111839Y-56680D01*
X108039Y-60480D01*
X107974Y-60577D01*
X107951Y-60692D01*
X107951Y-60813D01*
X107914Y-60793D01*
X107886Y-60787D01*
X107801Y-60835D01*
X107801Y-61564D01*
X107809Y-61564D01*
X107809Y-61664D01*
X107801Y-61664D01*
X107801Y-62392D01*
X107886Y-62440D01*
X107914Y-62435D01*
X107951Y-62415D01*
X107951Y-63277D01*
X107701Y-63527D01*
X107701Y-62392D01*
X107701Y-61664D01*
X107298Y-61664D01*
X107205Y-61664D01*
X106801Y-61664D01*
X106801Y-62392D01*
X106886Y-62440D01*
X106914Y-62435D01*
X107103Y-62332D01*
X107237Y-62166D01*
X107251Y-62118D01*
X107266Y-62166D01*
X107400Y-62332D01*
X107589Y-62435D01*
X107617Y-62440D01*
X107701Y-62392D01*
X107701Y-63527D01*
X106957Y-64271D01*
X106916Y-64254D01*
X106675Y-64253D01*
X106453Y-64345D01*
X106390Y-64408D01*
X106390Y-62320D01*
X106400Y-62332D01*
X106589Y-62435D01*
X106617Y-62440D01*
X106701Y-62392D01*
X106701Y-61664D01*
X106694Y-61664D01*
X106694Y-61564D01*
X106701Y-61564D01*
X106701Y-61556D01*
X106801Y-61556D01*
X106801Y-61564D01*
X107205Y-61564D01*
X107298Y-61564D01*
X107701Y-61564D01*
X107701Y-60835D01*
X107617Y-60787D01*
X107589Y-60793D01*
X107400Y-60895D01*
X107266Y-61061D01*
X107251Y-61109D01*
X107237Y-61061D01*
X107103Y-60895D01*
X107014Y-60847D01*
X115224Y-52636D01*
X115224Y-52636D01*
X115233Y-52630D01*
X115459Y-52404D01*
X115544Y-52405D01*
X115700Y-52340D01*
X115820Y-52221D01*
X115884Y-52064D01*
X115885Y-51895D01*
X115820Y-51739D01*
X115701Y-51619D01*
X115544Y-51555D01*
X115375Y-51554D01*
X115219Y-51619D01*
X115099Y-51738D01*
X115035Y-51895D01*
X115034Y-51980D01*
X114815Y-52200D01*
X114815Y-52200D01*
X114806Y-52206D01*
X111463Y-55549D01*
X111463Y-37552D01*
X111462Y-37077D01*
X111281Y-36642D01*
X111119Y-36536D01*
X111048Y-36606D01*
X110338Y-37317D01*
X111119Y-38098D01*
X111281Y-37992D01*
X111463Y-37552D01*
X111463Y-55549D01*
X111048Y-55963D01*
X111048Y-38169D01*
X110267Y-37388D01*
X110262Y-37393D01*
X110197Y-37328D01*
X110191Y-37322D01*
X110197Y-37317D01*
X110191Y-37311D01*
X110262Y-37241D01*
X110267Y-37246D01*
X111048Y-36465D01*
X110942Y-36303D01*
X110503Y-36121D01*
X110027Y-36122D01*
X109592Y-36303D01*
X109486Y-36465D01*
X109462Y-36441D01*
X109462Y-36177D01*
X109281Y-35742D01*
X109119Y-35636D01*
X109048Y-35706D01*
X109048Y-35565D01*
X108942Y-35403D01*
X108503Y-35221D01*
X108027Y-35222D01*
X107592Y-35403D01*
X107486Y-35565D01*
X108267Y-36346D01*
X109048Y-35565D01*
X109048Y-35706D01*
X108338Y-36417D01*
X108343Y-36422D01*
X108273Y-36493D01*
X108267Y-36488D01*
X108197Y-36558D01*
X108197Y-36417D01*
X107415Y-35636D01*
X107253Y-35742D01*
X107072Y-36181D01*
X107073Y-36657D01*
X107253Y-37092D01*
X107415Y-37198D01*
X108197Y-36417D01*
X108197Y-36558D01*
X107486Y-37269D01*
X107592Y-37431D01*
X108032Y-37612D01*
X108507Y-37611D01*
X108942Y-37431D01*
X109048Y-37269D01*
X109048Y-37269D01*
X109072Y-37292D01*
X109073Y-37557D01*
X109100Y-37622D01*
X109048Y-37622D01*
X107273Y-37622D01*
X107181Y-37660D01*
X107110Y-37730D01*
X107072Y-37822D01*
X107072Y-37921D01*
X107072Y-39811D01*
X107110Y-39903D01*
X107180Y-39974D01*
X107272Y-40012D01*
X107372Y-40012D01*
X109262Y-40012D01*
X109354Y-39974D01*
X109424Y-39904D01*
X109462Y-39812D01*
X109462Y-39712D01*
X109462Y-38192D01*
X109486Y-38169D01*
X109592Y-38331D01*
X110032Y-38512D01*
X110507Y-38511D01*
X110942Y-38331D01*
X111048Y-38169D01*
X111048Y-55963D01*
X108116Y-58896D01*
X108116Y-46335D01*
X108116Y-45154D01*
X108105Y-44945D01*
X108047Y-44805D01*
X107954Y-44781D01*
X107887Y-44848D01*
X107887Y-43613D01*
X107883Y-43507D01*
X107883Y-41820D01*
X107883Y-41120D01*
X107845Y-41028D01*
X107775Y-40957D01*
X107683Y-40919D01*
X107583Y-40919D01*
X106883Y-40919D01*
X106792Y-40957D01*
X106721Y-41027D01*
X106683Y-41119D01*
X106683Y-41219D01*
X106683Y-41919D01*
X106721Y-42011D01*
X106791Y-42081D01*
X106883Y-42119D01*
X106982Y-42119D01*
X107682Y-42119D01*
X107774Y-42081D01*
X107845Y-42011D01*
X107883Y-41919D01*
X107883Y-41820D01*
X107883Y-43507D01*
X107877Y-43374D01*
X107806Y-43201D01*
X107705Y-43168D01*
X107634Y-43238D01*
X107634Y-43097D01*
X107601Y-42997D01*
X107377Y-42915D01*
X107138Y-42925D01*
X106965Y-42997D01*
X106932Y-43097D01*
X107283Y-43448D01*
X107634Y-43097D01*
X107634Y-43238D01*
X107354Y-43519D01*
X107705Y-43871D01*
X107806Y-43837D01*
X107887Y-43613D01*
X107887Y-44848D01*
X107883Y-44852D01*
X107883Y-44710D01*
X107859Y-44618D01*
X107662Y-44548D01*
X107634Y-44550D01*
X107634Y-43941D01*
X107283Y-43590D01*
X107212Y-43661D01*
X107212Y-43519D01*
X106861Y-43168D01*
X106760Y-43201D01*
X106678Y-43425D01*
X106689Y-43664D01*
X106760Y-43837D01*
X106861Y-43871D01*
X107212Y-43519D01*
X107212Y-43661D01*
X106932Y-43941D01*
X106965Y-44042D01*
X107189Y-44124D01*
X107428Y-44114D01*
X107601Y-44042D01*
X107634Y-43941D01*
X107634Y-44550D01*
X107453Y-44560D01*
X107313Y-44618D01*
X107289Y-44710D01*
X107586Y-45008D01*
X107883Y-44710D01*
X107883Y-44852D01*
X107657Y-45078D01*
X107954Y-45375D01*
X108047Y-45351D01*
X108116Y-45154D01*
X108116Y-46335D01*
X108105Y-46127D01*
X108047Y-45987D01*
X107954Y-45962D01*
X107883Y-46033D01*
X107883Y-45892D01*
X107883Y-45446D01*
X107586Y-45149D01*
X107515Y-45220D01*
X107515Y-45078D01*
X107218Y-44781D01*
X107126Y-44805D01*
X107087Y-44915D01*
X107031Y-44781D01*
X106884Y-44633D01*
X106691Y-44553D01*
X106482Y-44553D01*
X106289Y-44633D01*
X106141Y-44780D01*
X106061Y-44973D01*
X106061Y-45182D01*
X106141Y-45375D01*
X106288Y-45523D01*
X106481Y-45603D01*
X106690Y-45603D01*
X106883Y-45524D01*
X107031Y-45376D01*
X107083Y-45249D01*
X107126Y-45351D01*
X107218Y-45375D01*
X107515Y-45078D01*
X107515Y-45220D01*
X107289Y-45446D01*
X107313Y-45539D01*
X107510Y-45608D01*
X107719Y-45597D01*
X107859Y-45539D01*
X107883Y-45446D01*
X107883Y-45892D01*
X107859Y-45799D01*
X107662Y-45729D01*
X107453Y-45741D01*
X107313Y-45799D01*
X107289Y-45892D01*
X107586Y-46189D01*
X107883Y-45892D01*
X107883Y-46033D01*
X107657Y-46259D01*
X107954Y-46556D01*
X108047Y-46532D01*
X108116Y-46335D01*
X108116Y-58896D01*
X107919Y-59093D01*
X107919Y-57359D01*
X107919Y-56178D01*
X107908Y-55969D01*
X107887Y-55920D01*
X107887Y-52637D01*
X107883Y-52535D01*
X107883Y-46627D01*
X107586Y-46330D01*
X107515Y-46401D01*
X107515Y-46259D01*
X107218Y-45962D01*
X107126Y-45987D01*
X107087Y-46096D01*
X107031Y-45962D01*
X106884Y-45815D01*
X106691Y-45734D01*
X106482Y-45734D01*
X106289Y-45814D01*
X106141Y-45962D01*
X106061Y-46154D01*
X106061Y-46363D01*
X106141Y-46556D01*
X106288Y-46704D01*
X106481Y-46784D01*
X106690Y-46784D01*
X106883Y-46705D01*
X107031Y-46557D01*
X107083Y-46431D01*
X107126Y-46532D01*
X107218Y-46556D01*
X107515Y-46259D01*
X107515Y-46401D01*
X107289Y-46627D01*
X107313Y-46720D01*
X107510Y-46789D01*
X107719Y-46778D01*
X107859Y-46720D01*
X107883Y-46627D01*
X107883Y-52535D01*
X107877Y-52398D01*
X107806Y-52225D01*
X107705Y-52191D01*
X107691Y-52206D01*
X107691Y-49306D01*
X107686Y-49202D01*
X107686Y-48093D01*
X107595Y-47873D01*
X107426Y-47704D01*
X107206Y-47612D01*
X106967Y-47612D01*
X106747Y-47703D01*
X106578Y-47872D01*
X106486Y-48092D01*
X106486Y-48331D01*
X106577Y-48552D01*
X106746Y-48720D01*
X106756Y-48725D01*
X106735Y-48790D01*
X107086Y-49141D01*
X107438Y-48790D01*
X107416Y-48725D01*
X107426Y-48721D01*
X107594Y-48552D01*
X107686Y-48332D01*
X107686Y-48093D01*
X107686Y-49202D01*
X107680Y-49067D01*
X107609Y-48894D01*
X107508Y-48861D01*
X107157Y-49212D01*
X107162Y-49218D01*
X107092Y-49288D01*
X107086Y-49283D01*
X107081Y-49288D01*
X107015Y-49223D01*
X107010Y-49218D01*
X107015Y-49212D01*
X106664Y-48861D01*
X106563Y-48894D01*
X106482Y-49118D01*
X106492Y-49357D01*
X106563Y-49530D01*
X106664Y-49564D01*
X106619Y-49609D01*
X106641Y-49631D01*
X106595Y-49650D01*
X106524Y-49720D01*
X106486Y-49812D01*
X106486Y-49912D01*
X106486Y-50612D01*
X106524Y-50704D01*
X106594Y-50774D01*
X106686Y-50812D01*
X106786Y-50812D01*
X107486Y-50812D01*
X107578Y-50774D01*
X107648Y-50704D01*
X107686Y-50612D01*
X107686Y-50513D01*
X107686Y-49813D01*
X107648Y-49721D01*
X107578Y-49650D01*
X107531Y-49631D01*
X107553Y-49609D01*
X107508Y-49564D01*
X107609Y-49530D01*
X107691Y-49306D01*
X107691Y-52206D01*
X107686Y-52210D01*
X107634Y-52262D01*
X107634Y-52121D01*
X107601Y-52020D01*
X107377Y-51938D01*
X107138Y-51948D01*
X106965Y-52020D01*
X106932Y-52121D01*
X107283Y-52472D01*
X107634Y-52121D01*
X107634Y-52262D01*
X107354Y-52543D01*
X107705Y-52894D01*
X107806Y-52861D01*
X107887Y-52637D01*
X107887Y-55920D01*
X107883Y-55909D01*
X107883Y-54843D01*
X107883Y-54143D01*
X107845Y-54051D01*
X107775Y-53981D01*
X107683Y-53943D01*
X107634Y-53943D01*
X107634Y-52965D01*
X107283Y-52614D01*
X107212Y-52684D01*
X107212Y-52543D01*
X106861Y-52191D01*
X106760Y-52225D01*
X106678Y-52449D01*
X106689Y-52688D01*
X106760Y-52861D01*
X106861Y-52894D01*
X107212Y-52543D01*
X107212Y-52684D01*
X106932Y-52965D01*
X106965Y-53065D01*
X107189Y-53147D01*
X107428Y-53137D01*
X107601Y-53065D01*
X107634Y-52965D01*
X107634Y-53943D01*
X107583Y-53943D01*
X106883Y-53943D01*
X106792Y-53981D01*
X106721Y-54051D01*
X106683Y-54143D01*
X106683Y-54242D01*
X106683Y-54942D01*
X106721Y-55034D01*
X106791Y-55105D01*
X106883Y-55143D01*
X106982Y-55143D01*
X107682Y-55143D01*
X107774Y-55105D01*
X107845Y-55035D01*
X107883Y-54943D01*
X107883Y-54843D01*
X107883Y-55909D01*
X107850Y-55829D01*
X107757Y-55805D01*
X107686Y-55875D01*
X107686Y-55734D01*
X107662Y-55641D01*
X107465Y-55572D01*
X107257Y-55583D01*
X107116Y-55641D01*
X107092Y-55734D01*
X107389Y-56031D01*
X107686Y-55734D01*
X107686Y-55875D01*
X107460Y-56102D01*
X107757Y-56399D01*
X107850Y-56375D01*
X107919Y-56178D01*
X107919Y-57359D01*
X107908Y-57150D01*
X107850Y-57010D01*
X107757Y-56986D01*
X107686Y-57057D01*
X107686Y-56915D01*
X107686Y-56470D01*
X107389Y-56173D01*
X107319Y-56243D01*
X107319Y-56102D01*
X107021Y-55805D01*
X106929Y-55829D01*
X106890Y-55939D01*
X106835Y-55805D01*
X106687Y-55657D01*
X106494Y-55577D01*
X106285Y-55577D01*
X106092Y-55657D01*
X105944Y-55804D01*
X105864Y-55997D01*
X105864Y-56206D01*
X105944Y-56399D01*
X106091Y-56547D01*
X106284Y-56627D01*
X106493Y-56627D01*
X106686Y-56547D01*
X106834Y-56400D01*
X106887Y-56273D01*
X106929Y-56375D01*
X107021Y-56399D01*
X107319Y-56102D01*
X107319Y-56243D01*
X107092Y-56470D01*
X107116Y-56562D01*
X107313Y-56632D01*
X107522Y-56620D01*
X107662Y-56562D01*
X107686Y-56470D01*
X107686Y-56915D01*
X107662Y-56822D01*
X107465Y-56753D01*
X107257Y-56764D01*
X107116Y-56822D01*
X107092Y-56915D01*
X107389Y-57212D01*
X107686Y-56915D01*
X107686Y-57057D01*
X107460Y-57283D01*
X107757Y-57580D01*
X107850Y-57556D01*
X107919Y-57359D01*
X107919Y-59093D01*
X107686Y-59325D01*
X107686Y-57651D01*
X107389Y-57354D01*
X107319Y-57424D01*
X107319Y-57283D01*
X107021Y-56986D01*
X106929Y-57010D01*
X106890Y-57120D01*
X106835Y-56986D01*
X106687Y-56838D01*
X106494Y-56758D01*
X106285Y-56758D01*
X106092Y-56838D01*
X105944Y-56985D01*
X105864Y-57178D01*
X105864Y-57387D01*
X105944Y-57580D01*
X106091Y-57728D01*
X106284Y-57808D01*
X106493Y-57808D01*
X106686Y-57728D01*
X106834Y-57581D01*
X106887Y-57454D01*
X106929Y-57556D01*
X107021Y-57580D01*
X107319Y-57283D01*
X107319Y-57424D01*
X107092Y-57651D01*
X107116Y-57744D01*
X107313Y-57813D01*
X107522Y-57802D01*
X107662Y-57744D01*
X107686Y-57651D01*
X107686Y-59325D01*
X105878Y-61134D01*
X105813Y-61231D01*
X105790Y-61346D01*
X105790Y-75153D01*
X105813Y-75268D01*
X105878Y-75365D01*
X106208Y-75695D01*
X106191Y-75737D01*
X106190Y-75977D01*
X106282Y-76200D01*
X106301Y-76219D01*
X106084Y-76436D01*
X106021Y-76530D01*
X105999Y-76641D01*
X105999Y-80352D01*
X106021Y-80463D01*
X106084Y-80557D01*
X106212Y-80685D01*
X106191Y-80737D01*
X106190Y-80977D01*
X106282Y-81200D01*
X106440Y-81358D01*
X106283Y-81515D01*
X106191Y-81737D01*
X106190Y-81977D01*
X106282Y-82200D01*
X106452Y-82370D01*
X106460Y-82373D01*
X106440Y-82433D01*
X106795Y-82787D01*
X107149Y-82433D01*
X107129Y-82373D01*
X107137Y-82370D01*
X107307Y-82201D01*
X107399Y-81979D01*
X107399Y-81738D01*
X107307Y-81516D01*
X107149Y-81358D01*
X107307Y-81201D01*
X107399Y-80979D01*
X107399Y-80738D01*
X107307Y-80516D01*
X107149Y-80358D01*
X107307Y-80201D01*
X107399Y-79979D01*
X107399Y-79738D01*
X107377Y-79685D01*
X110000Y-77063D01*
X110000Y-77063D01*
X110000Y-77063D01*
X110063Y-76969D01*
X110085Y-76858D01*
X110085Y-76858D01*
X110085Y-76858D01*
X110085Y-71277D01*
X112247Y-69115D01*
X112282Y-69200D01*
X112440Y-69358D01*
X112283Y-69515D01*
X112191Y-69737D01*
X112190Y-69977D01*
X112282Y-70200D01*
X112440Y-70358D01*
X112283Y-70515D01*
X112191Y-70737D01*
X112190Y-70977D01*
X112282Y-71200D01*
X112440Y-71358D01*
X112283Y-71515D01*
X112191Y-71737D01*
X112190Y-71977D01*
X112282Y-72200D01*
X112440Y-72358D01*
X112283Y-72515D01*
X112191Y-72737D01*
X112190Y-72977D01*
X112282Y-73200D01*
X112440Y-73358D01*
X112283Y-73515D01*
X112191Y-73737D01*
X112190Y-73977D01*
X112282Y-74200D01*
X112440Y-74358D01*
X112283Y-74515D01*
X112191Y-74737D01*
X112190Y-74977D01*
X112282Y-75200D01*
X112440Y-75358D01*
X112283Y-75515D01*
X112191Y-75737D01*
X112190Y-75977D01*
X112282Y-76200D01*
X112440Y-76358D01*
X112283Y-76515D01*
X112191Y-76737D01*
X112190Y-76977D01*
X112282Y-77200D01*
X112440Y-77358D01*
X112283Y-77515D01*
X112191Y-77737D01*
X112190Y-77977D01*
X112282Y-78200D01*
X112440Y-78358D01*
X112283Y-78515D01*
X112191Y-78737D01*
X112190Y-78977D01*
X112282Y-79200D01*
X112440Y-79358D01*
X112283Y-79515D01*
X112191Y-79737D01*
X112190Y-79977D01*
X112282Y-80200D01*
X112440Y-80358D01*
X112283Y-80515D01*
X112191Y-80737D01*
X112190Y-80977D01*
X112282Y-81200D01*
X112440Y-81358D01*
X112283Y-81515D01*
X112191Y-81737D01*
X112190Y-81977D01*
X112282Y-82200D01*
X112440Y-82358D01*
X112283Y-82515D01*
X112191Y-82737D01*
X112190Y-82977D01*
X112282Y-83200D01*
X112440Y-83358D01*
X112283Y-83515D01*
X112191Y-83737D01*
X112190Y-83977D01*
X112282Y-84200D01*
X112452Y-84370D01*
X112674Y-84462D01*
X112914Y-84462D01*
X113137Y-84370D01*
X113307Y-84201D01*
X113320Y-84168D01*
X113673Y-84168D01*
X113791Y-84144D01*
X113892Y-84077D01*
X114940Y-83029D01*
X114941Y-83030D01*
X115160Y-83030D01*
X115162Y-83029D01*
X115357Y-83224D01*
X115457Y-83291D01*
X115576Y-83315D01*
X115641Y-83315D01*
X115638Y-83318D01*
X115683Y-83364D01*
X115590Y-83388D01*
X115551Y-83498D01*
X115496Y-83364D01*
X115348Y-83216D01*
X115156Y-83136D01*
X114947Y-83136D01*
X114754Y-83216D01*
X114606Y-83363D01*
X114526Y-83556D01*
X114526Y-83765D01*
X114605Y-83958D01*
X114741Y-84093D01*
X114741Y-84410D01*
X114606Y-84544D01*
X114526Y-84737D01*
X114526Y-84946D01*
X114605Y-85139D01*
X114753Y-85287D01*
X114946Y-85367D01*
X115155Y-85367D01*
X115348Y-85287D01*
X115495Y-85140D01*
X115548Y-85013D01*
X115590Y-85115D01*
X115683Y-85139D01*
X115980Y-84842D01*
X115683Y-84545D01*
X115590Y-84569D01*
X115551Y-84679D01*
X115496Y-84545D01*
X115361Y-84409D01*
X115361Y-84093D01*
X115495Y-83959D01*
X115548Y-83832D01*
X115590Y-83934D01*
X115683Y-83958D01*
X115980Y-83661D01*
X115974Y-83655D01*
X116045Y-83585D01*
X116051Y-83590D01*
X116056Y-83585D01*
X116127Y-83655D01*
X116121Y-83661D01*
X116418Y-83958D01*
X116511Y-83934D01*
X116514Y-83925D01*
X118114Y-85525D01*
X118215Y-85592D01*
X118333Y-85615D01*
X135281Y-85615D01*
X135399Y-85592D01*
X135500Y-85525D01*
X135520Y-85505D01*
X135566Y-85551D01*
X135657Y-85589D01*
X135757Y-85589D01*
X136357Y-85589D01*
X136449Y-85551D01*
X136519Y-85481D01*
X136557Y-85389D01*
X136557Y-85367D01*
X136695Y-85505D01*
X136897Y-85589D01*
X137116Y-85589D01*
X137319Y-85505D01*
X137473Y-85351D01*
X137507Y-85269D01*
X137541Y-85350D01*
X137695Y-85505D01*
X137897Y-85589D01*
X138116Y-85589D01*
X138319Y-85505D01*
X138473Y-85351D01*
X138557Y-85149D01*
X138557Y-84930D01*
X138557Y-86344D01*
X116581Y-86344D01*
X116581Y-84918D01*
X116569Y-84709D01*
X116511Y-84569D01*
X116418Y-84545D01*
X116348Y-84616D01*
X116348Y-84474D01*
X116348Y-84029D01*
X116051Y-83732D01*
X115754Y-84029D01*
X115778Y-84121D01*
X115975Y-84191D01*
X116183Y-84179D01*
X116323Y-84121D01*
X116348Y-84029D01*
X116348Y-84474D01*
X116323Y-84381D01*
X116126Y-84312D01*
X115918Y-84323D01*
X115778Y-84381D01*
X115754Y-84474D01*
X116051Y-84771D01*
X116348Y-84474D01*
X116348Y-84616D01*
X116121Y-84842D01*
X116418Y-85139D01*
X116511Y-85115D01*
X116581Y-84918D01*
X116581Y-86344D01*
X116348Y-86344D01*
X116348Y-85210D01*
X116051Y-84913D01*
X115980Y-84983D01*
X115754Y-85210D01*
X115778Y-85303D01*
X115975Y-85372D01*
X116183Y-85361D01*
X116323Y-85303D01*
X116348Y-85210D01*
X116348Y-86344D01*
X106945Y-86344D01*
X107224Y-86229D01*
X107488Y-85965D01*
X107631Y-85620D01*
X107632Y-85247D01*
X107489Y-84901D01*
X107404Y-84816D01*
X107404Y-82953D01*
X107394Y-82712D01*
X107321Y-82537D01*
X107220Y-82503D01*
X106865Y-82858D01*
X107220Y-83212D01*
X107321Y-83178D01*
X107404Y-82953D01*
X107404Y-84816D01*
X107399Y-84812D01*
X107399Y-83738D01*
X107307Y-83516D01*
X107138Y-83346D01*
X107129Y-83342D01*
X107149Y-83283D01*
X106795Y-82928D01*
X106724Y-82999D01*
X106724Y-82858D01*
X106370Y-82503D01*
X106269Y-82537D01*
X106186Y-82763D01*
X106196Y-83003D01*
X106269Y-83178D01*
X106370Y-83212D01*
X106724Y-82858D01*
X106724Y-82999D01*
X106440Y-83283D01*
X106460Y-83342D01*
X106453Y-83345D01*
X106283Y-83515D01*
X106191Y-83737D01*
X106190Y-83977D01*
X106282Y-84200D01*
X106452Y-84370D01*
X106674Y-84462D01*
X106914Y-84462D01*
X107137Y-84370D01*
X107307Y-84201D01*
X107399Y-83979D01*
X107399Y-83738D01*
X107399Y-84812D01*
X107225Y-84637D01*
X106880Y-84494D01*
X106506Y-84493D01*
X106161Y-84636D01*
X105897Y-84900D01*
X105754Y-85245D01*
X105753Y-85619D01*
X105896Y-85964D01*
X106160Y-86228D01*
X106439Y-86344D01*
X105584Y-86344D01*
X105584Y-33734D01*
X113959Y-33734D01*
X113753Y-33819D01*
X113544Y-34027D01*
X113431Y-34300D01*
X113430Y-34595D01*
X113543Y-34868D01*
X113752Y-35077D01*
X114024Y-35190D01*
X114320Y-35191D01*
X114593Y-35078D01*
X114802Y-34869D01*
X114915Y-34597D01*
X114915Y-34301D01*
X114802Y-34028D01*
X114594Y-33820D01*
X114387Y-33734D01*
X117896Y-33734D01*
X117690Y-33819D01*
X117481Y-34027D01*
X117368Y-34300D01*
X117367Y-34595D01*
X117480Y-34868D01*
X117689Y-35077D01*
X117961Y-35190D01*
X118257Y-35191D01*
X118530Y-35078D01*
X118739Y-34869D01*
X118852Y-34597D01*
X118852Y-34301D01*
X118739Y-34028D01*
X118531Y-33820D01*
X118324Y-33734D01*
X123801Y-33734D01*
X123595Y-33819D01*
X123386Y-34027D01*
X123273Y-34300D01*
X123273Y-34595D01*
X123386Y-34868D01*
X123594Y-35077D01*
X123867Y-35190D01*
X124162Y-35191D01*
X124435Y-35078D01*
X124644Y-34869D01*
X124757Y-34597D01*
X124758Y-34301D01*
X124645Y-34028D01*
X124436Y-33820D01*
X124230Y-33734D01*
X127738Y-33734D01*
X127532Y-33819D01*
X127323Y-34027D01*
X127210Y-34300D01*
X127210Y-34595D01*
X127323Y-34868D01*
X127531Y-35077D01*
X127804Y-35190D01*
X128099Y-35191D01*
X128372Y-35078D01*
X128581Y-34869D01*
X128694Y-34597D01*
X128695Y-34301D01*
X128582Y-34028D01*
X128373Y-33820D01*
X128167Y-33734D01*
X132296Y-33734D01*
X132256Y-33773D01*
X132181Y-33956D01*
X132181Y-34153D01*
X132256Y-34335D01*
X132395Y-34475D01*
X132568Y-34547D01*
X132396Y-34618D01*
X132256Y-34758D01*
X132181Y-34940D01*
X132181Y-35137D01*
X132256Y-35320D01*
X132395Y-35459D01*
X132578Y-35535D01*
X132775Y-35535D01*
X132957Y-35460D01*
X133097Y-35320D01*
X133173Y-35138D01*
X133173Y-34941D01*
X133097Y-34758D01*
X132958Y-34619D01*
X132785Y-34547D01*
X132957Y-34475D01*
X133097Y-34336D01*
X133173Y-34154D01*
X133173Y-33956D01*
X133097Y-33774D01*
X133057Y-33734D01*
X136233Y-33734D01*
X136193Y-33773D01*
X136118Y-33956D01*
X136118Y-34153D01*
X136193Y-34335D01*
X136332Y-34475D01*
X136505Y-34547D01*
X136333Y-34618D01*
X136193Y-34758D01*
X136118Y-34940D01*
X136118Y-35137D01*
X136193Y-35320D01*
X136332Y-35459D01*
X136515Y-35535D01*
X136712Y-35535D01*
X136894Y-35460D01*
X137034Y-35320D01*
X137110Y-35138D01*
X137110Y-34941D01*
X137034Y-34758D01*
X136895Y-34619D01*
X136722Y-34547D01*
X136894Y-34475D01*
X137034Y-34336D01*
X137110Y-34154D01*
X137110Y-33956D01*
X137034Y-33774D01*
X136994Y-33734D01*
X139494Y-33734D01*
X139494Y-86344D01*
M02*
