G04 (created by PCBNEW (2013-07-07 BZR 4022)-stable) date 22/05/2015 13:43:49*
%MOIN*%
G04 Gerber Fmt 3.4, Leading zero omitted, Abs format*
%FSLAX34Y34*%
G01*
G70*
G90*
G04 APERTURE LIST*
%ADD10C,0.00590551*%
%ADD11C,0.07*%
%ADD12R,0.07X0.07*%
%ADD13R,0.0590551X0.1*%
%ADD14O,0.0590551X0.0787402*%
%ADD15C,0.0708661*%
%ADD16R,0.11811X0.11811*%
%ADD17C,0.055*%
%ADD18R,0.06X0.06*%
%ADD19C,0.06*%
%ADD20R,0.062X0.09*%
%ADD21O,0.062X0.09*%
%ADD22R,0.055X0.055*%
%ADD23C,0.0984252*%
%ADD24C,0.189*%
%ADD25R,0.189X0.189*%
%ADD26C,0.0787402*%
%ADD27C,0.0492126*%
G04 APERTURE END LIST*
G54D10*
G54D11*
X107086Y-48212D03*
X107086Y-49212D03*
G54D12*
X107086Y-50212D03*
G54D13*
X133858Y-84645D03*
X132858Y-84645D03*
X131858Y-84645D03*
X130858Y-84645D03*
X129858Y-84645D03*
X128858Y-84645D03*
X127858Y-84645D03*
X126858Y-84645D03*
X125858Y-84645D03*
X124858Y-84645D03*
X123858Y-84645D03*
X122858Y-84645D03*
X121858Y-84645D03*
X120858Y-84645D03*
X119858Y-84645D03*
X118858Y-84645D03*
X118858Y-75645D03*
X119858Y-75645D03*
X120858Y-75645D03*
X121858Y-75645D03*
X122858Y-75645D03*
X123858Y-75645D03*
X124858Y-75645D03*
X125858Y-75645D03*
X126858Y-75645D03*
X127858Y-75645D03*
X128858Y-75645D03*
X129858Y-75645D03*
X130858Y-75645D03*
X131858Y-75645D03*
X132858Y-75645D03*
X133858Y-75645D03*
G54D14*
X129526Y-54910D03*
X130313Y-54910D03*
X131101Y-54910D03*
X128738Y-54910D03*
G54D15*
X129920Y-49201D03*
X130904Y-49201D03*
X128935Y-49201D03*
G54D16*
X132085Y-52154D03*
X127754Y-52154D03*
G54D14*
X130314Y-42322D03*
X129527Y-42322D03*
X128740Y-42322D03*
X131102Y-42322D03*
G54D15*
X129921Y-48031D03*
X128937Y-48031D03*
X130905Y-48031D03*
G54D16*
X127755Y-45078D03*
X132086Y-45078D03*
G54D17*
X132480Y-58177D03*
X132480Y-57177D03*
X131299Y-57374D03*
X131299Y-58374D03*
X134295Y-43830D03*
X134295Y-42830D03*
X134251Y-46169D03*
X134251Y-45169D03*
X114370Y-42610D03*
X114370Y-43610D03*
X135660Y-46180D03*
X135660Y-45180D03*
X115485Y-43520D03*
X115485Y-42520D03*
X135910Y-49610D03*
X134910Y-49610D03*
X135910Y-48225D03*
X134910Y-48225D03*
G54D18*
X134433Y-56692D03*
G54D19*
X135433Y-56692D03*
X136433Y-56692D03*
G54D18*
X136007Y-85039D03*
G54D19*
X137007Y-85039D03*
X138007Y-85039D03*
G54D18*
X116051Y-82480D03*
G54D19*
X115051Y-82480D03*
G54D18*
X115354Y-65838D03*
G54D19*
X115354Y-66838D03*
G54D18*
X115354Y-72728D03*
G54D19*
X115354Y-73728D03*
G54D20*
X119110Y-44807D03*
G54D21*
X118110Y-44807D03*
X117110Y-44807D03*
X117110Y-41807D03*
X118110Y-41807D03*
X119110Y-41807D03*
G54D22*
X117003Y-46653D03*
G54D17*
X120003Y-46653D03*
G54D12*
X107283Y-41519D03*
G54D11*
X107283Y-43519D03*
G54D12*
X107283Y-54543D03*
G54D11*
X107283Y-52543D03*
G54D12*
X119307Y-57874D03*
G54D11*
X117307Y-57874D03*
G54D12*
X111992Y-57874D03*
G54D11*
X113992Y-57874D03*
G54D17*
X114370Y-63673D03*
X114370Y-64673D03*
X115551Y-63673D03*
X115551Y-64673D03*
X115051Y-84842D03*
X116051Y-84842D03*
X115051Y-83661D03*
X116051Y-83661D03*
X106389Y-56102D03*
X107389Y-56102D03*
X106389Y-57283D03*
X107389Y-57283D03*
X106586Y-46259D03*
X107586Y-46259D03*
X106586Y-45078D03*
X107586Y-45078D03*
G54D15*
X112795Y-83858D03*
X112795Y-82858D03*
X112795Y-81858D03*
X112795Y-80858D03*
X112795Y-79858D03*
X112795Y-78858D03*
X112795Y-77858D03*
X112795Y-76858D03*
X112795Y-75858D03*
X112795Y-74858D03*
X112795Y-73858D03*
X112795Y-72858D03*
X112795Y-71858D03*
X112795Y-70858D03*
X112795Y-69858D03*
X112795Y-68858D03*
X112795Y-67858D03*
X112795Y-66858D03*
X112795Y-65858D03*
X112795Y-64858D03*
X106795Y-64858D03*
X106795Y-65858D03*
X106795Y-66858D03*
X106795Y-67858D03*
X106795Y-68858D03*
X106795Y-69858D03*
X106795Y-70858D03*
X106795Y-71858D03*
X106795Y-72858D03*
X106795Y-73858D03*
X106795Y-74858D03*
X106795Y-75858D03*
X106795Y-76858D03*
X106795Y-77858D03*
X106795Y-78858D03*
X106795Y-79858D03*
X106795Y-80858D03*
X106795Y-81858D03*
X106795Y-82858D03*
X106795Y-83858D03*
X114173Y-54692D03*
X115173Y-54692D03*
X116173Y-54692D03*
X117173Y-54692D03*
X118173Y-54692D03*
X119173Y-54692D03*
X120173Y-54692D03*
X121173Y-54692D03*
G54D23*
X116141Y-38385D03*
X119094Y-38385D03*
X113188Y-38385D03*
X114173Y-34448D03*
X118110Y-34448D03*
X114173Y-39370D03*
X118110Y-39370D03*
X125984Y-38385D03*
X128937Y-38385D03*
X123031Y-38385D03*
X124015Y-34448D03*
X127952Y-34448D03*
X124015Y-39370D03*
X127952Y-39370D03*
G54D24*
X108267Y-36417D03*
G54D25*
X108267Y-38817D03*
G54D24*
X110267Y-37317D03*
G54D26*
X133661Y-37007D03*
X135629Y-37007D03*
X132677Y-37007D03*
X136614Y-37007D03*
X134645Y-35039D03*
G54D27*
X132677Y-35039D03*
X136614Y-35039D03*
X132677Y-34055D03*
X136614Y-34055D03*
X134645Y-37007D03*
G54D18*
X115157Y-79421D03*
G54D19*
X115157Y-80421D03*
G54D17*
X115157Y-78255D03*
X115157Y-77255D03*
G54D15*
X121598Y-56570D03*
X122598Y-56570D03*
X123598Y-56570D03*
X124598Y-56570D03*
X125598Y-56570D03*
G54D26*
X117898Y-67200D03*
X128921Y-67200D03*
X128921Y-78223D03*
X117898Y-78223D03*
M02*
