M48
INCH,TZ
T1C0.025
T2C0.032
T3C0.039
T4C0.039
T5C0.040
T6C0.043
T7C0.055
T8C0.063
T9C0.118
%
G90
G05
T1
X112595Y-47675
X113565Y-47390
X113701Y-71575
X113701Y-72835
X115748Y-71772
X115787Y-70551
X115787Y-71102
X115860Y-45450
X116220Y-72323
X116299Y-76417
X116654Y-74567
X116693Y-76772
X116732Y-71811
X116850Y-71260
X117008Y-75039
X117047Y-70748
X117047Y-76457
X120450Y-41740
X123189Y-73937
X123595Y-42880
X124500Y-42900
X134920Y-44980
T2
X106390Y-56102
X106390Y-57283
X106587Y-45079
X106587Y-46260
X107390Y-56102
X107390Y-57283
X107587Y-45079
X107587Y-46260
X114370Y-42610
X114370Y-43610
X114370Y-63673
X114370Y-64673
X115051Y-83661
X115051Y-84843
X115157Y-77256
X115157Y-78256
X115485Y-42520
X115485Y-43520
X115551Y-63673
X115551Y-64673
X116051Y-83661
X116051Y-84843
X117004Y-46654
X117110Y-41807
X117110Y-44807
X118110Y-41807
X118110Y-44807
X119110Y-41807
X119110Y-44807
X120004Y-46654
X131299Y-57374
X131299Y-58374
X132480Y-57177
X132480Y-58177
X134252Y-45169
X134252Y-46169
X134295Y-42830
X134295Y-43830
X134910Y-48225
X134910Y-49610
X135660Y-45180
X135660Y-46180
X135910Y-48225
X135910Y-49610
T3
X106752Y-61614
X107752Y-61614
X108752Y-61614
X109752Y-61614
X110752Y-61614
X111752Y-61614
T4
X128739Y-54910
X128740Y-42323
X129526Y-54910
X129528Y-42323
X130314Y-54910
X130315Y-42323
X131101Y-54910
X131102Y-42323
T5
X107087Y-48213
X107087Y-49213
X107087Y-50213
X107283Y-41520
X107283Y-43520
X107283Y-52543
X107283Y-54543
X111992Y-57874
X113992Y-57874
X115051Y-82480
X115157Y-79421
X115157Y-80421
X115354Y-65839
X115354Y-66839
X115354Y-72728
X115354Y-73728
X116051Y-82480
X117307Y-57874
X118858Y-75646
X118858Y-84646
X119307Y-57874
X119858Y-75646
X119858Y-84646
X120858Y-75646
X120858Y-84646
X121858Y-75646
X121858Y-84646
X122858Y-75646
X122858Y-84646
X123858Y-75646
X123858Y-84646
X124858Y-75646
X124858Y-84646
X125858Y-75646
X125858Y-84646
X126858Y-75646
X126858Y-84646
X127858Y-75646
X127858Y-84646
X128858Y-75646
X128858Y-84646
X129858Y-75646
X129858Y-84646
X130858Y-75646
X130858Y-84646
X131858Y-75646
X131858Y-84646
X132858Y-75646
X132858Y-84646
X133858Y-75646
X133858Y-84646
X134433Y-56693
X135433Y-56693
X136008Y-85039
X136433Y-56693
X137008Y-85039
X138008Y-85039
T6
X106795Y-64858
X106795Y-65858
X106795Y-66858
X106795Y-67858
X106795Y-68858
X106795Y-69858
X106795Y-70858
X106795Y-71858
X106795Y-72858
X106795Y-73858
X106795Y-74858
X106795Y-75858
X106795Y-76858
X106795Y-77858
X106795Y-78858
X106795Y-79858
X106795Y-80858
X106795Y-81858
X106795Y-82858
X106795Y-83858
X112795Y-64858
X112795Y-65858
X112795Y-66858
X112795Y-67858
X112795Y-68858
X112795Y-69858
X112795Y-70858
X112795Y-71858
X112795Y-72858
X112795Y-73858
X112795Y-74858
X112795Y-75858
X112795Y-76858
X112795Y-77858
X112795Y-78858
X112795Y-79858
X112795Y-80858
X112795Y-81858
X112795Y-82858
X112795Y-83858
X114173Y-54692
X115173Y-54692
X116173Y-54692
X117173Y-54692
X118173Y-54692
X119173Y-54692
X120173Y-54692
X121173Y-54692
X121599Y-56570
X122599Y-56570
X123599Y-56570
X124599Y-56570
X125599Y-56570
X128936Y-49201
X128937Y-48031
X129920Y-49201
X129921Y-48031
X130904Y-49201
X130906Y-48031
T7
X113189Y-38386
X114173Y-39370
X116142Y-38386
X118110Y-39370
X119094Y-38386
X123031Y-38386
X124016Y-39370
X125984Y-38386
X127953Y-39370
X128937Y-38386
T8
X132677Y-37008
X133661Y-37008
X134646Y-35039
X135630Y-37008
X136614Y-37008
T9
X108268Y-36417
X108268Y-38817
X110268Y-37317
T0
M30
