G04 (created by PCBNEW (2013-07-07 BZR 4022)-stable) date 22/05/2015 13:43:49*
%MOIN*%
G04 Gerber Fmt 3.4, Leading zero omitted, Abs format*
%FSLAX34Y34*%
G01*
G70*
G90*
G04 APERTURE LIST*
%ADD10C,0.00590551*%
%ADD11C,0.07*%
%ADD12R,0.07X0.07*%
%ADD13R,0.0590551X0.1*%
%ADD14O,0.0590551X0.0787402*%
%ADD15C,0.0708661*%
%ADD16R,0.11811X0.11811*%
%ADD17C,0.055*%
%ADD18R,0.06X0.06*%
%ADD19C,0.06*%
%ADD20R,0.062X0.09*%
%ADD21O,0.062X0.09*%
%ADD22R,0.055X0.055*%
%ADD23C,0.0984252*%
%ADD24C,0.189*%
%ADD25R,0.189X0.189*%
%ADD26C,0.0787402*%
%ADD27O,0.0593X0.1187*%
%ADD28C,0.035*%
%ADD29C,0.015*%
%ADD30C,0.01*%
%ADD31C,0.008*%
%ADD32C,0.012*%
G04 APERTURE END LIST*
G54D10*
G54D11*
X107086Y-48212D03*
X107086Y-49212D03*
G54D12*
X107086Y-50212D03*
G54D13*
X133858Y-84645D03*
X132858Y-84645D03*
X131858Y-84645D03*
X130858Y-84645D03*
X129858Y-84645D03*
X128858Y-84645D03*
X127858Y-84645D03*
X126858Y-84645D03*
X125858Y-84645D03*
X124858Y-84645D03*
X123858Y-84645D03*
X122858Y-84645D03*
X121858Y-84645D03*
X120858Y-84645D03*
X119858Y-84645D03*
X118858Y-84645D03*
X118858Y-75645D03*
X119858Y-75645D03*
X120858Y-75645D03*
X121858Y-75645D03*
X122858Y-75645D03*
X123858Y-75645D03*
X124858Y-75645D03*
X125858Y-75645D03*
X126858Y-75645D03*
X127858Y-75645D03*
X128858Y-75645D03*
X129858Y-75645D03*
X130858Y-75645D03*
X131858Y-75645D03*
X132858Y-75645D03*
X133858Y-75645D03*
G54D14*
X129526Y-54910D03*
X130313Y-54910D03*
X131101Y-54910D03*
X128738Y-54910D03*
G54D15*
X129920Y-49201D03*
X130904Y-49201D03*
X128935Y-49201D03*
G54D16*
X132085Y-52154D03*
X127754Y-52154D03*
G54D14*
X130314Y-42322D03*
X129527Y-42322D03*
X128740Y-42322D03*
X131102Y-42322D03*
G54D15*
X129921Y-48031D03*
X128937Y-48031D03*
X130905Y-48031D03*
G54D16*
X127755Y-45078D03*
X132086Y-45078D03*
G54D17*
X132480Y-58177D03*
X132480Y-57177D03*
X131299Y-57374D03*
X131299Y-58374D03*
X134295Y-43830D03*
X134295Y-42830D03*
X134251Y-46169D03*
X134251Y-45169D03*
X114370Y-42610D03*
X114370Y-43610D03*
X135660Y-46180D03*
X135660Y-45180D03*
X115485Y-43520D03*
X115485Y-42520D03*
X135910Y-49610D03*
X134910Y-49610D03*
X135910Y-48225D03*
X134910Y-48225D03*
G54D18*
X134433Y-56692D03*
G54D19*
X135433Y-56692D03*
X136433Y-56692D03*
G54D18*
X136007Y-85039D03*
G54D19*
X137007Y-85039D03*
X138007Y-85039D03*
G54D18*
X116051Y-82480D03*
G54D19*
X115051Y-82480D03*
G54D18*
X115354Y-65838D03*
G54D19*
X115354Y-66838D03*
G54D18*
X115354Y-72728D03*
G54D19*
X115354Y-73728D03*
G54D20*
X119110Y-44807D03*
G54D21*
X118110Y-44807D03*
X117110Y-44807D03*
X117110Y-41807D03*
X118110Y-41807D03*
X119110Y-41807D03*
G54D22*
X117003Y-46653D03*
G54D17*
X120003Y-46653D03*
G54D12*
X107283Y-41519D03*
G54D11*
X107283Y-43519D03*
G54D12*
X107283Y-54543D03*
G54D11*
X107283Y-52543D03*
G54D12*
X119307Y-57874D03*
G54D11*
X117307Y-57874D03*
G54D12*
X111992Y-57874D03*
G54D11*
X113992Y-57874D03*
G54D17*
X114370Y-63673D03*
X114370Y-64673D03*
X115551Y-63673D03*
X115551Y-64673D03*
X115051Y-84842D03*
X116051Y-84842D03*
X115051Y-83661D03*
X116051Y-83661D03*
X106389Y-56102D03*
X107389Y-56102D03*
X106389Y-57283D03*
X107389Y-57283D03*
X106586Y-46259D03*
X107586Y-46259D03*
X106586Y-45078D03*
X107586Y-45078D03*
G54D15*
X112795Y-83858D03*
X112795Y-82858D03*
X112795Y-81858D03*
X112795Y-80858D03*
X112795Y-79858D03*
X112795Y-78858D03*
X112795Y-77858D03*
X112795Y-76858D03*
X112795Y-75858D03*
X112795Y-74858D03*
X112795Y-73858D03*
X112795Y-72858D03*
X112795Y-71858D03*
X112795Y-70858D03*
X112795Y-69858D03*
X112795Y-68858D03*
X112795Y-67858D03*
X112795Y-66858D03*
X112795Y-65858D03*
X112795Y-64858D03*
X106795Y-64858D03*
X106795Y-65858D03*
X106795Y-66858D03*
X106795Y-67858D03*
X106795Y-68858D03*
X106795Y-69858D03*
X106795Y-70858D03*
X106795Y-71858D03*
X106795Y-72858D03*
X106795Y-73858D03*
X106795Y-74858D03*
X106795Y-75858D03*
X106795Y-76858D03*
X106795Y-77858D03*
X106795Y-78858D03*
X106795Y-79858D03*
X106795Y-80858D03*
X106795Y-81858D03*
X106795Y-82858D03*
X106795Y-83858D03*
X114173Y-54692D03*
X115173Y-54692D03*
X116173Y-54692D03*
X117173Y-54692D03*
X118173Y-54692D03*
X119173Y-54692D03*
X120173Y-54692D03*
X121173Y-54692D03*
G54D23*
X116141Y-38385D03*
X119094Y-38385D03*
X113188Y-38385D03*
X114173Y-34448D03*
X118110Y-34448D03*
X114173Y-39370D03*
X118110Y-39370D03*
X125984Y-38385D03*
X128937Y-38385D03*
X123031Y-38385D03*
X124015Y-34448D03*
X127952Y-34448D03*
X124015Y-39370D03*
X127952Y-39370D03*
G54D24*
X108267Y-36417D03*
G54D25*
X108267Y-38817D03*
G54D24*
X110267Y-37317D03*
G54D26*
X133661Y-37007D03*
X135629Y-37007D03*
X132677Y-37007D03*
X136614Y-37007D03*
X134645Y-35039D03*
G54D27*
X106751Y-61614D03*
X107751Y-61614D03*
X108751Y-61614D03*
X109751Y-61614D03*
X110751Y-61614D03*
X111751Y-61614D03*
G54D18*
X115157Y-79421D03*
G54D19*
X115157Y-80421D03*
G54D17*
X115157Y-78255D03*
X115157Y-77255D03*
G54D15*
X121598Y-56570D03*
X122598Y-56570D03*
X123598Y-56570D03*
X124598Y-56570D03*
X125598Y-56570D03*
G54D28*
X116220Y-72322D03*
X116299Y-76417D03*
X134920Y-44980D03*
X124500Y-42900D03*
X123595Y-42880D03*
X120450Y-41740D03*
X112595Y-47675D03*
X113565Y-47390D03*
X113700Y-71574D03*
X113700Y-72834D03*
X116653Y-74566D03*
X116692Y-76771D03*
X115787Y-70551D03*
X117047Y-70748D03*
X116732Y-71811D03*
X115748Y-71771D03*
X115787Y-71102D03*
X116850Y-71259D03*
X123188Y-73937D03*
X117047Y-76456D03*
X117007Y-75039D03*
X115860Y-45450D03*
G54D29*
X115551Y-63673D02*
X114370Y-63673D01*
X115051Y-82480D02*
X115051Y-82192D01*
X115996Y-63673D02*
X115551Y-63673D01*
X116259Y-63937D02*
X115996Y-63673D01*
X116259Y-72283D02*
X116259Y-63937D01*
X116220Y-72322D02*
X116259Y-72283D01*
X116299Y-80944D02*
X116299Y-76417D01*
X115051Y-82192D02*
X116299Y-80944D01*
X112795Y-83858D02*
X113188Y-83858D01*
X114566Y-82480D02*
X115051Y-82480D01*
X113188Y-83858D02*
X114566Y-82480D01*
X134251Y-46169D02*
X134360Y-46169D01*
X134920Y-45610D02*
X134920Y-44980D01*
X134360Y-46169D02*
X134920Y-45610D01*
X134295Y-43830D02*
X125430Y-43830D01*
X125430Y-43830D02*
X124500Y-42900D01*
X123595Y-42880D02*
X122455Y-41740D01*
X122455Y-41740D02*
X120450Y-41740D01*
G54D30*
X135660Y-46180D02*
X135660Y-47975D01*
X135660Y-47975D02*
X135910Y-48225D01*
X135910Y-49610D02*
X135910Y-48225D01*
X134251Y-46169D02*
X135649Y-46169D01*
X135649Y-46169D02*
X135660Y-46180D01*
G54D29*
X119110Y-41807D02*
X119110Y-42529D01*
X110057Y-50212D02*
X107086Y-50212D01*
X112595Y-47675D02*
X110057Y-50212D01*
X113565Y-46997D02*
X113565Y-47390D01*
X116872Y-43690D02*
X113565Y-46997D01*
X117950Y-43690D02*
X116872Y-43690D01*
X119110Y-42529D02*
X117950Y-43690D01*
G54D31*
X115485Y-43520D02*
X115445Y-43520D01*
X118343Y-41040D02*
X119110Y-41807D01*
X116000Y-41040D02*
X118343Y-41040D01*
X114975Y-42065D02*
X116000Y-41040D01*
X114975Y-43050D02*
X114975Y-42065D01*
X115445Y-43520D02*
X114975Y-43050D01*
G54D29*
X108751Y-61614D02*
X108751Y-63200D01*
X110409Y-64858D02*
X112795Y-64858D01*
X108751Y-63200D02*
X110409Y-64858D01*
X106389Y-57283D02*
X106389Y-58594D01*
X108751Y-60956D02*
X108751Y-61614D01*
X106389Y-58594D02*
X108751Y-60956D01*
X106389Y-56102D02*
X106389Y-55437D01*
X106389Y-55437D02*
X107283Y-54543D01*
X106389Y-57283D02*
X106389Y-56102D01*
X107086Y-50212D02*
X107086Y-51102D01*
X106377Y-53637D02*
X107283Y-54543D01*
X106377Y-51811D02*
X106377Y-53637D01*
X107086Y-51102D02*
X106377Y-51811D01*
G54D30*
X115051Y-83661D02*
X115051Y-84842D01*
G54D31*
X112795Y-67858D02*
X114334Y-67858D01*
X114334Y-67858D02*
X115354Y-66838D01*
G54D32*
X134910Y-48225D02*
X132865Y-48225D01*
X129648Y-47320D02*
X128937Y-48031D01*
X131960Y-47320D02*
X129648Y-47320D01*
X132865Y-48225D02*
X131960Y-47320D01*
X134910Y-49610D02*
X132484Y-49610D01*
X132484Y-49610D02*
X130905Y-48031D01*
G54D30*
X132300Y-46485D02*
X132450Y-46485D01*
X135660Y-44900D02*
X135660Y-45180D01*
X135360Y-44600D02*
X135660Y-44900D01*
X133550Y-44600D02*
X135360Y-44600D01*
X133100Y-45050D02*
X133550Y-44600D01*
X133100Y-45835D02*
X133100Y-45050D01*
X132450Y-46485D02*
X133100Y-45835D01*
X130904Y-49201D02*
X130904Y-49735D01*
X128440Y-46485D02*
X132300Y-46485D01*
X127560Y-47365D02*
X128440Y-46485D01*
X127560Y-49540D02*
X127560Y-47365D01*
X128190Y-50170D02*
X127560Y-49540D01*
X130470Y-50170D02*
X128190Y-50170D01*
X130904Y-49735D02*
X130470Y-50170D01*
X128935Y-49201D02*
X128721Y-49201D01*
X134048Y-45169D02*
X134251Y-45169D01*
X132532Y-46685D02*
X134048Y-45169D01*
X128694Y-46685D02*
X132532Y-46685D01*
X127880Y-47500D02*
X128694Y-46685D01*
X127880Y-48360D02*
X127880Y-47500D01*
X128721Y-49201D02*
X127880Y-48360D01*
G54D31*
X115485Y-42520D02*
X116635Y-42520D01*
X116925Y-42810D02*
X117420Y-42810D01*
X116635Y-42520D02*
X116925Y-42810D01*
G54D32*
X112795Y-65858D02*
X112866Y-65858D01*
X118110Y-42599D02*
X118110Y-41807D01*
X117900Y-42810D02*
X118110Y-42599D01*
X117420Y-42810D02*
X117900Y-42810D01*
X113125Y-47105D02*
X117420Y-42810D01*
X113125Y-59140D02*
X113125Y-47105D01*
X113505Y-59520D02*
X113125Y-59140D01*
X113505Y-65220D02*
X113505Y-59520D01*
X112866Y-65858D02*
X113505Y-65220D01*
X113345Y-48690D02*
X113345Y-48399D01*
X124015Y-43674D02*
X124015Y-39370D01*
X120140Y-47550D02*
X124015Y-43674D01*
X114195Y-47550D02*
X120140Y-47550D01*
X113345Y-48399D02*
X114195Y-47550D01*
X112795Y-66858D02*
X112795Y-66829D01*
X113345Y-59048D02*
X113345Y-48690D01*
X113725Y-59428D02*
X113345Y-59048D01*
X113725Y-65899D02*
X113725Y-59428D01*
X112795Y-66829D02*
X113725Y-65899D01*
G54D31*
X113310Y-71338D02*
X113136Y-71338D01*
X112376Y-66858D02*
X112795Y-66858D01*
X112035Y-67200D02*
X112376Y-66858D01*
X112035Y-71070D02*
X112035Y-67200D01*
X112325Y-71360D02*
X112035Y-71070D01*
X113115Y-71360D02*
X112325Y-71360D01*
X113136Y-71338D02*
X113115Y-71360D01*
X119858Y-84645D02*
X119858Y-81314D01*
X113464Y-71338D02*
X113310Y-71338D01*
X113310Y-71338D02*
X113307Y-71338D01*
X113700Y-71574D02*
X113464Y-71338D01*
X115275Y-74409D02*
X113700Y-72834D01*
X116496Y-74409D02*
X115275Y-74409D01*
X116653Y-74566D02*
X116496Y-74409D01*
X116692Y-78149D02*
X116692Y-76771D01*
X119858Y-81314D02*
X116692Y-78149D01*
G54D30*
X120858Y-75645D02*
X120858Y-75110D01*
X113661Y-73724D02*
X112795Y-72858D01*
X113661Y-73811D02*
X113661Y-73724D01*
X115295Y-75445D02*
X113661Y-73811D01*
X117467Y-75445D02*
X115295Y-75445D01*
X118228Y-74685D02*
X117467Y-75445D01*
X120433Y-74685D02*
X118228Y-74685D01*
X120858Y-75110D02*
X120433Y-74685D01*
G54D31*
X128858Y-75645D02*
X128858Y-74763D01*
X114094Y-68858D02*
X112795Y-68858D01*
X115787Y-70551D02*
X114094Y-68858D01*
X117424Y-71124D02*
X117047Y-70748D01*
X117424Y-71972D02*
X117424Y-71124D01*
X119386Y-73935D02*
X117424Y-71972D01*
X122049Y-73935D02*
X119386Y-73935D01*
X122440Y-73543D02*
X122049Y-73935D01*
X127637Y-73543D02*
X122440Y-73543D01*
X128858Y-74763D02*
X127637Y-73543D01*
X112795Y-70858D02*
X114834Y-70858D01*
X124858Y-74897D02*
X124858Y-75645D01*
X124255Y-74295D02*
X124858Y-74897D01*
X119216Y-74295D02*
X124255Y-74295D01*
X116732Y-71811D02*
X119216Y-74295D01*
X114834Y-70858D02*
X115748Y-71771D01*
X114543Y-69858D02*
X112795Y-69858D01*
X115787Y-71102D02*
X114543Y-69858D01*
X117244Y-71653D02*
X116850Y-71259D01*
X117244Y-72047D02*
X117244Y-71653D01*
X119311Y-74115D02*
X117244Y-72047D01*
X123010Y-74115D02*
X119311Y-74115D01*
X123188Y-73937D02*
X123010Y-74115D01*
G54D30*
X121858Y-75645D02*
X121858Y-75204D01*
X116389Y-72728D02*
X115354Y-72728D01*
X118146Y-74485D02*
X116389Y-72728D01*
X121138Y-74485D02*
X118146Y-74485D01*
X121858Y-75204D02*
X121138Y-74485D01*
G54D31*
X112795Y-71858D02*
X113490Y-71858D01*
X122858Y-76157D02*
X122858Y-75645D01*
X121968Y-77047D02*
X122858Y-76157D01*
X117637Y-77047D02*
X121968Y-77047D01*
X117047Y-76456D02*
X117637Y-77047D01*
X117007Y-74251D02*
X117007Y-75039D01*
X116023Y-73267D02*
X117007Y-74251D01*
X114900Y-73267D02*
X116023Y-73267D01*
X113490Y-71858D02*
X114900Y-73267D01*
G54D30*
X115944Y-75984D02*
X117913Y-75984D01*
X117913Y-75984D02*
X118503Y-76574D01*
X119858Y-75645D02*
X119858Y-76204D01*
X119858Y-76204D02*
X119488Y-76574D01*
X119488Y-76574D02*
X118503Y-76574D01*
X114142Y-74858D02*
X112795Y-74858D01*
X115268Y-75984D02*
X114142Y-74858D01*
X115944Y-75984D02*
X115268Y-75984D01*
X118858Y-75645D02*
X115212Y-75645D01*
X113425Y-73858D02*
X112795Y-73858D01*
X115212Y-75645D02*
X113425Y-73858D01*
G54D29*
X130858Y-84645D02*
X130858Y-75645D01*
X130858Y-75645D02*
X131858Y-75645D01*
G54D31*
X115354Y-73728D02*
X115106Y-73728D01*
X110566Y-72858D02*
X106795Y-72858D01*
X111062Y-72362D02*
X110566Y-72858D01*
X113740Y-72362D02*
X111062Y-72362D01*
X115106Y-73728D02*
X113740Y-72362D01*
G54D32*
X127952Y-39370D02*
X131665Y-39370D01*
X134295Y-42000D02*
X134295Y-42830D01*
X131665Y-39370D02*
X134295Y-42000D01*
X119110Y-44807D02*
X119110Y-43759D01*
X118640Y-39370D02*
X118110Y-39370D01*
X119920Y-40650D02*
X118640Y-39370D01*
X119920Y-42950D02*
X119920Y-40650D01*
X119110Y-43759D02*
X119920Y-42950D01*
X120003Y-46653D02*
X120003Y-45700D01*
X120003Y-45700D02*
X119110Y-44807D01*
G54D30*
X117003Y-46593D02*
X117003Y-46653D01*
X115860Y-45450D02*
X117003Y-46593D01*
G54D32*
X117003Y-46653D02*
X117003Y-45913D01*
X117003Y-45913D02*
X118110Y-44807D01*
X114370Y-42610D02*
X114370Y-39566D01*
X114370Y-39566D02*
X114173Y-39370D01*
G54D29*
X106586Y-46259D02*
X106586Y-47712D01*
X106586Y-47712D02*
X107086Y-48212D01*
X106586Y-45078D02*
X106586Y-46259D01*
X107283Y-41519D02*
X107283Y-41850D01*
X106456Y-44948D02*
X106586Y-45078D01*
X106456Y-42677D02*
X106456Y-44948D01*
X107283Y-41850D02*
X106456Y-42677D01*
X108267Y-38817D02*
X108267Y-40535D01*
X108267Y-40535D02*
X107283Y-41519D01*
M02*
