G04 (created by PCBNEW (2013-07-07 BZR 4022)-stable) date 22/05/2015 13:43:49*
%MOIN*%
G04 Gerber Fmt 3.4, Leading zero omitted, Abs format*
%FSLAX34Y34*%
G01*
G70*
G90*
G04 APERTURE LIST*
%ADD10C,0.00590551*%
%ADD11C,0.015*%
%ADD12C,0.006*%
%ADD13C,0.008*%
G04 APERTURE END LIST*
G54D10*
X130707Y-52941D02*
X128935Y-51760D01*
X131888Y-54910D02*
X132282Y-54910D01*
X127557Y-52941D02*
X127557Y-54910D01*
X127557Y-54910D02*
X127951Y-54910D01*
X128345Y-49398D02*
X127557Y-49398D01*
X127557Y-49398D02*
X127557Y-51366D01*
X132282Y-51366D02*
X132282Y-49398D01*
X132282Y-49398D02*
X131494Y-49398D01*
X132282Y-54910D02*
X132282Y-52941D01*
X131033Y-52154D02*
G75*
G03X131033Y-52154I-1113J0D01*
G74*
G01*
X129133Y-44291D02*
X130905Y-45472D01*
X127952Y-42322D02*
X127559Y-42322D01*
X132283Y-44291D02*
X132283Y-42322D01*
X132283Y-42322D02*
X131889Y-42322D01*
X131496Y-47834D02*
X132283Y-47834D01*
X132283Y-47834D02*
X132283Y-45866D01*
X127559Y-45866D02*
X127559Y-47834D01*
X127559Y-47834D02*
X128346Y-47834D01*
X127559Y-42322D02*
X127559Y-44291D01*
X131034Y-45078D02*
G75*
G03X131034Y-45078I-1113J0D01*
G74*
G01*
G54D11*
X132480Y-58177D02*
X132480Y-57177D01*
X133039Y-58177D02*
G75*
G03X133039Y-58177I-559J0D01*
G74*
G01*
X131299Y-57374D02*
X131299Y-58374D01*
X131858Y-57374D02*
G75*
G03X131858Y-57374I-559J0D01*
G74*
G01*
G54D12*
X133933Y-57192D02*
X133933Y-56192D01*
X133933Y-56192D02*
X136933Y-56192D01*
X136933Y-56192D02*
X136933Y-57192D01*
X136933Y-57192D02*
X133933Y-57192D01*
X134933Y-56192D02*
X134933Y-57192D01*
X135507Y-85539D02*
X135507Y-84539D01*
X135507Y-84539D02*
X138507Y-84539D01*
X138507Y-84539D02*
X138507Y-85539D01*
X138507Y-85539D02*
X135507Y-85539D01*
X136507Y-84539D02*
X136507Y-85539D01*
G54D10*
X113573Y-55192D02*
X121773Y-55192D01*
X114673Y-54192D02*
X114673Y-55192D01*
X113773Y-54192D02*
X113573Y-54192D01*
X113573Y-54192D02*
X113573Y-55192D01*
X121573Y-54192D02*
X121773Y-54192D01*
X121773Y-54192D02*
X121773Y-55192D01*
X113673Y-54192D02*
X121673Y-54192D01*
X124923Y-39742D02*
X125173Y-39992D01*
X124923Y-39742D02*
X124673Y-39992D01*
X124923Y-39992D02*
X124923Y-39742D01*
X124923Y-39992D02*
X124923Y-40992D01*
X110173Y-39742D02*
X110423Y-39992D01*
X110173Y-39742D02*
X109923Y-39992D01*
X110173Y-39742D02*
X110173Y-40992D01*
X110173Y-41242D02*
X124923Y-41242D01*
X124923Y-41242D02*
X124923Y-52492D01*
X124923Y-52492D02*
X110173Y-52492D01*
X110173Y-52492D02*
X110173Y-41242D01*
X109423Y-38992D02*
X125673Y-38992D01*
X125673Y-38992D02*
X125673Y-53242D01*
X125673Y-53242D02*
X109423Y-53242D01*
X109423Y-53242D02*
X109423Y-38992D01*
X108580Y-37460D02*
X126297Y-37460D01*
X126297Y-37460D02*
X126297Y-55177D01*
X126297Y-55177D02*
X108580Y-55177D01*
X108580Y-55177D02*
X108580Y-37460D01*
X135629Y-32283D02*
X135629Y-32677D01*
X133661Y-32283D02*
X133661Y-32677D01*
X133858Y-32677D02*
X135433Y-32677D01*
X135433Y-33464D02*
X135433Y-32677D01*
X135433Y-32677D02*
X135629Y-32677D01*
X133661Y-32677D02*
X133858Y-32677D01*
X133858Y-32677D02*
X133858Y-33464D01*
X135629Y-32283D02*
X133661Y-32283D01*
X132283Y-33464D02*
X137007Y-33464D01*
X137007Y-33464D02*
X137007Y-37795D01*
X137007Y-37795D02*
X132283Y-37795D01*
X132283Y-37795D02*
X132283Y-33464D01*
X126165Y-57357D02*
X126165Y-60900D01*
X121047Y-57357D02*
X121047Y-60900D01*
X120654Y-55782D02*
X120654Y-57357D01*
X120654Y-57357D02*
X126559Y-57357D01*
X126559Y-57357D02*
X126559Y-55782D01*
X126559Y-55782D02*
X120654Y-55782D01*
X113173Y-67987D02*
X113173Y-71924D01*
X113173Y-73499D02*
X113173Y-77436D01*
X113173Y-79011D02*
X113173Y-82948D01*
X113173Y-82948D02*
X117110Y-82948D01*
X122622Y-82948D02*
X118685Y-82948D01*
X128134Y-82948D02*
X124197Y-82948D01*
X133646Y-79011D02*
X133646Y-82948D01*
X133646Y-82948D02*
X129709Y-82948D01*
X133646Y-73499D02*
X133646Y-77436D01*
X133646Y-67987D02*
X133646Y-71924D01*
X129709Y-62475D02*
X133646Y-62475D01*
X133646Y-62475D02*
X133646Y-66412D01*
X124197Y-62475D02*
X128134Y-62475D01*
X118685Y-62475D02*
X122622Y-62475D01*
X113173Y-66412D02*
X113173Y-62475D01*
X113173Y-62475D02*
X117110Y-62475D01*
X124197Y-73499D02*
X128134Y-73499D01*
X128134Y-73499D02*
X128134Y-77436D01*
X128134Y-77436D02*
X124197Y-77436D01*
X124197Y-77436D02*
X124197Y-73499D01*
X118685Y-73499D02*
X118685Y-77436D01*
X118685Y-77436D02*
X122622Y-77436D01*
X122622Y-77436D02*
X122622Y-73499D01*
X122622Y-73499D02*
X118685Y-73499D01*
X124197Y-67987D02*
X128134Y-67987D01*
X128134Y-67987D02*
X128134Y-71924D01*
X128134Y-71924D02*
X124197Y-71924D01*
X124197Y-71924D02*
X124197Y-67987D01*
X118685Y-67987D02*
X122622Y-67987D01*
X122622Y-67987D02*
X122622Y-71924D01*
X122622Y-71924D02*
X118685Y-71924D01*
X118685Y-71924D02*
X118685Y-67987D01*
X133646Y-73499D02*
X129709Y-73499D01*
X129709Y-73499D02*
X129709Y-77436D01*
X129709Y-77436D02*
X133646Y-77436D01*
X133646Y-67987D02*
X129709Y-67987D01*
X129709Y-67987D02*
X129709Y-71924D01*
X129709Y-71924D02*
X133646Y-71924D01*
X124197Y-62475D02*
X124197Y-66412D01*
X124197Y-66412D02*
X128134Y-66412D01*
X128134Y-66412D02*
X128134Y-62475D01*
X122622Y-66412D02*
X122622Y-62475D01*
X118685Y-66412D02*
X122622Y-66412D01*
X118685Y-66412D02*
X118685Y-62475D01*
X113173Y-71924D02*
X117110Y-71924D01*
X117110Y-71924D02*
X117110Y-67987D01*
X117110Y-67987D02*
X113173Y-67987D01*
X113173Y-77436D02*
X117110Y-77436D01*
X117110Y-77436D02*
X117110Y-73499D01*
X117110Y-73499D02*
X113173Y-73499D01*
X124197Y-82948D02*
X124197Y-79011D01*
X124197Y-79011D02*
X128134Y-79011D01*
X128134Y-79011D02*
X128134Y-82948D01*
X118685Y-82948D02*
X118685Y-79011D01*
X118685Y-79011D02*
X122622Y-79011D01*
X122622Y-79011D02*
X122622Y-82948D01*
X129709Y-62475D02*
X129709Y-66412D01*
X129709Y-66412D02*
X133646Y-66412D01*
X129709Y-82948D02*
X129709Y-79011D01*
X129709Y-79011D02*
X133646Y-79011D01*
X113173Y-79011D02*
X117110Y-79011D01*
X117110Y-79011D02*
X117110Y-82948D01*
X113173Y-66412D02*
X117110Y-66412D01*
X117110Y-66412D02*
X117110Y-62475D01*
X111598Y-60900D02*
X135221Y-60900D01*
X135221Y-60900D02*
X135221Y-84522D01*
X135221Y-84522D02*
X111598Y-84522D01*
X111598Y-84522D02*
X111598Y-60900D01*
X129245Y-56437D02*
X129376Y-56437D01*
X129432Y-56644D02*
X129245Y-56644D01*
X129245Y-56250D01*
X129432Y-56250D01*
X129601Y-56644D02*
X129601Y-56250D01*
X129826Y-56644D01*
X129826Y-56250D01*
X130238Y-56606D02*
X130219Y-56625D01*
X130163Y-56644D01*
X130126Y-56644D01*
X130069Y-56625D01*
X130032Y-56587D01*
X130013Y-56550D01*
X129994Y-56475D01*
X129994Y-56419D01*
X130013Y-56344D01*
X130032Y-56306D01*
X130069Y-56269D01*
X130126Y-56250D01*
X130163Y-56250D01*
X130219Y-56269D01*
X130238Y-56287D01*
X130388Y-56287D02*
X130407Y-56269D01*
X130444Y-56250D01*
X130538Y-56250D01*
X130576Y-56269D01*
X130594Y-56287D01*
X130613Y-56325D01*
X130613Y-56362D01*
X130594Y-56419D01*
X130369Y-56644D01*
X130613Y-56644D01*
X127426Y-55650D02*
X127557Y-55650D01*
X127614Y-55856D02*
X127426Y-55856D01*
X127426Y-55463D01*
X127614Y-55463D01*
X127782Y-55856D02*
X127782Y-55463D01*
X128007Y-55856D01*
X128007Y-55463D01*
X128420Y-55819D02*
X128401Y-55838D01*
X128345Y-55856D01*
X128307Y-55856D01*
X128251Y-55838D01*
X128213Y-55800D01*
X128195Y-55763D01*
X128176Y-55688D01*
X128176Y-55631D01*
X128195Y-55556D01*
X128213Y-55519D01*
X128251Y-55481D01*
X128307Y-55463D01*
X128345Y-55463D01*
X128401Y-55481D01*
X128420Y-55500D01*
X128663Y-55463D02*
X128738Y-55463D01*
X128776Y-55481D01*
X128813Y-55519D01*
X128832Y-55594D01*
X128832Y-55725D01*
X128813Y-55800D01*
X128776Y-55838D01*
X128738Y-55856D01*
X128663Y-55856D01*
X128626Y-55838D01*
X128588Y-55800D01*
X128570Y-55725D01*
X128570Y-55594D01*
X128588Y-55519D01*
X128626Y-55481D01*
X128663Y-55463D01*
X129001Y-55856D02*
X129001Y-55463D01*
X129095Y-55463D01*
X129151Y-55481D01*
X129188Y-55519D01*
X129207Y-55556D01*
X129226Y-55631D01*
X129226Y-55688D01*
X129207Y-55763D01*
X129188Y-55800D01*
X129151Y-55838D01*
X129095Y-55856D01*
X129001Y-55856D01*
X129395Y-55650D02*
X129526Y-55650D01*
X129582Y-55856D02*
X129395Y-55856D01*
X129395Y-55463D01*
X129582Y-55463D01*
X129976Y-55856D02*
X129845Y-55669D01*
X129751Y-55856D02*
X129751Y-55463D01*
X129901Y-55463D01*
X129938Y-55481D01*
X129957Y-55500D01*
X129976Y-55538D01*
X129976Y-55594D01*
X129957Y-55631D01*
X129938Y-55650D01*
X129901Y-55669D01*
X129751Y-55669D01*
X130051Y-55894D02*
X130351Y-55894D01*
X130632Y-55856D02*
X130444Y-55856D01*
X130444Y-55463D01*
X130763Y-55650D02*
X130894Y-55650D01*
X130951Y-55856D02*
X130763Y-55856D01*
X130763Y-55463D01*
X130951Y-55463D01*
X131119Y-55856D02*
X131119Y-55463D01*
X131213Y-55463D01*
X131269Y-55481D01*
X131307Y-55519D01*
X131326Y-55556D01*
X131344Y-55631D01*
X131344Y-55688D01*
X131326Y-55763D01*
X131307Y-55800D01*
X131269Y-55838D01*
X131213Y-55856D01*
X131119Y-55856D01*
X131419Y-55894D02*
X131719Y-55894D01*
X131813Y-55856D02*
X131813Y-55463D01*
X131963Y-55463D01*
X132000Y-55481D01*
X132019Y-55500D01*
X132038Y-55538D01*
X132038Y-55594D01*
X132019Y-55631D01*
X132000Y-55650D01*
X131963Y-55669D01*
X131813Y-55669D01*
X132338Y-55650D02*
X132394Y-55669D01*
X132413Y-55688D01*
X132432Y-55725D01*
X132432Y-55781D01*
X132413Y-55819D01*
X132394Y-55838D01*
X132357Y-55856D01*
X132207Y-55856D01*
X132207Y-55463D01*
X132338Y-55463D01*
X132375Y-55481D01*
X132394Y-55500D01*
X132413Y-55538D01*
X132413Y-55575D01*
X132394Y-55613D01*
X132375Y-55631D01*
X132338Y-55650D01*
X132207Y-55650D01*
X129246Y-40701D02*
X129377Y-40701D01*
X129433Y-40907D02*
X129246Y-40907D01*
X129246Y-40513D01*
X129433Y-40513D01*
X129602Y-40907D02*
X129602Y-40513D01*
X129827Y-40907D01*
X129827Y-40513D01*
X130239Y-40869D02*
X130221Y-40888D01*
X130164Y-40907D01*
X130127Y-40907D01*
X130071Y-40888D01*
X130033Y-40851D01*
X130014Y-40813D01*
X129996Y-40738D01*
X129996Y-40682D01*
X130014Y-40607D01*
X130033Y-40569D01*
X130071Y-40532D01*
X130127Y-40513D01*
X130164Y-40513D01*
X130221Y-40532D01*
X130239Y-40551D01*
X130614Y-40907D02*
X130389Y-40907D01*
X130502Y-40907D02*
X130502Y-40513D01*
X130464Y-40569D01*
X130427Y-40607D01*
X130389Y-40626D01*
X127427Y-41488D02*
X127559Y-41488D01*
X127615Y-41694D02*
X127427Y-41694D01*
X127427Y-41301D01*
X127615Y-41301D01*
X127784Y-41694D02*
X127784Y-41301D01*
X128008Y-41694D01*
X128008Y-41301D01*
X128421Y-41657D02*
X128402Y-41676D01*
X128346Y-41694D01*
X128308Y-41694D01*
X128252Y-41676D01*
X128215Y-41638D01*
X128196Y-41601D01*
X128177Y-41526D01*
X128177Y-41469D01*
X128196Y-41394D01*
X128215Y-41357D01*
X128252Y-41319D01*
X128308Y-41301D01*
X128346Y-41301D01*
X128402Y-41319D01*
X128421Y-41338D01*
X128665Y-41301D02*
X128740Y-41301D01*
X128777Y-41319D01*
X128815Y-41357D01*
X128833Y-41432D01*
X128833Y-41563D01*
X128815Y-41638D01*
X128777Y-41676D01*
X128740Y-41694D01*
X128665Y-41694D01*
X128627Y-41676D01*
X128590Y-41638D01*
X128571Y-41563D01*
X128571Y-41432D01*
X128590Y-41357D01*
X128627Y-41319D01*
X128665Y-41301D01*
X129002Y-41694D02*
X129002Y-41301D01*
X129096Y-41301D01*
X129152Y-41319D01*
X129190Y-41357D01*
X129208Y-41394D01*
X129227Y-41469D01*
X129227Y-41526D01*
X129208Y-41601D01*
X129190Y-41638D01*
X129152Y-41676D01*
X129096Y-41694D01*
X129002Y-41694D01*
X129396Y-41488D02*
X129527Y-41488D01*
X129583Y-41694D02*
X129396Y-41694D01*
X129396Y-41301D01*
X129583Y-41301D01*
X129977Y-41694D02*
X129846Y-41507D01*
X129752Y-41694D02*
X129752Y-41301D01*
X129902Y-41301D01*
X129940Y-41319D01*
X129958Y-41338D01*
X129977Y-41376D01*
X129977Y-41432D01*
X129958Y-41469D01*
X129940Y-41488D01*
X129902Y-41507D01*
X129752Y-41507D01*
X130052Y-41732D02*
X130352Y-41732D01*
X130633Y-41694D02*
X130446Y-41694D01*
X130446Y-41301D01*
X130764Y-41488D02*
X130896Y-41488D01*
X130952Y-41694D02*
X130764Y-41694D01*
X130764Y-41301D01*
X130952Y-41301D01*
X131121Y-41694D02*
X131121Y-41301D01*
X131214Y-41301D01*
X131271Y-41319D01*
X131308Y-41357D01*
X131327Y-41394D01*
X131346Y-41469D01*
X131346Y-41526D01*
X131327Y-41601D01*
X131308Y-41638D01*
X131271Y-41676D01*
X131214Y-41694D01*
X131121Y-41694D01*
X131421Y-41732D02*
X131721Y-41732D01*
X131814Y-41694D02*
X131814Y-41301D01*
X131964Y-41301D01*
X132002Y-41319D01*
X132020Y-41338D01*
X132039Y-41376D01*
X132039Y-41432D01*
X132020Y-41469D01*
X132002Y-41488D01*
X131964Y-41507D01*
X131814Y-41507D01*
X132339Y-41488D02*
X132395Y-41507D01*
X132414Y-41526D01*
X132433Y-41563D01*
X132433Y-41619D01*
X132414Y-41657D01*
X132395Y-41676D01*
X132358Y-41694D01*
X132208Y-41694D01*
X132208Y-41301D01*
X132339Y-41301D01*
X132377Y-41319D01*
X132395Y-41338D01*
X132414Y-41376D01*
X132414Y-41413D01*
X132395Y-41451D01*
X132377Y-41469D01*
X132339Y-41488D01*
X132208Y-41488D01*
G54D13*
X133702Y-58160D02*
X133441Y-58327D01*
X133702Y-58446D02*
X133152Y-58446D01*
X133152Y-58255D01*
X133179Y-58208D01*
X133205Y-58184D01*
X133257Y-58160D01*
X133336Y-58160D01*
X133388Y-58184D01*
X133414Y-58208D01*
X133441Y-58255D01*
X133441Y-58446D01*
X133152Y-57731D02*
X133152Y-57827D01*
X133179Y-57874D01*
X133205Y-57898D01*
X133283Y-57946D01*
X133388Y-57970D01*
X133598Y-57970D01*
X133650Y-57946D01*
X133676Y-57922D01*
X133702Y-57874D01*
X133702Y-57779D01*
X133676Y-57731D01*
X133650Y-57708D01*
X133598Y-57684D01*
X133467Y-57684D01*
X133414Y-57708D01*
X133388Y-57731D01*
X133362Y-57779D01*
X133362Y-57874D01*
X133388Y-57922D01*
X133414Y-57946D01*
X133467Y-57970D01*
X130521Y-57557D02*
X130259Y-57724D01*
X130521Y-57843D02*
X129971Y-57843D01*
X129971Y-57652D01*
X129998Y-57604D01*
X130024Y-57581D01*
X130076Y-57557D01*
X130155Y-57557D01*
X130207Y-57581D01*
X130233Y-57604D01*
X130259Y-57652D01*
X130259Y-57843D01*
X129971Y-57104D02*
X129971Y-57343D01*
X130233Y-57366D01*
X130207Y-57343D01*
X130181Y-57295D01*
X130181Y-57176D01*
X130207Y-57128D01*
X130233Y-57104D01*
X130286Y-57081D01*
X130417Y-57081D01*
X130469Y-57104D01*
X130495Y-57128D01*
X130521Y-57176D01*
X130521Y-57295D01*
X130495Y-57343D01*
X130469Y-57366D01*
G54D12*
X135294Y-56004D02*
X135161Y-55814D01*
X135066Y-56004D02*
X135066Y-55604D01*
X135218Y-55604D01*
X135256Y-55623D01*
X135275Y-55642D01*
X135294Y-55681D01*
X135294Y-55738D01*
X135275Y-55776D01*
X135256Y-55795D01*
X135218Y-55814D01*
X135066Y-55814D01*
X135409Y-55604D02*
X135542Y-56004D01*
X135675Y-55604D01*
X136018Y-56004D02*
X135790Y-56004D01*
X135904Y-56004D02*
X135904Y-55604D01*
X135866Y-55661D01*
X135828Y-55700D01*
X135790Y-55719D01*
X136488Y-84351D02*
X136488Y-83951D01*
X136622Y-84236D01*
X136755Y-83951D01*
X136755Y-84351D01*
X136945Y-84351D02*
X136945Y-83951D01*
X137365Y-84313D02*
X137345Y-84332D01*
X137288Y-84351D01*
X137250Y-84351D01*
X137193Y-84332D01*
X137155Y-84294D01*
X137136Y-84256D01*
X137117Y-84179D01*
X137117Y-84122D01*
X137136Y-84046D01*
X137155Y-84008D01*
X137193Y-83970D01*
X137250Y-83951D01*
X137288Y-83951D01*
X137345Y-83970D01*
X137365Y-83989D01*
X137745Y-84351D02*
X137517Y-84351D01*
X137631Y-84351D02*
X137631Y-83951D01*
X137593Y-84008D01*
X137555Y-84046D01*
X137517Y-84065D01*
G54D10*
X112963Y-37151D02*
X112776Y-37151D01*
X112776Y-36757D01*
X113320Y-37113D02*
X113301Y-37132D01*
X113245Y-37151D01*
X113207Y-37151D01*
X113151Y-37132D01*
X113113Y-37095D01*
X113095Y-37057D01*
X113076Y-36982D01*
X113076Y-36926D01*
X113095Y-36851D01*
X113113Y-36814D01*
X113151Y-36776D01*
X113207Y-36757D01*
X113245Y-36757D01*
X113301Y-36776D01*
X113320Y-36795D01*
X113488Y-37151D02*
X113488Y-36757D01*
X113582Y-36757D01*
X113638Y-36776D01*
X113676Y-36814D01*
X113695Y-36851D01*
X113713Y-36926D01*
X113713Y-36982D01*
X113695Y-37057D01*
X113676Y-37095D01*
X113638Y-37132D01*
X113582Y-37151D01*
X113488Y-37151D01*
X114088Y-37151D02*
X113863Y-37151D01*
X113976Y-37151D02*
X113976Y-36757D01*
X113938Y-36814D01*
X113901Y-36851D01*
X113863Y-36870D01*
X109204Y-36757D02*
X109017Y-36757D01*
X108998Y-36945D01*
X109017Y-36926D01*
X109054Y-36907D01*
X109148Y-36907D01*
X109185Y-36926D01*
X109204Y-36945D01*
X109223Y-36982D01*
X109223Y-37076D01*
X109204Y-37113D01*
X109185Y-37132D01*
X109148Y-37151D01*
X109054Y-37151D01*
X109017Y-37132D01*
X108998Y-37113D01*
X109598Y-37151D02*
X109373Y-37151D01*
X109485Y-37151D02*
X109485Y-36757D01*
X109448Y-36814D01*
X109410Y-36851D01*
X109373Y-36870D01*
X109973Y-37151D02*
X109748Y-37151D01*
X109860Y-37151D02*
X109860Y-36757D01*
X109823Y-36814D01*
X109785Y-36851D01*
X109748Y-36870D01*
X110216Y-36757D02*
X110254Y-36757D01*
X110291Y-36776D01*
X110310Y-36795D01*
X110329Y-36832D01*
X110348Y-36907D01*
X110348Y-37001D01*
X110329Y-37076D01*
X110310Y-37113D01*
X110291Y-37132D01*
X110254Y-37151D01*
X110216Y-37151D01*
X110179Y-37132D01*
X110160Y-37113D01*
X110141Y-37076D01*
X110123Y-37001D01*
X110123Y-36907D01*
X110141Y-36832D01*
X110160Y-36795D01*
X110179Y-36776D01*
X110216Y-36757D01*
X134711Y-31064D02*
X134711Y-31346D01*
X134692Y-31402D01*
X134655Y-31439D01*
X134598Y-31458D01*
X134561Y-31458D01*
X135104Y-31458D02*
X134880Y-31458D01*
X134992Y-31458D02*
X134992Y-31064D01*
X134955Y-31121D01*
X134917Y-31158D01*
X134880Y-31177D01*
M02*
